<?xml version="1.0" encoding="UTF-8"?><svg id="Layer_2" xmlns="http://www.w3.org/2000/svg" viewBox="0 0 108.97 110"><defs><style>.cls-1{fill:#febe10;}.cls-2{fill:#b41f5e;}.cls-3{fill:#f05443;}</style></defs><g id="Layer_1-2"><g><path class="cls-2" d="m72.01,63.38c-1.24-.08-2.33-.15-3.51-.23,0,.37,0,.77,0,1.17,0,8.35-.01,16.7.02,25.05,0,.76-.22,1.28-.76,1.81-5.74,5.7-11.45,11.44-17.2,17.14-.37.36-.98.67-1.48.67-16.08.03-32.16.03-48.24.03h-.83V.09h68.44v2.79c8.16-3.7,16.22-3.9,24.24-.2,6.1,2.82,10.64,7.34,13.51,13.42,3.22,6.82,3.66,13.88,1.23,21.04-2.43,7.15-7.14,12.4-13.83,16.06,2.46,1.58,3.66,3.69,2.73,6.47-1.04,3.11-3.58,3.92-6.74,3.61,0,.49,0,.88,0,1.27,0,11.17,0,22.34-.03,33.51,0,.63-.27,1.36-.66,1.86-2.4,3.09-4.87,6.14-7.32,9.19-.23.28-.46.55-.77.91-.28-.31-.52-.57-.74-.84-2.5-3.11-5.01-6.22-7.46-9.36-.35-.44-.58-1.1-.58-1.67-.03-11.13-.03-22.26-.03-33.4,0-.43,0-.87,0-1.36Zm-7.03,24.56c0-.52,0-.88,0-1.24,0-9.01.05-18.02-.03-27.02-.02-2.69.39-5.03,3.12-6.45-.44-.26-.71-.43-.99-.58-17.8-9.84-19.39-35.09-2.95-47.09.73-.53,1.02-1.06.76-1.96H3.51v101.82h43.91v-17.47h17.56Zm15.82-35.19c13.48.02,24.57-11,24.61-24.47.04-13.63-10.97-24.73-24.56-24.74-13.57-.01-24.63,10.97-24.67,24.52-.04,13.6,10.99,24.67,24.61,24.69Zm5.2,43.9v-33.29h-3.45v3.38h-3.53v-3.36h-3.4v33.27h3.45v-26.23h3.53v26.23h3.41Zm-5.19-36.86c3.37,0,6.74,0,10.11,0,1.38,0,2.19-.66,2.19-1.76,0-1.1-.81-1.75-2.19-1.75-6.74,0-13.48,0-20.21,0-1.38,0-2.19.66-2.19,1.76,0,1.09.81,1.75,2.19,1.76,3.37,0,6.74,0,10.11,0Zm-29.84,42.65c3.63-3.63,7.36-7.35,10.96-10.96h-10.96v10.96Zm33.14-2.14h-6.61c1.14,1.42,2.18,2.72,3.31,4.12,1.12-1.4,2.16-2.69,3.3-4.12Z"/><path class="cls-1" d="m12.24,101.98c-2.66,0-4.95-2.03-5.25-4.67-.3-2.6,1.39-5.09,3.98-5.65.85-.18,1.19-.56,1.43-1.35,1.12-3.79,2.29-7.56,3.47-11.32.18-.56.21-.95-.28-1.45-1.86-1.87-2.09-4.53-.68-6.62,1.42-2.09,4.08-2.89,6.4-1.91,2.33.97,3.56,3.34,3.14,5.9-.06.34.11.88.37,1.09,2.89,2.37,5.8,4.7,8.75,7,.26.2.82.23,1.14.11,1.56-.62,3.05-.58,4.57.12.31.14.86.1,1.13-.09,3.4-2.42,6.78-4.87,10.13-7.36.28-.21.48-.77.43-1.13-.32-2.34.95-4.66,3.15-5.62,2.2-.95,4.72-.31,6.22,1.59,1.48,1.88,1.51,4.52.05,6.42-1.5,1.96-4.05,2.67-6.28,1.62-.74-.35-1.2-.27-1.83.2-3.2,2.38-6.43,4.72-9.67,7.05-.5.36-.65.67-.56,1.34.3,2.2-.55,3.96-2.43,5.14-1.89,1.18-3.85,1.14-5.69-.1-1.83-1.24-2.63-3.03-2.24-5.22.12-.69-.02-1.05-.54-1.46-2.76-2.17-5.51-4.37-8.23-6.58-.56-.46-1.02-.43-1.74-.34-1.67.22-1.99,1.32-2.37,2.63-.98,3.41-2.04,6.79-3.12,10.17-.23.72-.15,1.15.39,1.72,1.52,1.61,1.85,3.53,1,5.59-.8,1.96-2.74,3.22-4.83,3.22Zm8.77-28.17c-.03-.95-.85-1.73-1.79-1.7-.95.03-1.73.84-1.7,1.79.02.95.85,1.73,1.79,1.71.95-.03,1.73-.85,1.7-1.79Zm36.92,0c-.03-.95-.85-1.73-1.8-1.69-.96.03-1.72.85-1.7,1.8.03.95.85,1.73,1.8,1.7.95-.03,1.73-.86,1.7-1.8Zm-21.05,15.86c.95-.03,1.73-.84,1.71-1.79-.02-.95-.84-1.73-1.79-1.71-.95.02-1.73.84-1.7,1.79.03.95.84,1.73,1.79,1.71Zm-22.91,6.99c-.03-.95-.85-1.73-1.8-1.7-.95.03-1.73.85-1.7,1.8.03.95.85,1.73,1.8,1.7.95-.03,1.73-.85,1.7-1.8Z"/><path class="cls-1" d="m28,7.13v20.97H7.04V7.13h20.96Zm-3.54,17.46v-13.93h-13.93v13.93h13.93Z"/><path class="cls-1" d="m7.01,49.17v-3.38h49.09v3.38H7.01Z"/><path class="cls-1" d="m7.01,56.2v-3.39h49.09v3.39H7.01Z"/><path class="cls-1" d="m21.07,63.23v-3.38h35.02v3.38H21.07Z"/><path class="cls-1" d="m7.01,42.14v-3.39h33.27v3.39H7.01Z"/><path class="cls-1" d="m7,35.1v-3.38h17.48v3.38H7Z"/><path class="cls-1" d="m31.62,10.5v-3.38h13.93v3.38h-13.93Z"/><path class="cls-1" d="m31.61,17.51v-3.36h13.96v3.36h-13.96Z"/><path class="cls-1" d="m31.62,24.56v-3.38h13.93v3.38h-13.93Z"/><path class="cls-1" d="m28.1,35.12v-3.39h12.19v3.39h-12.19Z"/><path class="cls-1" d="m10.43,59.87v3.38h-3.38v-3.38h3.38Z"/><path class="cls-1" d="m17.45,63.26h-3.38v-3.4h3.38v3.4Z"/><path class="cls-3" d="m92.77,41.08c.86.78,1.68,1.5,2.48,2.23-5.46,5.93-17.37,8.84-26.92,1.84-9.44-6.91-11.45-20.22-4.47-29.56,7.01-9.4,20.29-11.34,29.59-4.29,9.74,7.37,10.73,20.46,4.56,28.95-.91-.64-1.82-1.28-2.8-1.96,3.11-4.8,4.02-9.89,2.35-15.34-1.31-4.27-3.95-7.56-7.76-9.87-7.56-4.58-17.41-2.72-22.88,4.3-5.43,6.96-4.83,16.87,1.4,23.16,6.26,6.31,16.8,7.34,24.45.56Z"/><path class="cls-3" d="m94.78,28.1h-3.34c-1.09-6.74-4.27-9.92-10.58-10.54v-3.34c6.69-.52,14.17,5.84,13.91,13.88Z"/></g></g></svg>