<?xml version="1.0" encoding="UTF-8"?><svg id="Layer_2" xmlns="http://www.w3.org/2000/svg" viewBox="0 0 110.45 119.8"><defs><style>.cls-1{fill:#febe10;}.cls-2{fill:#b41f5e;}.cls-3{fill:#f05443;}</style></defs><g id="Layer_1-2"><g><path class="cls-2" d="m98.24,61.33c-.32,2.98-.62,5.8-.94,8.72,1.45,1.15,3.24,2.36,4.79,3.83,5.38,5.08,8.18,11.39,8.28,18.78.12,8.36.04,16.72.03,25.08,0,1.55-.5,2.05-2.06,2.05-16.37,0-32.74,0-49.1,0-1.57,0-2.06-.49-2.09-2.04-.02-1.31,0-2.62,0-4h-12.45c0,1.31,0,2.61,0,3.91-.01,1.68-.44,2.14-2.09,2.14-13.51,0-27.02,0-40.52,0-1.59,0-2.05-.5-2.05-2.19,0-8.19-.1-16.37.03-24.56.15-9.7,4.43-17.19,12.55-22.49.26-.17.51-.33.56-.36-.33-3-.64-5.86-.97-8.85-1.49-.1-1.72-1.24-1.64-2.66.13-2.37-.07-4.78.3-7.1,1.22-7.91,8.26-13.56,16.36-13.36,7.82.2,14.51,6.35,15.35,14.22.2,1.86.03,3.76.03,5.82.86,0,1.46,0,2.06,0,1.73,0,2.43.45,2.41,1.52-.02,1.06-.69,1.45-2.47,1.45-1.18,0-2.36,0-3.76,0,0,.88.07,1.66-.01,2.42-.19,1.78-.36,3.58-.72,5.33-.16.78-.12,1.13.58,1.57,6.42,4.05,10.6,9.78,11.98,17.25.63,3.43.45,7,.63,10.51.03.69,0,1.39,0,2.15h3.87c0-.54-.03-1.09,0-1.63.23-3.9.05-7.88.79-11.68,1.39-7.11,5.49-12.57,11.61-16.45.89-.57.95-1.02.72-1.98-.38-1.57-.5-3.2-.66-4.81-.08-.82-.01-1.66-.01-2.68-1.25,0-2.37,0-3.5,0-2.05,0-2.71-.36-2.73-1.46-.02-1.12.68-1.52,2.67-1.52.48,0,.96,0,1.65,0,0-1.38-.02-2.68,0-3.98.13-7.6,5.18-13.92,12.52-15.66,9.74-2.32,19.43,5.17,19.64,15.17.04,1.76.01,3.52.01,5.28,0,1.6-.21,1.86-1.63,2.25Zm-56.59,33.18H11.71v22.2h29.95v-22.2Zm57.13-.02h-29.99v6.07c2.25,0,4.43.03,6.62-.03.34-.01.73-.41.98-.73.84-1.08,1.62-2.19,2.42-3.3.6-.82,1.37-1.19,2.25-.55.89.64.77,1.49.18,2.32-.5.7-.99,1.4-1.46,2.06.13.15.16.2.18.2,1.05.02,2.11.03,3.16.04,1.57.02,2.03.46,2.04,2.06.02,2.9.02,5.81,0,8.71,0,1.93-.4,2.33-2.32,2.33-4.22,0-8.45,0-12.67,0-.46,0-.93.05-1.4.07v2.94h29.99v-22.2Zm-53.98-16.43v32.47h26.97v-6.95c-.57,0-1.08,0-1.6,0-5.8,0-11.61,0-17.41,0-2.18,0-2.48-.34-2.52-2.53-.08-3.91.03-7.84-.35-11.72-.41-4.13-2.26-7.79-5.09-11.26Zm-7.09-16.75H15.59c-.53,4.91.26,9.32,4.51,12.35,3.81,2.73,7.96,3,12.04.69,5.03-2.85,6.17-7.55,5.57-13.04Zm35.03,0c-.59,5.5.55,10.2,5.58,13.05,4.08,2.31,8.23,2.04,12.04-.69,4.24-3.04,5.02-7.45,4.5-12.35h-22.12Zm-33.16-3.03c.7-6.56-.71-12.06-6.71-15.42-3.68-2.06-7.54-2.13-11.63-.42,4.76,4.38,5.69,9.84,5.21,15.75.51.04.8.08,1.1.08,3.99,0,7.98,0,12.03,0Zm49.57-15.79c-4.32-2.16-9.94-1.38-13.69,1.78-4.4,3.7-5.18,8.58-4.57,13.92h13.15c-.54-5.97.46-11.4,5.12-15.7Zm-13.22,34.03v14.74h15.71v-14.7c-5.26,3.06-10.43,3.09-15.71-.04Zm-41.43,14.79v-14.77c-5.27,3.1-10.44,3.08-15.68.02v14.75h15.68Zm-25.99-13.18c-.43.5-.66.75-.86,1.02-3.1,4.21-4.6,8.95-4.62,14.16-.03,7.39,0,14.77,0,22.16,0,.39.04.77.07,1.21h5.42v-38.54Zm98.8,38.58c.04-.36.11-.66.11-.96,0-7.61.05-15.22-.02-22.83-.04-4.92-1.5-9.43-4.37-13.45-.27-.37-.57-.72-1.05-1.3v38.54h5.33ZM18.53,44.19c-4.33,3.26-5.59,8.54-4.76,13.98h9.68c.54-6.6-1.15-11.41-4.92-13.98Zm73.37-.1c-4.57,3.78-5.43,8.67-4.84,14.09h9.75c.48-5.44-.27-10.35-4.91-14.09Zm-26.25,56.41v-22.24c-4.4,4.36-6.68,14.08-5.27,22.24h5.27Zm6.52-27.9c-.8.52-1.33.91-1.9,1.22-1.21.65-1.62,1.57-1.58,2.98.11,4.35.04,8.71.04,13.07,0,.47,0,.93,0,1.37h4.15c0-5.79.01-11.46-.03-17.13,0-.46-.39-.91-.67-1.51Zm-30.43,18.7c0-5.37,0-10.6-.02-15.83,0-.26-.17-.61-.38-.77-.93-.7-1.91-1.35-3.16-2.22-.25.91-.56,1.54-.56,2.17-.04,5.19-.02,10.38-.02,15.58,0,.34.06.68.09,1.07h4.05Zm57.11,0c0-5.33,0-10.51-.02-15.69,0-.34-.21-.78-.47-.99-.89-.69-1.84-1.3-3.06-2.15-.22.93-.49,1.57-.49,2.21-.04,5.14-.02,10.27-.02,15.41,0,.38.05.76.08,1.2h3.99Zm-83.17,0c0-5.81.02-11.47-.03-17.13,0-.48-.39-.96-.64-1.55-.79.51-1.36.92-1.96,1.26-1.09.62-1.51,1.45-1.47,2.77.12,3.33.04,6.67.04,10.01,0,1.52,0,3.05,0,4.63h4.07Zm66.44,19.27v-6.89h-7.22v6.89h7.22Zm-16.46,6.16v-2.99h-5.33v2.99h5.33Z"/><path class="cls-1" d="m69.6,35.43c.03.07.04.12.07.14,2.74,2.62,1.93,2.84-.21,4.98-.62.62-1.24,1.25-1.87,1.86-1.16,1.13-1.72,1.13-2.88-.02-.34-.34-.58-.78-.78-1.05-1.51.61-2.75,1.05-3.92,1.62-.3.15-.56.7-.58,1.08-.12,2.4-.33,2.63-2.7,2.63-1.23,0-2.46.01-3.7,0-1.46-.02-2.05-.53-1.95-2,.09-1.24-.32-1.8-1.51-2.09-.92-.23-1.78-.74-2.76-1.17-.42.4-.89.86-1.37,1.3-.78.73-1.57.72-2.32-.03-1.09-1.08-2.19-2.17-3.26-3.27-1.1-1.12-1.09-1.75.05-2.88.34-.34.79-.57,1.04-.75-.6-1.5-1.02-2.71-1.59-3.84-.17-.35-.74-.67-1.15-.7-2.44-.15-2.58-.26-2.58-2.73,0-1.23-.01-2.46,0-3.7.02-1.42.5-1.98,1.9-1.88,1.28.09,1.98-.29,2.15-1.59.03-.21.12-.44.24-.61.94-1.35,1.05-2.51-.42-3.67-.33-.26-.33-1.54.01-1.95,1.11-1.36,2.41-2.56,3.69-3.77.77-.73,1.69-.67,2.31.15.9,1.19,1.84,1.24,2.97.44.18-.12.39-.22.6-.26,1.52-.26,2.22-1.02,2.01-2.67-.12-.96.6-1.55,1.57-1.58,1.67-.05,3.34-.05,5.01,0,1.27.03,1.85.83,1.7,2.01-.16,1.26.33,1.88,1.52,2.07.21.03.43.12.61.23,1.34.83,2.52,1.14,3.66-.44.53-.73,1.44-.57,2.1.06,1.23,1.19,2.46,2.39,3.64,3.64.78.83.64,1.76-.22,2.41-1.09.83-1.23,1.67-.42,2.74.13.17.22.39.26.6.33,1.51.94,2.5,2.81,2.19.96-.16,1.47.64,1.47,1.62,0,1.54.02,3.08,0,4.62-.02,1.55-.42,2.05-1.95,1.97-1.22-.06-1.83.28-2.11,1.52-.21.92-.74,1.78-1.16,2.75Zm2.21-9.46c-.37-.03-.62-.07-.88-.08-2.02-.07-2.02-.13-2.57-2.08-.32-1.13-.74-2.26-1.29-3.3-1.23-2.31-1.27-2.28.49-4.23.05-.05.04-.16.03-.14-.5-.55-.95-1.06-1.43-1.59-.23.2-.4.33-.56.48-1.5,1.45-1.58,1.39-3.39.43-1.23-.65-2.55-1.17-3.88-1.58-1.73-.53-1.93-.67-1.99-2.54,0-.26-.04-.51-.06-.83h-2.12c-.03.29-.06.51-.06.72-.07,2.03-.22,2.16-2.15,2.68-1.01.27-2.09.54-2.94,1.11-1.76,1.19-3.31,1.72-4.64-.55-.37.33-.64.55-.88.79-.26.27-.5.57-.76.86.23.24.37.4.52.56,1.41,1.45,1.4,1.59.36,3.39-.48.83-.92,1.71-1.24,2.61-.98,2.78-.95,2.79-3.71,3.36v2.07c.29.02.5.05.72.05,2.08.05,2.15.15,2.69,2.1.3,1.09.65,2.22,1.24,3.17,1.74,2.79,1.1,2.7-.44,4.36-.05.05-.04.16-.06.28.23.24.46.5.71.74.24.23.5.45.77.69.22-.2.38-.34.54-.49,1.49-1.45,1.61-1.43,3.39-.42.91.52,1.86,1.1,2.87,1.29,2.08.39,3.56,1.11,2.97,3.66h2.21c.03-.36.06-.61.07-.87.06-1.83.24-1.92,2.03-2.5,1.45-.47,2.87-1.09,4.2-1.82,1.06-.58,1.88-.59,2.69.32.26.29.57.54.74.7.58-.5,1.13-.97,1.69-1.46-.21-.23-.36-.4-.51-.55-1.42-1.47-1.4-1.56-.37-3.38.54-.95,1.01-1.96,1.34-2.99.82-2.58.78-2.59,3.46-2.87.07,0,.13-.11.2-.18v-1.98Z"/><path class="cls-3" d="m82.73,23.03c.13,1.35-.26,2.07-1.25,2.18-1.07.12-1.56-.58-1.71-1.58-1.05-6.84-4.35-12.36-9.88-16.52-2.56-1.92-5.41-3.25-8.51-4.04-1.28-.33-1.89-1.11-1.57-1.99.36-1,1.09-1.24,2.11-.98,6.47,1.65,11.67,5.18,15.66,10.5,2.84,3.8,4.57,8.08,5.15,12.43Z"/><path class="cls-3" d="m27.25,27.09c.26-7.34,2.75-13.67,7.72-19.03.27-.29.55-.71.87-.76.55-.1,1.35-.16,1.65.15.36.37.43,1.15.39,1.73-.03.36-.5.69-.79,1.02-5.74,6.39-7.72,13.81-6.06,22.23.04.21.12.42.15.64.14.97-.21,1.69-1.2,1.88-.91.17-1.56-.32-1.71-1.23-.37-2.2-.68-4.41-1.02-6.62Z"/><path class="cls-3" d="m49.34,54.4c-2.09-.79-3.96-1.4-5.73-2.22-.38-.17-.72-1.23-.53-1.62.22-.48,1.11-1.05,1.56-.94,1.77.42,3.52,1.02,5.2,1.73.43.18.85,1.08.77,1.57-.09.52-.78.95-1.27,1.49Z"/><path class="cls-3" d="m61.12,54.4c-.49-.54-1.18-.96-1.27-1.49-.08-.48.34-1.38.77-1.57,1.68-.71,3.43-1.31,5.2-1.73.45-.11,1.34.47,1.56.94.18.4-.16,1.45-.54,1.62-1.77.82-3.63,1.44-5.73,2.22Z"/><path class="cls-3" d="m45.41,4.23c-.37-.36-1.05-.74-1.15-1.23-.1-.5.23-1.45.63-1.63,1.34-.6,2.78-1.06,4.23-1.33.43-.08,1.28.52,1.44.98.16.45-.17,1.46-.56,1.64-1.38.63-2.87,1.01-4.59,1.57Z"/><path class="cls-3" d="m82.67,32.01c-.43,1.5-.65,2.78-1.19,3.91-.21.43-1.18.79-1.71.69-.43-.09-1.03-.95-.98-1.41.12-1.21.42-2.44.92-3.54.2-.45,1.13-.83,1.68-.78.46.04.87.75,1.27,1.14Z"/><path class="cls-1" d="m55.05,38.32c-6.23-.13-11.2-5.23-11.12-11.38.09-6.29,5.28-11.28,11.62-11.16,6.07.12,11.08,5.31,10.98,11.39-.09,6.26-5.27,11.28-11.48,11.15Zm8.43-11.25c.01-4.6-3.72-8.33-8.3-8.3-4.53.03-8.19,3.72-8.19,8.27,0,4.56,3.64,8.26,8.17,8.28,4.62.02,8.31-3.64,8.33-8.25Z"/><path class="cls-1" d="m50.43,26.99c.03-2.65,2.16-4.77,4.8-4.77,2.69,0,4.83,2.19,4.8,4.9-.03,2.65-2.16,4.76-4.8,4.76-2.7,0-4.83-2.17-4.8-4.89Zm6.63.03c-.02-.99-.88-1.81-1.89-1.75-1.09.07-1.66.72-1.74,1.76-.07.98.82,1.84,1.81,1.84.99,0,1.84-.86,1.82-1.85Z"/></g></g></svg>