<?xml version="1.0" encoding="UTF-8"?><svg id="Layer_2" xmlns="http://www.w3.org/2000/svg" viewBox="0 0 134.79 110.25"><defs><style>.cls-1{fill:#febe10;}.cls-2{fill:#b41f5e;}</style></defs><g id="Layer_1-2"><g><path class="cls-2" d="m124.54,81.68c2.6,0,5.03,0,7.47,0,2.55.01,3.3,1.06,2.45,3.4-5.45,15.14-19.53,25.12-35.62,25.14-20.94.03-41.87.03-62.81,0-16.49-.02-30.38-10.01-35.85-25.71-.57-1.64.27-2.79,2.1-2.83,1.27-.03,2.53,0,3.8,0,1.26,0,2.53,0,4.02,0,0-.62,0-1.18,0-1.75,0-22.51,0-45.03,0-67.54,0-6.23,3.78-11.01,9.65-12.19.88-.18,1.8-.2,2.7-.2C52.33,0,82.22,0,112.11,0c7.4,0,12.42,5.03,12.43,12.44.01,22.42,0,44.85,0,67.27,0,.59,0,1.17,0,1.97Zm-110.36,0h1.65c9.22,0,18.44.02,27.67-.02,1.41,0,2.29.52,2.86,1.79.88,1.98,1.86,3.91,2.74,5.89.3.67.68.93,1.43.93,11.21-.02,22.42,0,33.63-.05.44,0,1.09-.42,1.3-.83.98-1.88,1.91-3.79,2.73-5.75.61-1.44,1.52-2.01,3.11-2,9.27.06,18.53.03,27.8.03.48,0,.95-.04,1.48-.06.03-.53.06-.93.06-1.33,0-22.6.01-45.2,0-67.79,0-5.29-3.16-8.42-8.45-8.42-29.83,0-59.67,0-89.5,0-.81,0-1.64.01-2.42.19-3.79.86-6.07,3.95-6.07,8.2,0,22.55,0,45.11,0,67.66,0,.45,0,.89,0,1.55Zm-9.31,4.08c.23.55.37.97.57,1.35,6.29,11.9,16.15,18.69,29.6,18.93,21.37.38,42.76.31,64.14.03,13.17-.17,23.01-6.53,29.51-17.99.39-.69.7-1.43,1.07-2.2-.27-.06-.39-.11-.51-.11-12.2,0-24.41-.01-36.61.03-.4,0-.97.41-1.17.79-1.07,1.99-2.08,4.01-3.04,6.05-.57,1.2-1.39,1.73-2.76,1.72-12.3-.03-24.59-.03-36.89,0-1.37,0-2.2-.58-2.75-1.77-.87-1.88-1.82-3.73-2.63-5.65-.4-.94-.92-1.21-1.93-1.2-11.71.04-23.41.03-35.12.03-.44,0-.88,0-1.48,0Z"/><path class="cls-1" d="m87.39,43.95c-1.3,1.33-2.75,2.95-4.37,4.39-.64.57-1.64,1-2.48,1.03-3.52.11-7.05.02-10.58.08-.43,0-1.07.3-1.25.64-4,7.74-7.68,10.93-16.02,13.65,1.68,1.07,3.3,1.94,4.74,3.05,1.93,1.47,4,2.06,6.42,1.87,1.98-.16,3.98-.08,5.96-.01,1.05.04,1.65-.2,2.15-1.28,1.52-3.3,5.12-4.91,8.59-4.05,3.39.84,5.87,4.13,5.75,7.62-.12,3.42-2.71,6.41-6.19,7.13-3.32.69-6.94-1.1-8.27-4.23-.39-.93-.86-1.16-1.79-1.15-2.98.05-5.97.08-8.95-.02-.94-.03-1.97-.32-2.77-.81-3.71-2.24-7.35-4.61-11.04-6.88-.59-.36-1.31-.61-1.99-.68-12.71-1.29-22.12-11.38-21.88-23.85.18-9.53,4.64-16.77,13.18-21,8.49-4.2,16.8-3.31,24.57,2.18.33.23.65.47,1.07.78,2.55-2.55,5.1-5.04,7.56-7.61.95-1,1.97-1.42,3.35-1.39,2.98.07,5.97-.01,8.95.04,1.05.02,1.64-.23,2.16-1.28,1.66-3.34,5.35-4.91,8.77-3.94,3.44.97,5.74,4.3,5.49,7.93-.24,3.41-3.04,6.3-6.65,6.84-3.16.48-6.54-1.37-7.81-4.4-.37-.87-.82-1.1-1.7-1.09-2.85.05-5.7,0-8.54.04-.5,0-1.12.16-1.46.48-2.3,2.17-4.55,4.4-6.81,6.61-.19.19-.37.39-.63.67,2.24,2.82,3.96,5.9,4.89,9.39.92,3.46.93,6.95.37,10.62,3.41,0,6.65.01,9.89-.02.3,0,.63-.31.88-.55,1.1-1.07,2.23-2.12,3.24-3.28.28-.33.39-1.05.24-1.47-1.18-3.23-.34-6.56,2.28-8.69,2.51-2.04,5.89-2.27,8.6-.6,2.82,1.75,4.21,5.01,3.46,8.17-.73,3.13-3.59,5.62-6.9,5.75-1.35.05-2.72-.4-4.48-.68Zm-28.12,11.96c-.4-.43-.73-.79-1.08-1.13-3.87-3.87-7.69-7.78-11.63-11.57-1.25-1.2-1.77-2.48-1.75-4.17.05-5.51.01-11.03.01-16.54,0-.47,0-.94,0-1.43-8.14.74-15.08,6.91-17.02,14.95-1.96,8.16,1.59,16.79,8.81,21.37,7.03,4.46,15.94,3.91,22.66-1.49Zm-10.09-17.41h17.42c-1.05-10.49-10.16-17.07-17.42-17.27v17.27Zm3.38,4.22c3.3,3.31,6.65,6.68,9.99,10.04,2.12-2.4,3.87-6.68,4.04-10.04h-14.03Zm41.9-27.28c-.03-1.83-1.68-3.44-3.51-3.41-1.9.03-3.39,1.58-3.37,3.5.02,1.86,1.66,3.47,3.48,3.44,1.82-.03,3.43-1.7,3.4-3.53Zm.6,21.64c-.03-1.85-1.65-3.42-3.51-3.39-1.9.03-3.39,1.58-3.36,3.49.03,1.86,1.65,3.44,3.49,3.41,1.86-.03,3.41-1.65,3.38-3.51Zm-16.33,30.11c-1.9,0-3.45,1.55-3.44,3.44.01,1.83,1.65,3.47,3.47,3.47,1.82,0,3.47-1.66,3.46-3.47,0-1.82-1.65-3.44-3.49-3.44Z"/></g></g></svg>