<?xml version="1.0" encoding="UTF-8"?><svg id="Layer_2" xmlns="http://www.w3.org/2000/svg" viewBox="0 0 124 118.74"><defs><style>.cls-1{fill:#febe10;}.cls-2{fill:#b41f5e;}</style></defs><g id="Layer_1-2"><g><path class="cls-2" d="m123.26,47.31c-1.52-1.55-3.3-2.76-5.46-3.18-4.16-.81-7.77.52-10.86,3.21-2.43,2.12-4.67,4.46-7,6.69-.38.37-.76.74-1.2,1.01-3.17,1.93-6.35,3.85-9.55,5.72-.34.2-.97.24-1.29.06-1.9-1.04-3.92-1.42-6.06-1.42-6.38.03-12.76-.02-19.14.03-1.92.02-3.75-.17-5.55-.9-3.13-1.28-6.36-2.07-9.78-1.72l-5.97-.11c-2.12.14-4.06.17-5.97.41-5.86.76-10.27,4.02-14.05,8.31-.93,1.06-.87,2.57.08,3.5.97.95,2.44.99,3.5.02.9-.81,1.72-1.7,2.59-2.55,2.76-2.71,6.1-4.22,9.95-4.39,2.9-.13,5.82.06,8.72-.11,3.45-.19,6.74.3,9.92,1.64,1.81.77,3.69.97,5.66.96,6.83-.06,13.65-.04,20.48-.02,2.7,0,4.78,1.49,5.41,3.81.94,3.38-1.5,6.61-5.06,6.63-7.67.03-15.34-.01-23.02.02-4.36.01-7.74,3.23-7.87,7.4-.05,1.55.83,2.65,2.24,2.8,1.4.15,2.49-.74,2.76-2.27.41-2.28,1.15-2.89,3.53-2.89,7.51,0,15.02.06,22.53-.02,7.16-.08,11.93-7.02,9.5-13.74-.33-.9-.21-1.33.64-1.79,5.85-3.15,11.37-6.75,15.72-11.89.31-.37.69-.69,1.09-.96,1.1-.74,2.16-1.61,3.37-2.11,1.56-.64,3.25-.9,4.88.19-.12.25-.19.43-.29.59-3.59,5.75-7.18,11.5-10.79,17.24-.28.43-.67.81-1.07,1.14-8.55,7.01-17.12,14-25.66,21.03-.71.59-1.41.79-2.3.79-11.11-.02-22.21,0-33.32-.03-1.17,0-2.12.32-2.9,1.2-.9,1.02-1.84,2-3.03,3.28-.45-.65-.65-1.07-.96-1.38-7.5-7.52-15.01-15.03-22.53-22.53-1.66-1.67-2.88-1.65-4.55.02-3.17,3.16-6.35,6.33-9.51,9.51-1.34,1.34-1.44,2.83-.3,3.93,1.09,1.06,2.58.94,3.86-.33,2.43-2.42,4.86-4.85,7.29-7.27.3-.3.62-.58.84-.78,9.17,9.16,18.24,18.24,27.53,27.52-.27.2-.67.42-.98.73-3.29,3.27-6.58,6.55-9.85,9.84-1.24,1.25-1.34,2.81-.28,3.87,1.05,1.05,2.6.96,3.85-.28,4.12-4.11,8.24-8.22,12.34-12.34,1.43-1.44,1.43-2.75-.02-4.19-.99-.99-2.06-1.9-3.12-2.86,1.52-1.8,2.74-2.99,5.17-2.95,10.62.18,21.25.06,31.87.09,1.2,0,2.15-.32,3.08-1.08,8.11-6.67,16.2-13.36,24.39-19.93,2.49-2,4.64-4.19,6.17-7.01.97-1.77,2.13-3.43,3.2-5.14,2.41-3.87,4.83-7.73,7.24-11.6.87-1.4.86-2.44-.11-3.42Zm-76.83,6.61h.01v-.16s0,.11-.01.16Z"/><path class="cls-1" d="m85.57,38.14c-3.08-1.68-6.12-3.44-9.15-5.2-1.95-1.14-2.23-3.91-.6-5.42,2.5-2.33,3.98-5.18,4.13-8.61.1-2.34.14-4.69,0-7.02-.41-6.23-5.41-11.33-11.46-11.84-6.46-.54-12.31,3.4-13.68,9.62-.58,2.64-.47,5.45-.49,8.18-.04,3.92,1.47,7.21,4.4,9.85.26.23.57.49.68.8.61,1.82-.13,3.67-1.83,4.65-3.18,1.82-6.38,3.62-9.56,5.46-3.66,2.11-5.93,5.26-6.46,9.43-.3,2.29-.13,3.23-.15,5.44,0,.09,0,.19,0,.28,0,1.49,1.13,2.71,2.53,2.71s2.45-1.13,2.52-2.55c.01-.05.01-.11.01-.16,0-1.61.02-1.82,0-3.49-.03-3.35,1.44-5.78,4.34-7.42,3.23-1.82,6.44-3.68,9.67-5.52,2-1.14,3.3-2.8,3.87-5.03.12-.5.18-1.01.26-1.49h5.2c.26,3.47,2.26,5.63,5.21,7.18,2.57,1.34,5,2.98,7.59,4.28,3.78,1.89,5.59,4.8,5.36,9.04-.09,1.71.97,2.81,2.46,2.83,1.52.02,2.52-1.13,2.58-2.89.22-5.89-2.2-10.26-7.41-13.11Zm-18.74-12.35c-3.7-.15-6.86-2.79-7.29-6.53-.29-2.54-.29-5.18.02-7.71.49-4.01,4.09-6.7,8.18-6.48,3.81.21,6.97,3.43,7.18,7.37.05,1.01,0,2.02,0,3.03h.11c-.09,1.45,0,2.93-.32,4.33-.81,3.7-4.13,6.14-7.89,5.99Z"/></g></g></svg>