<?xml version="1.0" encoding="UTF-8"?><svg id="Layer_2" xmlns="http://www.w3.org/2000/svg" viewBox="0 0 106.98 107"><defs><style>.cls-1{fill:#febe10;}.cls-2{fill:#b41f5e;}.cls-3{fill:#f05443;}</style></defs><g id="Layer_1-2"><g><path class="cls-2" d="m103.41,103.43c0-.6,0-1.05,0-1.49,0-18.79,0-37.59,0-56.38,0-1.9.58-2.77,1.82-2.74,1.2.03,1.74.86,1.74,2.71,0,19.61,0,39.22,0,58.84,0,2.13-.5,2.64-2.61,2.64-30.46,0-60.91,0-91.37,0-7.6,0-12.99-5.39-12.99-12.97,0-18.72-.01-37.44,0-56.16,0-7.48,5.68-13.1,12.96-12.87,6.43.2,11.76,5.5,11.97,11.95.06,1.92,0,3.84,0,5.87,1.71,0,3.3,0,4.88,0,1.42,0,2.23.64,2.26,1.75.03,1.14-.82,1.81-2.3,1.82-1.56,0-3.11,0-4.82,0,0,.49,0,.92,0,1.34,0,15.27,0,30.53,0,45.8,0,.22,0,.45,0,.67-.03,1.3-.71,2.11-1.79,2.1-1.04,0-1.72-.75-1.78-2.01-.08-1.71-.55-3.29-1.51-4.71-2.38-3.56-6.84-4.91-10.81-3.29-3.83,1.56-6.11,5.7-5.36,9.75.8,4.3,4.31,7.37,8.65,7.39,12,.04,23.99.02,35.99.02,17.87,0,35.73,0,53.6,0,.44,0,.88,0,1.45,0Zm-82.01-17.86c0-.39,0-.7,0-1.02,0-15.6,0-31.2,0-46.79,0-5.2-3.86-9.17-8.88-9.2-5.05-.02-8.94,3.99-8.94,9.25,0,15.6,0,31.2,0,46.79,0,.31.04.62.06.99,6.77-4.8,10.25-4.81,17.76-.02Z"/><path class="cls-1" d="m96.28,21.46h-3.49v40.9h3.5c0-.41,0-.84,0-1.26,0-8.73,0-17.45,0-26.18,0-.41-.04-.82.03-1.22.16-.96.75-1.55,1.73-1.56.99-.01,1.58.56,1.77,1.52.06.32.03.67.03,1,0,9.62,0,19.23-.02,28.85,0,.68-.15,1.4-.4,2.04-2.17,5.52-4.39,11.02-6.58,16.53-.36.91-.78,1.73-1.91,1.73-1.13,0-1.56-.81-1.92-1.72-2.2-5.55-4.43-11.08-6.62-16.64-.21-.54-.36-1.14-.36-1.72-.02-18.27-.03-36.54,0-54.81,0-4.57,3.29-8.22,7.83-8.85,4.23-.59,8.42,2.17,9.61,6.4.24.85.36,1.75.36,2.63.03,5.72.02,11.44.02,17.15,0,1.43-.63,2.24-1.73,2.27-1.14.04-1.83-.81-1.83-2.28,0-1.56,0-3.11,0-4.8Zm-10.62,0v40.9h3.43V21.47h-3.43Zm-.02-10.82h10.58c.28-2.59-.18-4.83-2.5-6.25-1.82-1.12-3.73-1.13-5.57,0-2.33,1.43-2.79,3.66-2.51,6.25Zm10.57,7.15v-3.44h-10.55v3.44h10.55Zm-2.21,51.76c.47-1.18.92-2.32,1.4-3.53h-8.93c.43,1.09.81,2.13,1.26,3.13.09.19.44.37.68.38,1.85.03,3.7.02,5.6.02Zm-1.46,3.61h-3.23c.53,1.32,1.02,2.54,1.62,4.06.61-1.54,1.1-2.76,1.61-4.06Z"/><path class="cls-1" d="m42.69,35.63h1.65c-.15-1.48-.29-2.93-.46-4.39-.33-2.99-.66-5.98-1.02-8.96-.25-2.12.89-3.21,2.8-2.35,2.89,1.31,5.61,1.33,8.5,0,1.92-.88,3.07.2,2.82,2.32-.51,4.42-1,8.84-1.51,13.34h1.59c-.43-1.73.7-2.67,1.77-3.75,3.82-3.86,4.63-9.59,2.13-14.4-.12-.23-.25-.45-.36-.69-.4-.93-.12-1.85.68-2.32.82-.48,1.99-.28,2.4.64.77,1.75,1.65,3.53,1.98,5.39.96,5.45-.63,10.19-4.52,14.15-.81.83-.77,1.16.22,1.73,1.82,1.05,2.82,2.63,2.8,4.74-.02,2.05-.99,3.64-2.81,4.6-.6.31-.74.67-.77,1.28-.27,4.98-3.91,9.04-8.84,9.94-.41.08-.93.22-1.16.52-3.16,3.99-7.38,6.06-12.26,7.08-3.32.69-5.06,3.51-4.26,6.53.6,2.24,2.54,3.79,4.88,3.87,1.19.04,2.38,0,3.57.02,1.24.02,2.02.69,2.05,1.73.03,1.08-.78,1.84-2.06,1.82-1.7-.02-3.44.07-5.11-.21-3.92-.65-6.87-4.07-7.09-7.94-.23-4.18,2.25-7.83,6.17-9.02,1.56-.47,3.16-.81,4.71-1.33,2.02-.68,3.78-1.81,5.36-3.42-3.29-1.28-5.6-3.41-6.69-6.68-.36-1.07-.19-2.37-.7-3.33-.49-.92-1.66-1.45-2.35-2.29-2.05-2.5-1.28-6.18,1.58-7.86,1.12-.66,1.15-.91.21-1.85-4.69-4.72-6.02-11.79-3.34-17.81,2.7-6.08,8.85-9.88,15.53-9.54,2.36.12,4.61.75,6.7,1.88,1.32.71,1.76,1.66,1.26,2.67-.5,1-1.58,1.19-2.89.52-7.85-4.05-16.81.38-18.25,9.09-.69,4.21.63,7.87,3.7,10.82,1,.96,1.83,1.86,1.39,3.47Zm14.32,10.8h-14.15c-.13,3.72,3.06,6.98,6.87,7.07,3.98.09,7.24-3.03,7.29-7.07Zm-7.09-3.62c2.82,0,5.64,0,8.47,0,1.4,0,2.22-.67,2.22-1.78,0-1.11-.82-1.78-2.22-1.78-5.64,0-11.29,0-16.93,0-1.41,0-2.22.66-2.22,1.78,0,1.11.81,1.78,2.22,1.78,2.82,0,5.64,0,8.47,0Zm3.27-18.94c-2.24,1.31-4.32,1.25-6.54.02.46,4.11.88,7.91,1.31,11.7h3.95c.43-3.86.84-7.64,1.29-11.72Z"/><path class="cls-1" d="m60.62,89.12h3.57c0-.62.03-1.24,0-1.85-.08-1.22.47-1.92,1.59-2.36.75-.29,1.48-.72,2.1-1.22.96-.77,1.85-.8,2.85-.14.49.33,1.03.58,1.6.91.58-1.01,1.14-1.97,1.75-3.03-.65-.39-1.27-.77-1.9-1.15-.83-.49-1.13-1.19-1.01-2.16.1-.88.17-1.79.03-2.65-.19-1.17.18-1.94,1.19-2.49.55-.29,1.08-.62,1.71-.99-.6-1.04-1.15-1.99-1.76-3.05-.63.35-1.24.67-1.83,1.02-.86.51-1.65.47-2.47-.15-.68-.51-1.4-1.01-2.19-1.3-1.23-.46-1.78-1.24-1.67-2.54.05-.54,0-1.1,0-1.7h-3.57c0,.67-.02,1.36,0,2.05.04,1.02-.45,1.65-1.37,2.07-.8.37-1.62.77-2.31,1.31-.96.74-1.85.82-2.85.15-.49-.33-1.03-.58-1.62-.91-.58,1-1.14,1.96-1.76,3.03.61.37,1.19.75,1.79,1.08.93.52,1.24,1.25,1.11,2.32-.12.91-.08,1.85.02,2.76.1.97-.19,1.67-1.02,2.15-1.09.64-2.17,1.29-3.27,1.9-1.08.6-2.09.36-2.61-.57-.51-.9-.17-1.89.87-2.53.41-.25.81-.55,1.25-.72.9-.34,1.18-.93,1.11-1.88-.04-.59-.17-.96-.71-1.22-.6-.29-1.17-.64-1.74-1-1.02-.65-1.3-1.52-.73-2.56,1.13-2.04,2.3-4.07,3.5-6.07.59-.99,1.46-1.18,2.5-.65.53.27,1.07.54,1.54.9.7.53,1.25.44,1.99,0,.62-.37.76-.76.76-1.41,0-3.8.01-3.8,3.87-3.8,1.6,0,3.19-.02,4.79,0,1.32.02,1.98.68,2.02,1.99.02.48.07.98-.01,1.45-.18,1.05.27,1.7,1.23,1.99.33.1.78.13,1.08,0,.71-.32,1.34-.79,2.04-1.14.97-.49,1.84-.28,2.41.66,1.22,2.03,2.41,4.09,3.56,6.17.52.95.25,1.82-.64,2.43-.46.31-.96.56-1.44.84-1.62.94-1.63,2.35-.03,3.3,2.89,1.71,2.94,1.89,1.26,4.81-.83,1.45-1.66,2.9-2.51,4.34-.79,1.33-1.6,1.54-2.97.78-.39-.22-.81-.39-1.15-.67-.75-.62-1.37-.45-2.18-.02-.83.45-.64,1.07-.64,1.69-.01,3.29-.2,3.48-3.44,3.48-1.71,0-3.42.01-5.13,0-1.47-.01-2.11-.65-2.14-2.09,0-.48,0-.97,0-1.45,0-1.76-1.27-2.5-2.79-1.62-.55.31-1.08.65-1.65.92-.9.42-1.86.11-2.32-.69-.46-.8-.27-1.82.57-2.35,1.22-.78,2.45-1.57,3.76-2.15.53-.23,1.37-.06,1.96.19.98.42,1.84,1.09,2.8,1.57.82.42,1.25,1.01,1.23,1.93-.01.67,0,1.34,0,2.13Z"/><path class="cls-1" d="m75.1,99.87c-3.49,0-6.98,0-10.47,0-1.4,0-2.22-.67-2.21-1.79,0-1.11.81-1.77,2.22-1.78,6.79,0,13.59,0,20.38,0,2.74,0,4.12-1.37,4.13-4.09,0-.93-.01-1.86,0-2.78.02-1.24.7-2.01,1.75-2.03,1.05-.02,1.8.75,1.8,1.97,0,1.56.1,3.14-.16,4.66-.59,3.48-3.45,5.78-6.98,5.84-.07,0-.15,0-.22,0-3.42,0-6.83,0-10.25,0Z"/><path class="cls-3" d="m57.06,76.62c.03-2.95,2.49-5.34,5.47-5.28,2.91.06,5.26,2.49,5.22,5.41-.03,2.96-2.5,5.34-5.47,5.28-2.9-.06-5.25-2.49-5.22-5.41Zm7.12.12c.03-.97-.76-1.8-1.72-1.83-.97-.03-1.79.75-1.83,1.72-.03.96.75,1.8,1.72,1.83.96.03,1.8-.76,1.83-1.72Z"/><path class="cls-1" d="m42.79,92.68c.02,2.97-2.39,5.4-5.35,5.4-2.91,0-5.32-2.39-5.34-5.3-.02-2.97,2.39-5.4,5.35-5.39,2.92,0,5.32,2.38,5.34,5.3Zm-3.57.09c.02-.97-.76-1.79-1.73-1.82-.97-.03-1.79.76-1.82,1.73-.03.96.76,1.79,1.73,1.82.96.03,1.8-.77,1.82-1.73Z"/><path class="cls-3" d="m72.2,46.38c-1.41,0-2.82.02-4.23,0-1.22-.02-1.99-.74-1.99-1.79,0-1.05.78-1.76,2.01-1.77,2.82-.02,5.64-.02,8.47,0,1.22,0,1.99.74,1.99,1.79,0,1.04-.78,1.75-2.01,1.77-1.41.02-2.82,0-4.23,0Z"/><path class="cls-3" d="m49.94,3.58c-.97,0-1.78-.8-1.78-1.76,0-.97.79-1.78,1.76-1.78.97,0,1.78.79,1.78,1.76,0,.96-.8,1.78-1.76,1.79Z"/><path class="cls-3" d="m30.3,23.25c-.03.96-.87,1.75-1.83,1.72-.97-.03-1.75-.86-1.72-1.83.03-.97.86-1.75,1.83-1.72.97.03,1.75.86,1.72,1.83Z"/><path class="cls-3" d="m71.35,24.97c-.96.02-1.79-.78-1.8-1.74-.02-.97.77-1.79,1.74-1.8.97-.02,1.79.78,1.8,1.74.02.96-.78,1.79-1.74,1.81Z"/><path class="cls-3" d="m70.22,33.9c0,.98-.79,1.78-1.76,1.77-.96,0-1.78-.82-1.78-1.78,0-.95.83-1.77,1.78-1.77.98,0,1.76.79,1.76,1.77Z"/><path class="cls-3" d="m41,4.69c0,.96-.84,1.78-1.79,1.76-.96-.01-1.77-.84-1.76-1.8,0-.97.81-1.75,1.79-1.75.98,0,1.77.81,1.76,1.78Z"/><path class="cls-3" d="m60.67,2.91c.98.02,1.75.84,1.72,1.81-.03.96-.88,1.76-1.82,1.73-.96-.03-1.75-.88-1.72-1.83.03-.98.84-1.74,1.82-1.71Z"/><path class="cls-3" d="m33.18,12.51c0,.95-.84,1.77-1.79,1.76-.98,0-1.76-.8-1.75-1.78,0-.98.8-1.77,1.77-1.77.95,0,1.78.84,1.77,1.79Z"/><path class="cls-3" d="m68.46,14.27c-.96,0-1.79-.82-1.79-1.77,0-.95.82-1.78,1.78-1.78.97,0,1.76.79,1.77,1.77,0,.98-.78,1.78-1.76,1.78Z"/><path class="cls-3" d="m31.36,32.12c.96-.02,1.8.77,1.82,1.73.03.95-.78,1.79-1.74,1.82-.97.02-1.78-.75-1.8-1.73-.02-.99.74-1.79,1.72-1.82Z"/></g></g></svg>