<?xml version="1.0" encoding="utf-8"?>
<!-- Generator: Adobe Illustrator 23.0.3, SVG Export Plug-In . SVG Version: 6.00 Build 0)  -->
<svg version="1.1" id="Layer_1" xmlns="http://www.w3.org/2000/svg" xmlns:xlink="http://www.w3.org/1999/xlink" x="0px" y="0px"
	 viewBox="0 0 44 44" style="enable-background:new 0 0 44 44;" xml:space="preserve">
<style type="text/css">
	.st0{fill:#1688FB;}
	.st1{fill:#B41F5E;}
	.st2{fill:#FDBE14;}
	.st3{fill:#F05544;}
</style>
<g id="Layer_3">
</g>
<g>
	<path class="st0" d="M21.2,24.8L21.2,24.8L21.2,24.8C21.2,24.7,21.2,24.8,21.2,24.8z"/>
	<path class="st0" d="M22.8,24.8C22.8,24.8,22.8,24.7,22.8,24.8C22.8,24.7,22.8,24.7,22.8,24.8C22.8,24.7,22.8,24.8,22.8,24.8z"/>
	<path class="st1" d="M28.2,28.1c3.7-2.8,5.4-6.4,4.7-11c-0.8-5.3-5.7-10.2-12.7-9.2C15,8.6,9.7,13.8,11.1,21c0.6,3,2.2,5.4,4.7,7.1
		c0.6,0.4,1.1,1,1.3,1.7c0,0.1,0.1,0.2-0.1,0.3c-1.4,0.8-1.8,2.1-0.9,3.5c0.1,0.2,0.1,0.3,0,0.5c-1.1,1.5-0.1,3.2,1.2,3.6
		c0.2,0.1,0.3,0.2,0.4,0.4c0.5,1,1,1.9,1.5,2.9c1.9,0,3.8,0,5.7,0c0.4-1,0.9-1.9,1.4-2.9c0.1-0.2,0.2-0.3,0.4-0.4
		c1.5-0.6,2.1-2.1,1.2-3.5c-0.2-0.2-0.2-0.4,0-0.6c0.8-1.3,0.4-2.7-0.9-3.4c-0.2-0.1-0.2-0.2-0.2-0.4C27.1,29.1,27.6,28.5,28.2,28.1
		z M24,39.3c-0.1,0.1-0.2,0.1-0.3,0.1c-1.1,0-2.2,0-3.3,0c-0.1,0-0.2,0-0.3-0.2c-0.2-0.5-0.5-0.9-0.7-1.4c1.8,0,3.6,0,5.4,0
		C24.4,38.4,24.2,38.9,24,39.3z M25.9,36.3c-2.6,0-5.2,0-7.7,0c-0.6,0-0.9-0.3-0.9-0.8s0.3-0.8,0.9-0.8c1.3,0,2.6,0,3.9,0
		s2.6,0,3.9,0c0.6,0,0.9,0.3,0.9,0.8C26.8,36,26.4,36.3,25.9,36.3z M26.7,32.6c-0.1,0.4-0.4,0.5-0.8,0.5c-1.3,0-2.6,0-3.9,0
		s-2.5,0-3.8,0c-0.6,0-0.9-0.3-0.9-0.8s0.3-0.8,0.9-0.8c2.6,0,5.2,0,7.7,0C26.5,31.5,26.9,32,26.7,32.6z M25.2,29.6
		c0,0.2-0.1,0.3-0.4,0.3c-0.7,0-1.4,0-2.1,0l0,0c-0.5,0.1-1.1,0.1-1.6,0c-0.7,0.1-1.5,0-2.2,0c-0.2,0-0.2-0.1-0.2-0.2
		c-0.2-1.4-1-2.4-2.2-3.2c-3-2.1-4.4-5.1-4.1-8.7c0.4-4.5,3.9-7.9,8.4-8.5c5.3-0.6,9.9,3.3,10.5,8c0.5,4-1,7.3-4.3,9.6
		C26.1,27.7,25.5,28.5,25.2,29.6z"/>
	<path class="st2" d="M22,6.1c0.4,0,0.8-0.3,0.8-0.8s0-1.1,0-1.6S22.5,3,22,3s-0.8,0.3-0.8,0.8c0,0.3,0,0.5,0,0.8c0,0.3,0,0.5,0,0.8
		C21.2,5.8,21.5,6.1,22,6.1z"/>
	<path class="st2" d="M11.7,9.8c0.2,0.2,0.4,0.3,0.7,0.3c0.4,0,0.6-0.3,0.7-0.6c0.2-0.3,0.1-0.6-0.2-0.9c-0.4-0.4-0.7-0.7-1.1-1.1
		c-0.4-0.3-0.8-0.4-1.1-0.1s-0.4,0.8,0,1.2C11.1,9.1,11.4,9.4,11.7,9.8z"/>
	<path class="st2" d="M8.6,18c-0.6,0-1.1,0-1.7,0c-0.5,0-0.7,0.3-0.7,0.8c0,0.4,0.3,0.7,0.7,0.8c0.3,0,0.6,0,0.9,0
		c0.3,0,0.5,0,0.8,0c0.5,0,0.8-0.3,0.8-0.8C9.3,18.4,9,18.1,8.6,18z"/>
	<path class="st2" d="M37.1,18c-0.6,0-1.1,0-1.7,0c-0.5,0-0.7,0.3-0.7,0.8s0.3,0.8,0.8,0.8c0.3,0,0.5,0,0.8,0l0,0c0.3,0,0.6,0,0.9,0
		c0.5,0,0.7-0.3,0.7-0.8C37.8,18.4,37.6,18.1,37.1,18z"/>
	<path class="st2" d="M32,27.9c-0.4-0.4-0.8-0.4-1.2,0c-0.3,0.3-0.3,0.8,0.1,1.1c0.3,0.3,0.6,0.6,0.9,0.9c0.2,0.2,0.5,0.4,0.8,0.3
		c0.3,0.1,0.5-0.1,0.6-0.4s0.1-0.6-0.1-0.9C32.8,28.6,32.4,28.3,32,27.9z"/>
	<path class="st2" d="M11.8,27.9c-0.4,0.4-0.7,0.7-1.1,1.1c-0.2,0.3-0.3,0.5-0.2,0.9c0.1,0.3,0.4,0.4,0.8,0.4c0.2,0,0.4,0,0.6-0.2
		c0.3-0.4,0.7-0.7,1-1.1s0.3-0.8,0-1.1C12.6,27.6,12.2,27.6,11.8,27.9z"/>
	<path class="st2" d="M32,7.7c-0.4,0.4-0.8,0.8-1.2,1.2c-0.2,0.2-0.3,0.5-0.1,0.8c0.1,0.3,0.4,0.4,0.7,0.4c0.2,0,0.4,0,0.6-0.2
		c0.4-0.4,0.8-0.8,1.1-1.2c0.3-0.3,0.2-0.7-0.1-1C32.8,7.4,32.4,7.4,32,7.7z"/>
	<path class="st3" d="M22.7,25.5c0-0.1,0-0.2,0-0.3c0-0.1,0-0.1,0.1-0.2c0,0,0,0,0-0.1c0,0,0,0,0.1,0s0.1,0,0.2,0
		c0.3,0.1,0.6,0.2,0.8,0.3c1.8,0.3,3.5-1.1,3.5-2.9c0-0.4-0.2-0.7-0.6-0.8c-0.4,0-0.7,0.2-0.8,0.6c0,0.3-0.1,0.6-0.2,0.9
		c-0.4,0.7-1.1,1-1.9,0.8c-0.7-0.1-1.2-0.7-1.2-1.5c0-0.1,0-0.1,0-0.2c-0.1-0.4-0.3-0.7-0.7-0.7c-0.4,0-0.6,0.2-0.7,0.7
		c0,0.3-0.1,0.6-0.2,0.9c-0.4,0.6-1.1,0.9-1.9,0.8c-0.7-0.1-1.2-0.7-1.2-1.4c-0.1-0.6-0.3-0.9-0.8-0.9c-0.5,0.1-0.7,0.4-0.6,1
		c0.2,1.6,1.4,2.6,2.9,2.7c0.4,0,0.9-0.1,1.3-0.3c0.2-0.1,0.3-0.1,0.4-0.1l0,0l0,0c0,0,0.1,0.1,0.1,0.3c0,1.5,0,3.1,0,4.6
		c0,0.1,0,0.2-0.1,0.2c0.5,0.1,1.1,0.1,1.6,0c-0.1-0.1-0.1-0.3-0.1-0.4C22.7,28.4,22.7,27,22.7,25.5z"/>
	<path class="st2" d="M18.5,11.7c-0.1,0-0.2,0.1-0.2,0.1c-1.7,1-3,2.3-3.7,4.2c-0.1,0.4-0.3,0.8-0.3,1.2c0,0.3,0.1,0.6,0.3,0.8
		c0.5,0.3,1.1,0,1.3-0.6c0.2-1,0.7-1.9,1.4-2.6c0.5-0.6,1.1-1.1,1.8-1.5c0.4-0.2,0.6-0.8,0.5-1.1C19.3,11.8,18.8,11.6,18.5,11.7z"/>
	<path class="st2" d="M21.7,10.9c-0.5,0-0.8,0.3-0.8,0.8c0,0.4,0.3,0.8,0.8,0.8c0.4,0,0.8-0.3,0.8-0.8S22.1,10.9,21.7,10.9z"/>
</g>
</svg>
