<svg xmlns="http://www.w3.org/2000/svg" viewBox="0 0 44 44"><defs><style>.cls-1,.cls-2,.cls-3{fill:none;stroke-width:2px;}.cls-1{stroke:#fdbe14;stroke-linecap:round;stroke-linejoin:round;}.cls-2{stroke:#f05544;}.cls-2,.cls-3{stroke-miterlimit:10;}.cls-3{stroke:#b6355f;}</style></defs><title>Our Culture - Value Driven</title><g id="Layer_4" data-name="Layer 4"><line class="cls-1" x1="6.98" y1="19.2" x2="35.97" y2="19.42"/><path class="cls-2" d="M19.76,10.6l-3.85,8a1.44,1.44,0,0,0,0,1.2l6.62,15"/><path class="cls-2" d="M24.08,10.89l3.85,8a1.46,1.46,0,0,1,0,1.21l-6.62,15"/><path class="cls-3" d="M13.39,11.09,7.1,18.2a1.43,1.43,0,0,0,0,1.95L20.92,34.34a1.43,1.43,0,0,0,2,0l13.89-14a1.43,1.43,0,0,0,.08-1.93l-6.13-7.31a1.44,1.44,0,0,0-1.1-.52H14.47A1.46,1.46,0,0,0,13.39,11.09Z"/></g></svg>