<svg xmlns="http://www.w3.org/2000/svg" viewBox="0 0 44 44"><defs><style>.cls-1{font-size:8px;fill:#fff;font-family:MyriadPro-Regular, Myriad Pro;}.cls-2{letter-spacing:0.02em;}.cls-3{fill:none;stroke:#b41f5e;stroke-width:2px;}.cls-3,.cls-4{stroke-miterlimit:10;}.cls-4{fill:#f05544;stroke:#f05645;stroke-width:1.5px;}.cls-5{fill:#fdbe14;}</style></defs><title>Our Culture - Practicing Empathy</title><g id="Layer_4" data-name="Layer 4"><text class="cls-1" transform="translate(0.61 -1.95)"><tspan class="cls-2">k</tspan><tspan x="3.89" y="0">ind </tspan></text><circle class="cls-3" cx="23.49" cy="10.92" r="6.86"/><path class="cls-4" d="M18.57,32.22a3.51,3.51,0,0,0-3.35-3.44,3.33,3.33,0,0,0-2.85,1.65,3.21,3.21,0,0,0-2.79-1.65,3.52,3.52,0,0,0-3.35,3.44,3.27,3.27,0,0,0,.1,1.3,5.63,5.63,0,0,0,1.72,2.87l4.31,3.91,4.39-3.91a5.63,5.63,0,0,0,1.72-2.87A3.27,3.27,0,0,0,18.57,32.22ZM18,33.41A5.17,5.17,0,0,1,16.44,36l-4.07,3.63L8.37,36A5,5,0,0,1,6.8,33.41a3.08,3.08,0,0,1-.1-1.12v0a3.05,3.05,0,0,1,2.88-3,2.8,2.8,0,0,1,2.57,1.79l.22.52.21-.52a2.88,2.88,0,0,1,2.64-1.79,3,3,0,0,1,2.88,3A3.18,3.18,0,0,1,18,33.41Z"/><path class="cls-5" d="M29.94,21H17a7,7,0,0,0-4.21,1.45,6.9,6.9,0,0,0-2.13,2.86,1,1,0,0,0,.29.8,1.12,1.12,0,0,0,1.41,0,5.24,5.24,0,0,1,.85-1.48,4.64,4.64,0,0,1,.54-.55A4.89,4.89,0,0,1,17,22.87h12.9a5,5,0,0,1,5,5v7.3H21.4V37H35.84a.93.93,0,0,0,.93-.93V27.84A6.84,6.84,0,0,0,29.94,21Z"/><ellipse class="cls-5" cx="21.39" cy="36.07" rx="0.91" ry="0.93"/></g></svg>