<svg xmlns="http://www.w3.org/2000/svg" viewBox="0 0 44 44"><defs><style>.cls-1,.cls-2,.cls-3{fill:none;stroke-width:2px;}.cls-1{stroke:#fdbe14;stroke-linecap:round;stroke-linejoin:round;}.cls-2{stroke:#f05544;}.cls-2,.cls-3{stroke-miterlimit:10;}.cls-3{stroke:#b41f5e;}</style></defs><title>Our Culture - Equal Opportunity Employer</title><g id="Layer_4" data-name="Layer 4"><line class="cls-1" x1="4.67" y1="26.53" x2="39.12" y2="26.53"/><path class="cls-2" d="M22.44,31l-4.12,6.87h8.25Z"/><circle class="cls-3" cx="11.39" cy="11.3" r="2.64"/><path class="cls-3" d="M11.05,16.87h.68a4.41,4.41,0,0,1,4.41,4.41v1a0,0,0,0,1,0,0H6.64a0,0,0,0,1,0,0v-1A4.41,4.41,0,0,1,11.05,16.87Z"/><circle class="cls-3" cx="33.11" cy="11.3" r="2.64"/><path class="cls-3" d="M32.77,16.87h.68a4.41,4.41,0,0,1,4.41,4.41v1a0,0,0,0,1,0,0H28.36a0,0,0,0,1,0,0v-1A4.41,4.41,0,0,1,32.77,16.87Z"/></g></svg>