<svg xmlns="http://www.w3.org/2000/svg" viewBox="0 0 44 44"><defs><style>.cls-1{font-size:8px;fill:#fff;font-family:MyriadPro-Regular, Myriad Pro;}.cls-2{letter-spacing:-0.01em;}.cls-3,.cls-4,.cls-6{fill:none;stroke-linecap:round;stroke-linejoin:round;stroke-width:2px;}.cls-3{stroke:#b41f5e;}.cls-4{stroke:#fdbe14;}.cls-5{fill:#b41f5e;}.cls-6{stroke:#f05544;}</style></defs><title>Our Culture - Commitment to Customers</title><g id="Layer_4" data-name="Layer 4"><text class="cls-1" transform="translate(-0.12 -1.95)"><tspan class="cls-2">c</tspan><tspan x="3.54" y="0">ommit </tspan></text><polyline class="cls-3" points="30.82 33.09 32.27 34.54 35.18 32"/><circle class="cls-4" cx="33" cy="33" r="6"/><line class="cls-3" x1="5" y1="14.97" x2="37" y2="14.97"/><path class="cls-5" d="M22,36H6V9.92h4v-2H5a1,1,0,0,0-1,1V37a1,1,0,0,0,1,1H22a1,1,0,0,0,0-2Z"/><path class="cls-5" d="M37,7.92H32v2h4V23a1,1,0,1,0,2,0v-14A1,1,0,0,0,37,7.92Z"/><rect class="cls-5" x="13.94" y="7.92" width="14.07" height="2"/><line class="cls-6" x1="11.96" y1="8.92" x2="11.96" y2="5.7"/><line class="cls-6" x1="30.01" y1="9.09" x2="30.01" y2="5.88"/><circle class="cls-6" cx="11.99" cy="21.01" r="0.45"/><circle class="cls-6" cx="11.99" cy="28.96" r="0.45"/><circle class="cls-6" cx="21.55" cy="28.96" r="0.45"/><circle class="cls-6" cx="21.55" cy="21.01" r="0.45"/><circle class="cls-6" cx="30.64" cy="20.98" r="0.45"/></g></svg>