<svg xmlns="http://www.w3.org/2000/svg" viewBox="0 0 44 44"><defs><style>.cls-1,.cls-4,.cls-5{fill:none;}.cls-2{fill:#f05544;}.cls-2,.cls-4{stroke:#f05544;}.cls-2,.cls-3,.cls-5{stroke-miterlimit:10;}.cls-2,.cls-3{stroke-width:0.5px;}.cls-3{fill:#b41f5e;}.cls-3,.cls-5{stroke:#b41f5e;}.cls-4{stroke-linecap:round;stroke-linejoin:round;}.cls-4,.cls-5{stroke-width:2px;}</style></defs><title>Our Culture - Integrity of Character</title><g id="Layer_4" data-name="Layer 4"><path class="cls-1" d="M8.46,25.44l2.82,1.15h0l-1-.4,3.27-10-2.21-.91Z"/><polygon class="cls-1" points="13.56 16.22 14.16 16.49 14.16 16.47 13.56 16.22"/><path class="cls-1" d="M34.37,26.09h0l1.77-1-3.91-9.62L29.56,17h0l1.11-.66Z"/><path class="cls-2" d="M11.28,26.59,8.46,25.44l2.89-10.13,2.22.91s.59.25.59.27l1.05.47v0l.21.09a2.67,2.67,0,0,0,2.38-.17l.37-.22a1.69,1.69,0,0,1,1.5-.11l7.12,2.95a1.82,1.82,0,0,1-.49,1,1.3,1.3,0,0,1-1.35,0l-3.18-1.31a.46.46,0,0,0-.44,0,.73.73,0,0,0-.28.43,5.09,5.09,0,0,1-1.85,2.9,3.4,3.4,0,0,1-3.27.07.55.55,0,0,0-.71.42.72.72,0,0,0,.35.85,5.61,5.61,0,0,0,2.08.46,3.72,3.72,0,0,0,2.08-.61,6.09,6.09,0,0,0,2.2-3.08l2.65,1.1a2.17,2.17,0,0,0,2.35-.18A3.82,3.82,0,0,0,28,19a.65.65,0,0,0-.37-.65L20,15.24a2.67,2.67,0,0,0-2.35.18l-.38.22a1.66,1.66,0,0,1-1.5.11l-.63-.27-.12-.07-3.88-1.6a.55.55,0,0,0-.71.42L7.22,25.64a.81.81,0,0,0,0,.51.65.65,0,0,0,.33.34l.82.34,1.66.69c.29.11.58.24.87.36a1.36,1.36,0,0,0,.87.19.56.56,0,0,0,.36-.4,1.27,1.27,0,0,0,.06-.18.64.64,0,0,0-.06-.31.75.75,0,0,0-.29-.32C11.67,26.76,11.47,26.68,11.28,26.59Z"/><path class="cls-3" d="M37.4,25,33,14.23a.63.63,0,0,0-.32-.34.47.47,0,0,0-.43,0l-3.68,2.16a.65.65,0,0,0-.26.39.88.88,0,0,0,0,.46.68.68,0,0,0,.18.33.52.52,0,0,0,.54.06l.52-.31h0l2.67-1.57,3.91,9.62-1.77,1-1.9,1.33h0L31.2,28.83a17.4,17.4,0,0,1-4,3.32l-7,4.14a.58.58,0,0,1-.84-.35.82.82,0,0,1,.29-1l.08,0,3.86-2.27a.74.74,0,0,0,.26-.9A.53.53,0,0,0,23,31.4l-3.85,2.27-1.94,1.14a.58.58,0,0,1-.84-.35.8.8,0,0,1,0-.57.7.7,0,0,1,.31-.43l1.46-.86,4.19-2.47a.73.73,0,0,0,.26-.9.53.53,0,0,0-.75-.31l-4.19,2.47-.16.1-2,1.18a.51.51,0,0,1-.48,0,.71.71,0,0,1-.36-.38.84.84,0,0,1,.29-1l.7-.41L17,30.08l.4-.23,3.25-1.92a.74.74,0,0,0,.25-.9.52.52,0,0,0-.74-.31l-3.52,2.07-1.54.91a.58.58,0,0,1-.84-.35.8.8,0,0,1,0-.57.7.7,0,0,1,.31-.43l2.69-1.58a.75.75,0,0,0,.26-.9.53.53,0,0,0-.75-.32l-2.69,1.59a2,2,0,0,0-.88,1.2A2.54,2.54,0,0,0,13.29,30a2.05,2.05,0,0,0,.54.76,2.48,2.48,0,0,0-.19,2.21,1.93,1.93,0,0,0,1,1.06,1.59,1.59,0,0,0,.56.11,2.34,2.34,0,0,0,.18,1A1.75,1.75,0,0,0,17,36.24a1.42,1.42,0,0,0,.76-.22l.4-.23a2.35,2.35,0,0,0,.17.74,1.74,1.74,0,0,0,1.57,1.17,1.46,1.46,0,0,0,.76-.21l7.05-4.15A18.39,18.39,0,0,0,32,29.81l1.57-1.74,3.61-2.13A.73.73,0,0,0,37.4,25Z"/><path class="cls-1" d="M13.14,28.62a.41.41,0,0,1-.05.19"/><polygon class="cls-4" points="7.31 27.33 1.75 25.05 5.88 10.51 11.43 12.79 7.31 27.33"/><path class="cls-5" d="M41.65,23.83l-3.27,2a1,1,0,0,1-1.48-.58l-4.68-11a1.46,1.46,0,0,1,.48-1.78l3.26-2a1,1,0,0,1,1.48.58l4.69,11A1.47,1.47,0,0,1,41.65,23.83Z"/></g></svg>