<?xml version="1.0" encoding="utf-8"?>
<!-- Generator: Adobe Illustrator 23.0.3, SVG Export Plug-In . SVG Version: 6.00 Build 0)  -->
<svg version="1.1" id="Layer_1" xmlns="http://www.w3.org/2000/svg" xmlns:xlink="http://www.w3.org/1999/xlink" x="0px" y="0px"
	 viewBox="0 0 44 44" style="enable-background:new 0 0 44 44;" xml:space="preserve">
<style type="text/css">
	.st0{fill:none;}
	.st1{fill:#B41F5E;}
	.st2{fill:#F05544;}
	.st3{fill:#FEFEFE;}
	.st4{fill:#FDBE14;}
</style>
<g id="Layer_3">
</g>
<path class="st0" d="M30,9.6c0-0.5-0.3-0.8-0.9-0.9c-0.7,0-1.4,0-2.2,0c-0.5,0-0.8,0.3-0.9,0.9c0,0.2,0,0.5,0,0.7
	c0,0.1,0,0.2-0.1,0.3c1.3,0,2.7,0,4,0c0-0.1-0.1-0.2-0.1-0.3C30,10.1,30,9.9,30,9.6z"/>
<path class="st0" d="M17.4,9.6c0-0.5-0.3-0.8-0.9-0.9c-0.7,0-1.4,0-2.2,0c-0.5,0-0.8,0.3-0.9,0.9c0,0.2,0,0.5,0,0.7
	c0,0.1,0,0.2-0.1,0.3c1.3,0,2.7,0,4,0c0-0.1-0.1-0.2-0.1-0.3C17.4,10.1,17.4,9.9,17.4,9.6z"/>
<path class="st1" d="M38.4,12.5c-0.6-1.1-1.5-1.8-2.8-1.9c-1.1,0-2.2,0-3.3,0v0.1c-0.7,0-1.4,0-2.1,0c-0.1,0-0.1-0.1-0.1-0.1
	c-1.3,0-2.7,0-4,0c0,0,0,0.1-0.1,0.1c-0.7,0-1.4,0-2.1,0v-0.1l0,0c-1.4,0-2.8,0-4.2,0l0,0v0.1c-0.7,0-1.4,0-2.1,0
	c-0.1,0-0.1-0.1-0.1-0.1c-1.3,0-2.7,0-4,0c0,0,0,0.1-0.1,0.1c-0.7,0-1.4,0-2.1,0v-0.1c-1,0-2,0-3.1,0c-0.9,0-1.7,0.3-2.4,0.9
	c-0.5,0.5-0.9,1-0.9,1.8c0,0.4,0,0.8,0,1.2c0,1.2,0,2.4,0,3.7c0,0.7,0.2,1.1,1.1,1.2c0.1,0,0.3,0,0.4,0c1.4,0,2.9,0,4.3,0
	c1.6,0,3.1,0,4.7,0v-0.1c0.7,0,1.4,0,2.1,0c2.4,0,4.9,0,7.3,0c0.4,0,0.7,0,1.1,0c0.7,0,1.4,0,2.1,0c2.4,0,4.8,0,7.2,0
	c0.3,0,0.6,0,0.9,0c0.2,0,0.3,0.1,0.3,0.3c0,1.6,0,3.2,0,4.8c0,1.1,0,2.2,0,3.4c0,0.7,0,1.4,0,2.1c0,2.5,0,5,0,7.4c0,0.6-0.4,1-1,1
	c-2.5,0-5,0-7.4,0c-0.7,0-1.4,0-2.1,0c-2.5,0-5.1,0-7.6,0c-0.3,0-0.6,0-0.9,0c-0.7,0-1.4,0-2.1,0c-2.5,0-5,0-7.4,0c-0.6,0-1-0.4-1-1
	c0-2.5,0-5,0-7.4c0-0.7,0-1.4,0-2.1H7c0-1.8,0-3.5,0-5.3c0-0.7-0.5-1.2-1.2-1.2s-1,0.4-1,1.2c0,5,0,10,0,15c0,1.1,0.6,1.9,1.5,2.6
	c0.4,0.3,0.8,0.3,1.3,0.4c9.4,0,18.9,0,28.3,0H36c1,0,1.7-0.6,2.2-1.4c0.3-0.4,0.3-0.8,0.4-1.3c0-8,0-16.1,0-24.1
	C38.5,13.1,38.6,12.8,38.4,12.5z M36.2,17.1c-4.8,0-9.6,0-14.4,0s-9.6,0-14.4,0C7,17.1,7,17,7,16.7c0-0.9,0-1.8,0-2.7
	c0-0.8,0.4-1.1,1.1-1.1c9.1,0,18.2,0,27.3,0c0.7,0,1.1,0.4,1.1,1.1c0,0.9,0,1.8,0,2.8C36.5,17,36.4,17.1,36.2,17.1z"/>
<path class="st2" d="M7.1,29.7L7.1,29.7c2.7,0,5.3,0,8,0c0.3,0,0.3,0.1,0.3,0.3c0,2.7,0,5.3,0,8l0,0c0.7,0,1.4,0,2.1,0
	c0-2.7,0-5.3,0-8c0-0.3,0.1-0.3,0.3-0.3c2.6,0,5.2,0,7.8,0c0.3,0,0.3,0.1,0.3,0.3c0,2.7,0,5.3,0,8c0.7,0,1.4,0,2.1,0l0,0
	c0-2.7,0-5.3,0-8c0-0.3,0.1-0.3,0.3-0.3c2.7,0,5.3,0,8,0l0,0c0-0.7,0-1.4,0-2.1c-2.7,0-5.3,0-8,0c-0.3,0-0.3-0.1-0.3-0.3
	c0-2.7,0-5.3,0-8c-0.7,0-1.4,0-2.1,0c0,2.7,0,5.3,0,8c0,0.3-0.1,0.3-0.3,0.3c-2.6,0-5.2,0-7.8,0c-0.2,0-0.3-0.1-0.3-0.3
	c0-2.7,0-5.3,0-8c-0.7,0-1.4,0-2.1,0l0,0c0,2.7,0,5.3,0,8c0,0.3-0.1,0.3-0.3,0.3c-2.7,0-5.3,0-8,0l0,0C7.1,28.3,7.1,29,7.1,29.7z"/>
<path class="st3" d="M25.9,19.3C26,19.3,26,19.3,25.9,19.3v-0.1C25.9,19.2,25.9,19.2,25.9,19.3L25.9,19.3z"/>
<path class="st3" d="M17.5,19.3C17.6,19.3,17.6,19.3,17.5,19.3c0.1,0,0-0.1,0-0.1C17.5,19.2,17.5,19.3,17.5,19.3L17.5,19.3z"/>
<path class="st3" d="M28.1,19.3L28.1,19.3c0.1,0,0-0.1,0-0.1C28.1,19.2,28.1,19.3,28.1,19.3L28.1,19.3z"/>
<path class="st3" d="M36.4,27.6L36.4,27.6L36.4,27.6v-0.1V27.6z"/>
<path class="st3" d="M25.9,38L25.9,38C25.8,38,25.9,38.1,25.9,38C26,38.1,26,38,25.9,38C26,38,25.9,38,25.9,38z"/>
<path class="st3" d="M17.5,38L17.5,38L17.5,38C17.6,38.1,17.6,38,17.5,38C17.6,38,17.6,38,17.5,38z"/>
<path class="st3" d="M7.1,29.7L7.1,29.7v0.1C7.1,29.8,7.1,29.7,7.1,29.7z"/>
<path class="st3" d="M15.3,38l0.1,0.1V38C15.4,38,15.3,38,15.3,38z"/>
<path class="st3" d="M36.4,29.8l0.1-0.1h-0.1C36.4,29.7,36.4,29.8,36.4,29.8z"/>
<path class="st3" d="M28.1,38L28.1,38h0.1C28.1,38,28.1,38,28.1,38z"/>
<path class="st4" d="M13.3,10.6C13.3,10.6,13.4,10.6,13.3,10.6c0.1-0.1,0.1-0.2,0.1-0.3c0-0.2,0-0.5,0-0.7c0-0.5,0.3-0.8,0.9-0.9
	c0.7,0,1.4,0,2.2,0c0.5,0,0.8,0.3,0.9,0.9c0,0.2,0,0.5,0,0.7c0,0.1,0,0.2,0.1,0.3h0.1c0.7,0,1.4,0,2.1,0c0-0.3,0-0.6,0-0.9
	c0-1.5-1.1-2.9-2.6-3.1c-0.9-0.1-1.7-0.1-2.6-0.1c-1.6,0-2.9,1.1-3.2,2.6c-0.1,0.5,0,1-0.1,1.5l0,0C11.9,10.6,12.6,10.6,13.3,10.6z"
	/>
<path class="st4" d="M26,10.6c0-0.1,0.1-0.2,0.1-0.3c0-0.2,0-0.5,0-0.7c0-0.5,0.3-0.8,0.9-0.9c0.7,0,1.4,0,2.2,0
	c0.5,0,0.8,0.3,0.9,0.9c0,0.2,0,0.5,0,0.7c0,0.1,0,0.2,0.1,0.3h0.1c0.7,0,1.4,0,2.1,0c0,0,0,0,0.1,0c0-0.3,0-0.6,0-0.9
	c0-1.5-1.1-2.9-2.6-3.1c-0.9-0.2-1.8-0.1-2.6-0.1c-1.5,0-2.9,1.1-3.1,2.6c-0.1,0.5,0,1-0.1,1.5C24.6,10.6,25.3,10.6,26,10.6L26,10.6
	z"/>
</svg>
