<?xml version="1.0" encoding="UTF-8"?><svg id="a" xmlns="http://www.w3.org/2000/svg" viewBox="0 0 200 200"><defs><style>.d{fill:#c0326f;}.e{fill:#fec014;}</style></defs><g id="b"><g id="c"><path class="d" d="M156.64,178.41l5.89-1.34c.02,3.83-.17,7.66-.59,11.47-.94,3.89-4.5,6.58-8.5,6.41H47.58c-4.95,.56-9.41-3.01-9.97-7.96-.07-.67-.07-1.34,0-2.01V29.79c-.54-4.93,3.03-9.36,7.96-9.9,.67-.07,1.34-.07,2.01,0h105.02c4.92-.44,9.26,3.19,9.7,8.11,.05,.55,.05,1.11,0,1.66V111.87l-5.93-1.31V30.19c0-3.52-.87-4.35-4.35-4.35H47.9c-3.28,0-4.19,.87-4.19,3.96V184.93c0,3.13,.95,3.96,3.96,3.96h104.71c3.16,0,3.96-.95,3.96-3.96v-6.09c.07-.17,.18-.32,.32-.44Z"/><path class="d" d="M144.5,13.89h-5.66c-.55-2.57-2.45-2.93-4.87-2.93H30.33c-3.64,0-4.43,.79-4.43,4.43V172.28c0,4.19,.59,4.83,4.75,4.87h1.03v5.62c-5.04,1.35-10.23-1.65-11.57-6.7-.27-1.01-.37-2.07-.3-3.11V14.72c-.41-4.94,3.27-9.28,8.21-9.69,.61-.05,1.23-.04,1.84,.04h105.34c4.84-.28,9,3.41,9.28,8.25,.01,.19,.02,.38,.01,.57Z"/><path class="e" d="M100.11,102.97h-21.12c-2.63,.44-5.12-1.34-5.55-3.97-.08-.47-.09-.94-.03-1.41v-7.04c-.04-2.93,2.29-5.34,5.22-5.38,.07,0,.13,0,.2,0h9.1c.93,.12,1.82-.45,2.1-1.34,1.44-3.24,1.68-6.89,.67-10.28-.77-2.88-2.11-5.57-3.96-7.91-4.5-5.47-5.04-13.18-1.34-19.22,4.81-8.05,15.22-10.67,23.27-5.87,4.18,2.5,7.08,6.66,7.98,11.45,.8,5.14-.64,10.38-3.96,14.4-3.85,4.67-4.96,11.03-2.93,16.73,.3,1.3,1.53,2.15,2.85,1.98h8.35c2.96-.21,5.53,2.03,5.74,5,.02,.26,.02,.52,0,.78v6.49c0,3.96-1.82,5.62-5.7,5.62h-20.89Zm20.69-11.87h-8.74c-3.12,.17-6.01-1.68-7.16-4.59-3.47-7.89-2.24-17.05,3.2-23.73,2.53-3.11,3.43-7.23,2.45-11.12-1.21-4.32-4.95-7.46-9.41-7.91-4.41-.42-8.66,1.8-10.84,5.66-2.28,4.05-1.85,9.08,1.07,12.7,2.4,2.9,4.1,6.31,4.98,9.97,1.39,4.6,1.11,9.55-.79,13.96-.97,3.46-4.35,5.67-7.91,5.18-2.73-.2-5.5,0-8.19,0v5.81h41.34v-5.93Z"/><path class="e" d="M151.89,172.67c-15.55-.09-28.09-12.77-28.01-28.32s12.77-28.09,28.32-28.01c15.55,.09,28.09,12.77,28.01,28.32v.04c-.09,15.53-12.75,28.05-28.28,27.97h-.04Zm22.27-28.24c-.04-12.3-10.05-22.24-22.35-22.19-12.3,.04-22.24,10.05-22.19,22.35,.04,12.3,10.05,22.24,22.35,22.19,12.28-.09,22.19-10.07,22.19-22.35Z"/><path class="e" d="M139.32,112.43c-3.01,1.86-5.54,3.48-8.11,5.02-.55,.27-1.17,.38-1.78,.32H63.64c-2.29,0-3.64-1.19-3.6-3.05s1.34-2.89,3.56-2.89h73.02c.91,.11,1.82,.31,2.69,.59Z"/><path class="e" d="M139.28,176.55c-.83,.28-1.7,.46-2.57,.55H63.4c-2.14,0-3.48-1.19-3.44-3.01s1.42-2.89,3.44-2.89h66.14c.48-.12,.98-.12,1.46,0l8.27,5.34Z"/><path class="e" d="M124.84,123.74c-.73,.89-1.35,1.86-1.86,2.89-.95,2.61-2.69,3.05-5.26,3.01h-53.56c-.6,.1-1.22,.1-1.82,0-1.4-.27-2.38-1.54-2.29-2.97,.03-1.42,1.08-2.61,2.49-2.81,.37-.04,.74-.04,1.11,0h59.69l1.5-.12Z"/><path class="e" d="M124.8,165.27h-60.6c-.56,.08-1.14,.08-1.7,0-1.48-.2-2.55-1.52-2.45-3.01,.03-1.42,1.08-2.61,2.49-2.81,.49-.04,.98-.04,1.46,0h55.38c1.17-.17,2.3,.48,2.73,1.58,.82,1.46,1.72,2.87,2.69,4.23Z"/><path class="e" d="M118.79,135.61l-.99,5.74H63.72c-.84,.09-1.68-.12-2.37-.59-.75-.76-1.16-1.78-1.15-2.85,.24-.91,1.38-1.66,2.25-2.37,.24-.2,.83,0,1.27,0h53.76l1.31,.08Z"/><path class="e" d="M117.95,147.47l1.03,5.85H63.88c-1.02,.05-2.03-.25-2.85-.87-.69-.74-.99-1.77-.79-2.77,.28-.91,1.38-1.54,2.25-2.18s.83,0,1.27,0h52.65l1.54-.04Z"/><path class="e" d="M147.9,145.73l11.16-7.91c.59-.45,1.22-.85,1.86-1.23,1.29-.86,3.03-.51,3.9,.78,.02,.03,.04,.06,.06,.09,.94,1.21,.71,2.95-.5,3.88-.03,.02-.06,.05-.1,.07-5.1,3.56-10.25,7.12-15.39,10.6-1.18,.84-2.82,.58-3.68-.59-1.98-2.22-3.96-4.47-5.74-6.76-1.08-1.12-1.05-2.89,.07-3.97,.07-.06,.14-.12,.21-.18,1.28-1.06,3.17-.89,4.23,.39l.04,.05c1.27,1.66,2.45,3.16,3.88,4.79Z"/></g></g></svg>