<?xml version="1.0" encoding="UTF-8"?><svg id="Layer_2" xmlns="http://www.w3.org/2000/svg" viewBox="0 0 117.46 124"><defs><style>.cls-1{fill:#febe10;}.cls-2{fill:#b41f5e;}.cls-3{fill:#f05443;}</style></defs><g id="Layer_1-2"><g><path class="cls-2" d="m33.85,118.75c-.73,0-1.3,0-1.87,0-9.82,0-19.64,0-29.46,0-2.3,0-2.5-.18-2.47-2.54.03-3.26-.24-6.56.22-9.76.92-6.54,4.71-11.02,10.85-13.48.23-.09.46-.21.7-.32-5.57-6.26-5.97-12.32-1.18-16.98,4.23-4.11,10.98-4.13,15.24-.03,4.83,4.64,4.44,10.64-1.18,17.03,4.65,1.63,8.08,4.62,10.32,9.22,2.97-6.64,7.94-10.48,15.25-11.56-3.95-3.15-6.24-7.05-6.26-12.05-.02-4.97,1.99-9.01,5.96-11.99,6.32-4.75,15.14-3.65,20.21,2.43,4.77,5.72,5.03,15.44-2.88,21.62,3.41.49,6.46,1.58,9.12,3.6,2.69,2.04,4.65,4.64,6.05,7.92,2.26-4.51,5.62-7.54,10.44-9.2-3.62-3.01-5.34-6.71-4.42-11.34.53-2.68,1.94-4.87,4.14-6.51,4.56-3.42,10.8-2.85,14.68,1.34,4.32,4.66,3.77,10.4-1.51,16.37,1.62.93,3.38,1.72,4.88,2.85,4.32,3.25,6.6,7.65,6.74,13.08.07,2.81.03,5.63.02,8.44,0,1.52-.39,1.86-2.08,1.86-9.86,0-19.73,0-29.59,0h-2.1c0,1.18,0,2.19,0,3.21,0,1.75-.28,2.03-2.02,2.03-7.77,0-15.53,0-23.3,0-7.41,0-14.82,0-22.23,0-1.99,0-2.26-.27-2.26-2.22,0-.93,0-1.87,0-3.02Zm16.11,2.54h17.61c0-.48,0-.87,0-1.27,0-1.56,0-3.12,0-4.69,0-.84.41-1.37,1.29-1.39.89-.02,1.27.55,1.34,1.35.04.44.02.89.02,1.34,0,1.54,0,3.08,0,4.63h10.8c0-.59,0-1.07,0-1.56-.01-3.75-.06-7.5-.03-11.25.07-8.02-6.08-14.95-14.09-15.39-5.33-.29-10.71-.27-16.05-.02-7.23.34-13.28,5.76-14.02,12.94-.52,5.02-.1,10.14-.1,15.26h10.61c0-1.94,0-3.76,0-5.59,0-.94.24-1.75,1.38-1.72,1.06.03,1.25.8,1.25,1.7-.01,1.83,0,3.65,0,5.64Zm-37.61-5.26h11.84c0-1.91,0-3.73,0-5.55,0-1,.4-1.69,1.5-1.57.95.1,1.15.84,1.15,1.68,0,1.81,0,3.62,0,5.43h6.99c0-2.55.05-5.01-.01-7.46-.12-4.56-2.04-8.24-5.61-11.06-3.66-2.89-7.92-3.19-12.33-2.87-6.39.47-11.79,5.02-12.83,11.35-.53,3.22-.23,6.57-.3,9.87,0,.06.11.13.17.19h6.78c0-1.84.01-3.62,0-5.39,0-.94.18-1.77,1.32-1.75,1.13.02,1.33.86,1.33,1.79,0,1.74,0,3.48,0,5.35Zm92.78.01c0-1.85,0-3.62,0-5.39,0-.93.23-1.76,1.36-1.75,1.15,0,1.3.86,1.29,1.79-.01,1.77,0,3.54,0,5.34h6.98c0-2.72.09-5.35-.02-7.97-.18-4.31-2.1-7.76-5.43-10.46-3.75-3.04-8.15-3.32-12.69-2.95-3.93.32-7.11,2.12-9.69,5.07-4.22,4.84-3.18,10.65-3.23,16.33h6.93c0-.54,0-1.02,0-1.49,0-1.43-.02-2.86.02-4.28.02-.81.43-1.38,1.31-1.38.88,0,1.27.54,1.32,1.36.03.44,0,.89,0,1.34,0,1.49,0,2.99,0,4.45h11.84Zm-58.49-37.93c0,6.74,5.43,12.2,12.14,12.18,6.73-.02,12.15-5.47,12.13-12.2-.02-6.67-5.41-12.07-12.09-12.09-6.75-.02-12.18,5.37-12.18,12.11Zm-36.7,5.45c0,4.62,3.73,8.36,8.33,8.35,4.58,0,8.34-3.78,8.33-8.37,0-4.59-3.77-8.36-8.35-8.35-4.58,0-8.32,3.77-8.31,8.37Zm97.59-.06c-.02-4.6-3.79-8.35-8.37-8.31-4.58.04-8.31,3.81-8.29,8.42.02,4.58,3.83,8.35,8.39,8.31,4.61-.05,8.29-3.79,8.27-8.41Z"/><path class="cls-1" d="m39.17,38.06c-2.05-.65-4.05-1.14-5.93-1.94-1.54-.65-3.06-1.5-4.33-2.58-2.22-1.87-2.18-4.4-.05-6.38,2.4-2.23,5.46-3.11,8.52-3.96.55-.15,1.12-.27,1.77-.43-.84-1.59-1.76-3.07-2.42-4.65-.69-1.67-1.33-3.42-1.64-5.19-.58-3.34,1.52-5.45,4.88-5.13,3.2.3,5.92,1.85,8.65,3.38.42.23.83.47,1.3.74.55-1.79.94-3.53,1.62-5.16.68-1.63,1.45-3.29,2.51-4.69,2.12-2.79,4.99-2.72,7.18.02,1.79,2.24,2.65,4.92,3.41,7.64.2.72.38,1.44.55,2.08,2.28-1.1,4.43-2.29,6.71-3.17,1.38-.53,2.94-.81,4.42-.79,2.42.03,4,1.66,3.8,4.06-.17,1.96-.74,3.93-1.43,5.78-.64,1.73-1.68,3.31-2.58,5.03,1.7.52,3.39.9,4.97,1.56,1.63.67,3.29,1.43,4.71,2.47,2.88,2.12,2.86,5,.06,7.26-2.42,1.95-5.35,2.79-8.27,3.6-.47.13-.94.24-1.51.39.87,1.66,1.87,3.21,2.5,4.89.71,1.89,1.36,3.89,1.54,5.88.23,2.58-1.51,4.15-4.11,4.2-2.78.04-5.19-1.14-7.57-2.37-1.03-.53-2.02-1.13-3.18-1.78-.21.72-.36,1.39-.59,2.02-.71,1.97-1.35,3.96-2.21,5.86-.44.99-1.17,1.91-1.95,2.69-1.78,1.79-4.15,1.9-5.78-.01-1.33-1.56-2.31-3.47-3.17-5.35-.73-1.59-1.08-3.37-1.62-5.15-1.6.84-3.11,1.8-4.74,2.44-1.76.7-3.61,1.38-5.47,1.57-3.27.33-5.08-1.81-4.68-5.07.35-2.85,1.6-5.36,2.99-7.82.35-.62.72-1.22,1.14-1.92Zm18.45-1.06c2.1.62,3.44-.54,4.85-1.91,1.39-1.34,1.95-2.72,1.95-4.66,0-1.97-.5-3.4-1.92-4.8-1.43-1.41-2.83-2.09-4.88-2.06-1.97.02-3.38.56-4.8,1.95-1.47,1.43-2,2.91-2,4.92,0,1.98.57,3.4,2.01,4.77,1.41,1.34,2.74,2.37,4.79,1.8Zm12.75-6.65c1.25,1.64,2.42,3.21,3.63,4.73.18.22.65.43.88.35,2.89-.97,5.87-1.77,8.62-3.06,2.44-1.15,2.44-2.88.01-4.03-2.74-1.29-5.73-2.09-8.62-3.04-.25-.08-.76.18-.96.43-1.2,1.49-2.34,3.02-3.57,4.61Zm-27.97-8.24c2-.24,3.73-.41,5.45-.69.31-.05.75-.48.8-.8.29-1.71.51-3.44.68-5.17.03-.31-.18-.81-.44-.97-2.7-1.75-5.44-3.42-8.67-4.02-2.14-.39-2.92.43-2.5,2.6.62,3.17,2.27,5.88,3.97,8.55.18.28.58.41.7.48Zm15.18,21.01c-1.17.91-2.18,1.9-3.36,2.57-1.59.9-2.01,2.01-1.34,3.67.94,2.34,1.62,4.81,2.78,7.04,1.16,2.25,2.55,2.15,3.97,0,.02-.04.06-.07.07-.11,1.01-2.88,2.03-5.76,3-8.66.08-.23-.14-.7-.36-.88-1.53-1.22-3.1-2.38-4.74-3.64Zm-17.84,7.18c.32-.06,1.03-.08,1.62-.34,2.11-.93,4.17-1.97,6.28-2.91,1.42-.63,2.06-1.5,1.52-3.11-.25-.74-.25-1.58-.32-2.38-.18-2.14-.17-2.17-2.29-2.41-1.53-.18-3.39-.87-4.51-.25-1.21.67-1.86,2.54-2.51,3.99-.77,1.69-1.43,3.46-1.87,5.26-.36,1.47.33,2.15,2.08,2.17Zm26.9-28.99c2,.26,3.98.54,5.97.77.25.03.65-.13.78-.34,1.73-2.71,3.44-5.45,4.08-8.65.45-2.27-.35-3.02-2.61-2.6-3.23.61-5.95,2.32-8.66,4.05-.2.13-.39.51-.36.75.23,1.99.52,3.97.8,6.02Zm-9.04-3.75c1.6-1.22,3.21-2.4,4.76-3.66.24-.2.33-.79.25-1.14-.46-1.81-.88-3.64-1.54-5.38-.53-1.39-1.29-2.74-2.15-3.95-.75-1.06-1.69-1-2.59-.06-.37.38-.77.8-.94,1.28-.98,2.75-1.91,5.53-2.81,8.31-.09.27.11.8.34.99,1.52,1.22,3.09,2.39,4.69,3.6Zm-12.78,12.79c-1.2-1.57-2.33-3.11-3.53-4.6-.22-.27-.8-.53-1.09-.44-2.9.96-5.87,1.78-8.61,3.07-2.29,1.08-2.18,2.55-.06,3.95.33.22.67.47,1.04.59,2.52.85,5.04,1.69,7.59,2.46.3.09.87-.15,1.09-.41,1.21-1.48,2.34-3.02,3.57-4.63Zm32.71,17.95c0-.09,0-.18-.02-.27-.52-3.45-2.34-6.32-4.18-9.17-.13-.2-.62-.25-.93-.22-1.6.17-3.18.45-4.78.56-.87.06-1.14.4-1.16,1.23-.02.93-.17,1.87-.31,2.79-.42,2.75-.44,2.77,2.03,4.18,2.29,1.3,4.58,2.63,7.28,2.87,1.66.14,2.11-.33,2.07-1.96Zm-10.6-24.26c-.46,1.87.22,3.14,1.7,4.2.89-1.15,1.79-2.31,2.82-3.64-1.66-.2-3.05-.37-4.52-.55Zm4.57,12.07c-1.12-1.41-2-2.54-2.86-3.62-1.5,1.07-2.17,2.31-1.7,4.15,1.41-.16,2.83-.33,4.56-.53Zm-8.15,8.14c.2-1.72.37-3.14.54-4.57-1.88-.39-3.15.23-4.15,1.74,1.12.88,2.22,1.74,3.61,2.83Zm-7.84-2.86c-1.12-1.48-2.4-2.16-4.22-1.69.18,1.43.36,2.85.57,4.53,1.32-1.03,2.45-1.91,3.65-2.84Zm-8.98-8.9c-.9,1.16-1.76,2.27-2.81,3.62,1.7.2,3.11.36,4.5.52.4-1.85-.14-3.12-1.69-4.15Zm17.39-11.5c-.19-1.46-.37-2.85-.59-4.5-1.35,1.06-2.48,1.94-3.58,2.81,1.03,1.55,2.32,2.09,4.17,1.69Zm-20.2,3.61c1.05,1.35,1.93,2.49,2.83,3.64,1.51-1.08,2.16-2.37,1.65-4.18-1.42.17-2.78.33-4.48.54Zm7.58-3.72c2.19.51,2.87.19,4.1-1.65-1.12-.87-2.25-1.75-3.54-2.75-.21,1.69-.39,3.04-.56,4.4Z"/><path class="cls-3" d="m114.26,14.7c-.11,5.17-4.25,9.12-9.47,9.03-4.98-.09-9.01-4.28-8.94-9.31.08-5.14,4.36-9.29,9.41-9.13,5.11.16,9.1,4.34,8.99,9.41Zm-9.21,6.39c3.63,0,6.54-2.87,6.6-6.49.05-3.62-2.96-6.68-6.58-6.67-3.63,0-6.64,3.04-6.61,6.66.03,3.6,2.97,6.5,6.59,6.51Z"/><path class="cls-3" d="m2.23,49.49c0-3.97,3.24-7.24,7.2-7.27,4.02-.03,7.3,3.27,7.28,7.32-.02,4-3.24,7.18-7.26,7.17-4.01,0-7.22-3.22-7.22-7.21Zm11.82,0c0-2.54-2.01-4.6-4.54-4.62-2.53-.02-4.6,2-4.63,4.53-.03,2.62,2,4.68,4.61,4.67,2.56-.02,4.55-2.02,4.56-4.58Z"/><path class="cls-3" d="m107.71,41.54c.02,1.04-.87,1.96-1.92,1.99-1.11.04-2.06-.9-2.04-2,.02-1.04.94-1.95,1.97-1.94,1.03,0,1.96.92,1.98,1.95Z"/><path class="cls-3" d="m85.98,9.23c-1.06.02-1.97-.84-2.01-1.89-.05-1.08.92-2.07,2.01-2.05,1.04.02,1.94.93,1.94,1.97,0,1.05-.88,1.95-1.94,1.96Z"/><path class="cls-3" d="m8.1,27.73c1.08-.03,1.97.82,2,1.91.03,1.08-.83,2-1.89,2.03-1.06.03-1.96-.84-1.99-1.92-.03-1.09.81-1.99,1.88-2.02Z"/><path class="cls-3" d="m94.5,58.67c.03,1.07-.81,1.97-1.88,2.01-1.07.04-1.97-.78-2.03-1.84-.06-1.13.81-2.08,1.92-2.09,1.04-.01,1.95.88,1.98,1.92Z"/><path class="cls-3" d="m27.88,58.06c1.06-.03,1.96.85,1.99,1.93.02,1.09-.81,1.99-1.89,2.02-1.08.03-1.96-.83-1.99-1.92-.03-1.09.82-2,1.89-2.03Z"/><path class="cls-3" d="m25.26,7.93c1.05-.02,1.97.87,1.99,1.94.02,1.07-.85,1.99-1.91,2.01-1.06.02-1.96-.86-1.97-1.94-.02-1.09.84-1.99,1.9-2.01Z"/></g></g></svg>