<?xml version="1.0" encoding="UTF-8"?><svg id="a" xmlns="http://www.w3.org/2000/svg" viewBox="0 0 200 200"><defs><style>.b{fill:#febe10;}.c{fill:#b41f5e;}.d{fill:#f05443;}</style></defs><path class="c" d="M40.7,194.93v-7.72h7.84c-.22-4.64,.05-8.97,3.47-12.4,3.42-3.43,7.72-3.78,12.28-3.44v-7.94c-.74,0-1.4,0-2.06,0-14.66,0-29.31,0-43.97,0-8.41,0-13.25-4.82-13.25-13.22,0-33.46,0-66.92,0-100.37,0-8.28,4.85-13.12,13.15-13.13,2.1,0,4.2,0,6.52,0,.03-.74,.09-1.39,.09-2.04,0-5.57,0-11.13,0-16.7,.02-7.94,4.94-12.89,12.82-12.89,28.45,0,56.9,0,85.35,0,7.69,0,12.67,4.96,12.68,12.63,.01,6.24,0,12.48,0,19h2.24c14.78,0,29.56,.01,44.34,0,3.99,0,7.42,1.21,10.02,4.32,1.99,2.38,2.78,5.16,2.78,8.25-.02,33.89,0,67.78-.02,101.67,0,7.4-5.03,12.45-12.49,12.47-14.72,.04-29.44,.01-44.16,.01-.85,0-1.69,0-2.63,0v7.85c11-.73,16.41,4.45,15.78,15.79h7.75v7.86H40.7Zm23.68-106.64c0,.61,0,1.25,0,1.9,0,13.48,0,26.96,0,40.44,0,3.78,1.32,5.07,5.17,5.07,30.86,0,61.71,0,92.57,0,3.86,0,5.13-1.26,5.14-5.09,0-13.48,0-26.96,0-40.44,0-.6-.06-1.2-.09-1.88H64.37ZM12.98,131.78c-.04,.75-.09,1.29-.09,1.84,0,5.63-.01,11.26,0,16.88,0,3.59,1.35,4.95,4.92,4.95,54.79,0,109.59,0,164.38,0,3.55,0,4.9-1.38,4.91-4.97,0-5.63,0-11.26,0-16.88,0-.59-.07-1.18-.1-1.76h-11.6c-1.09,8.45-6.74,12.04-14.94,11.84-13.66-.34-27.33-.09-41-.09-16.82,0-33.64,.01-50.46,0-6.28,0-10.9-3.53-12.23-9.25-.19-.82-.28-1.66-.43-2.54H12.98ZM32.74,36.82c0,.76,0,1.31,0,1.86,0,16.2,0,32.39,0,48.59,0,3.57,1.35,4.91,4.95,4.91,5.63,.01,11.25,0,16.88,0,.59,0,1.18-.06,1.91-.11,0-.87,0-1.54,0-2.21,0-6.8-.01-13.6,.01-20.4,0-1.23,.02-2.49,.29-3.68,1.29-5.72,5.94-9.21,12.24-9.21,18.79-.02,37.58,0,56.38,0,.72,0,1.43,0,2.21,0v-19.74H32.74Zm-7.98,8.05c-.45-.09-.62-.16-.8-.16-1.98-.01-3.96-.02-5.94-.02-3.86,.01-5.13,1.27-5.13,5.11,0,23.99,0,47.98,0,71.97,0,.65,0,1.3,0,1.93H56.33v-23.63c-6.21,0-12.27,0-18.32,0-8.42,0-13.24-4.81-13.25-13.21,0-13.23,0-26.46,0-39.69,0-.73,0-1.46,0-2.29Zm142.49,35.36c0-3.67,0-7.18,0-10.69,0-3.83-1.28-5.09-5.13-5.09-19.72,0-39.44,0-59.15,0-11.31,0-22.62,0-33.94,0-2.54,0-4.43,1.12-4.53,3.17-.2,4.17-.06,8.35-.06,12.61h102.81Zm-31.53-23.67c.76,0,1.42,0,2.09,0,8.16,0,16.32-.01,24.47,.01,1.23,0,2.49,.02,3.68,.29,5.76,1.32,9.26,6.03,9.26,12.43,.02,17.43,0,34.86,0,52.28v2.13h11.8c.03-.59,.07-1.07,.07-1.55,0-24.23,0-48.45,0-72.68,0-3.41-1.42-4.78-4.9-4.79-14.89,0-29.79,0-44.68,0-.59,0-1.18,.07-1.8,.11v11.76Zm-7.99-27.82c0-3.5,0-6.82,0-10.15,0-4.41-1.2-5.63-5.6-5.63-28.06,0-56.11,0-84.17,0-.68,0-1.37,0-2.03,.13-1.67,.33-3,1.35-3.07,3.03-.17,4.17-.05,8.35-.05,12.61H127.73Zm-27.8,150.46c-.82,0-1.49,0-2.16,0-10.45,0-20.9,0-31.35,0-1.92,0-3.84-.04-5.75,.02-2.08,.06-3.77,1.18-4.01,2.92-.22,1.61-.05,3.26-.05,4.91h86.89c0-.93,0-1.72,0-2.52,0-4.08-1.23-5.32-5.3-5.32-5.44,0-10.88,0-16.33,0-.65,0-1.31-.06-1.98-.09v-7.85h7.71v-7.7h-55.22v7.8h27.55v7.85Z"/><path class="b" d="M143.41,100.19v7.6h-55.18v-7.6h55.18Z"/><path class="b" d="M159.3,116.08v7.61h-47.3v-7.61h47.3Z"/><path class="b" d="M72.4,116.01h15.59v7.67h-15.59v-7.67Z"/><path class="b" d="M80.09,107.86h-7.71v-7.68h7.71v7.68Z"/><path class="b" d="M103.89,116.06v7.62h-7.78v-7.62h7.78Z"/><path class="b" d="M159.22,107.87h-7.62v-7.68h7.62v7.68Z"/><path class="d" d="M44.5,147.47h-7.74v-7.63h7.74v7.63Z"/><path class="d" d="M21,139.77h7.65v7.68h-7.65v-7.68Z"/><path class="b" d="M60.32,44.69v7.86h-11.76v11.77h-7.78c-.05-.34-.14-.75-.14-1.16-.01-4.69-.03-9.39,0-14.08,.02-2.85,1.49-4.36,4.33-4.38,5.05-.04,10.1,0,15.36,0Z"/><path class="d" d="M80.08,76.24h-7.7v-7.68h7.7v7.68Z"/><path class="d" d="M88.23,68.5h7.62v7.72h-7.62v-7.72Z"/><path class="d" d="M104.11,68.51h7.62v7.72h-7.62v-7.72Z"/><path class="d" d="M72.37,17.05h7.73v7.62h-7.73v-7.62Z"/><path class="d" d="M48.41,17.07v7.65h-7.68v-7.65h7.68Z"/><path class="d" d="M64.22,24.76h-7.6v-7.68h7.6v7.68Z"/></svg>