<?xml version="1.0" encoding="UTF-8"?><svg xmlns="http://www.w3.org/2000/svg" viewBox="0 0 200 200"><defs><style>.c{fill:#fdbe16;}.d{fill:#c0326f;}.e{fill:#f15744;}</style></defs><g id="a"><g><path class="d" d="M12.03,82.71c0,15.59-.04,30.62,.03,45.64,.01,3.39,2.79,6.27,6.15,6.63,1.43,.15,2.88,.03,4.29,.03,.62-2.55,1.06-4.98,1.81-7.32,5.41-16.93,23.56-27.43,40.35-23.39,2.5,.6,3.8,2.24,3.35,4.23-.46,2.04-2.27,3-4.78,2.54-16.35-3.02-30.9,7.29-33.55,23.76-2.3,14.3,8.55,29.12,22.92,31.29,15.53,2.34,29.14-6.85,32.28-22.22,2.08-10.21-1.12-18.96-8.64-26.15-.37-.35-.79-.65-1.15-1.01-1.58-1.61-1.72-3.56-.36-5.08,1.31-1.47,3.38-1.57,5.09-.16,6.66,5.52,10.78,12.58,12.26,21.07,3.13,18.02-8.09,35.22-25.85,39.84-19.94,5.19-40.48-8.44-43.19-28.73-.23-1.74-1.15-1.71-2.37-1.65-5.31,.26-9.73-1.48-12.95-5.83-1.73-2.35-2.65-5.02-2.65-7.95-.01-22.69-.11-45.37,.03-68.06,.1-16.46,13.61-31.43,30.01-33.22,4.13-.45,8.39,.06,12.57,.44,2.13,.2,3.29,2.3,2.81,4.16-.49,1.9-2.28,2.93-4.42,2.54-16.59-3.03-30.75,6.66-33.76,23.12-2.66,14.52,8.27,29.74,22.89,31.85,15.61,2.25,29.13-6.93,32.21-22.31,2.02-10.11-1.13-18.83-8.57-25.97-.37-.35-.79-.65-1.15-1-1.69-1.66-1.84-3.69-.39-5.24,1.34-1.43,3.36-1.47,5.1-.04,4.48,3.69,7.82,8.23,10.01,13.59,8.82,21.56-5.21,45.36-28.36,48.03-12,1.38-22.02-2.71-30.2-11.5-.48-.51-.95-1.03-1.78-1.92Z"/><path class="d" d="M138.09,26.48c14.66,0,29.32,0,43.97,0,7.26,0,12.05,4.78,12.05,12.03,0,12.98,0,25.96,0,38.94,0,7.25-4.8,12.04-12.04,12.05-29.32,0-58.63,0-87.95,0-7.26,0-12.05-4.79-12.05-12.03,0-13.05-.01-26.11,0-39.16,0-6.96,4.86-11.82,11.82-11.82,14.73-.01,29.46,0,44.19,0Zm0,6.99c-14.52,0-29.04,0-43.55,0-3.93,0-5.48,1.52-5.48,5.37,0,12.77,0,25.53,0,38.3,0,3.84,1.56,5.37,5.48,5.37,29.04,0,58.07,0,87.11,0,4.01,0,5.48-1.5,5.48-5.59,0-12.62,0-25.24,0-37.86,0-4.14-1.48-5.59-5.7-5.59-14.44,0-28.89,0-43.33,0Z"/><path class="d" d="M147.12,170.05c-11.82,0-23.64,0-35.45,0-7.28,0-12.08-4.77-12.08-12.01,0-12.99,0-25.97,0-38.96,0-7.27,4.77-12.05,12.04-12.05,23.78,0,47.56,0,71.35,0,7.1,0,12,4.84,12.01,11.9,.02,13.06,.02,26.12,0,39.18-.01,7.08-4.89,11.94-11.97,11.94-11.96,.01-23.93,0-35.89,0Zm.26-56.03c-11.81,0-23.63,0-35.44,0-3.78,0-5.36,1.54-5.36,5.26,0,12.84,0,25.67,0,38.51,0,3.72,1.58,5.27,5.35,5.27,23.56,0,47.11,0,70.67,0,3.84,0,5.39-1.58,5.4-5.48,0-12.69,0-25.38,0-38.07,0-3.97-1.56-5.49-5.61-5.49-11.67,0-23.34,0-35,0Z"/><path class="e" d="M33.75,74.41c-1.97-.95-4.1-1.68-5.87-2.91-1.65-1.14-2.98-2.77-4.37-4.26-1.46-1.58-1.42-3.77-.02-5.08,1.41-1.31,3.34-1.28,4.91,.16,1.13,1.03,2.16,2.16,3.25,3.24,1.8,1.77,2.8,1.79,4.58,.02,4.8-4.78,9.58-9.58,14.38-14.37,.41-.41,.81-.85,1.26-1.21,1.48-1.19,3.51-1.15,4.77,.06,1.26,1.21,1.4,3.29,.23,4.76-.68,.85-1.5,1.58-2.27,2.36-4.53,4.54-9.07,9.07-13.6,13.6-1.93,1.93-4.16,3.16-6.98,3.07l-.26,.57Z"/><path class="e" d="M51.26,151.41c-1.92-.89-4.01-1.55-5.73-2.74-1.71-1.19-3.1-2.86-4.54-4.4-1.4-1.5-1.41-3.6-.15-4.92,1.38-1.46,3.42-1.48,5.06,.03,1.18,1.08,2.26,2.27,3.41,3.39,1.58,1.54,2.7,1.55,4.28-.01,4.96-4.93,9.89-9.89,14.85-14.83,.56-.56,1.16-1.19,1.87-1.47,1.54-.61,3.05-.42,4.13,.99,1.11,1.45,1.05,3.04-.08,4.42-1.06,1.29-2.32,2.42-3.5,3.6-4.12,4.12-8.24,8.24-12.36,12.36-1.93,1.93-4.16,3.16-6.99,3.05l-.23,.53Z"/><path class="c" d="M125.6,50.98c-8.09,0-16.17,0-24.26,0-.51,0-1.02,.02-1.53,0-2.24-.1-3.7-1.47-3.72-3.46-.02-1.99,1.45-3.45,3.66-3.5,2.48-.06,4.95-.01,7.43-.01,14.42,0,28.84,0,43.27,0,.29,0,.58,0,.87,0,2.72,.03,4.32,1.37,4.27,3.57-.05,2.12-1.61,3.4-4.21,3.41-8.59,.01-17.19,0-25.78,0Z"/><path class="c" d="M117.07,71.99c-5.53,0-11.06,0-16.6,0-2.78,0-4.36-1.27-4.38-3.46-.03-2.21,1.56-3.52,4.31-3.53,11.14,0,22.27,0,33.41,0,2.72,0,4.32,1.36,4.28,3.56-.05,2.12-1.6,3.41-4.2,3.42-5.6,.02-11.21,0-16.81,0Z"/><path class="c" d="M143.3,142.05c8.45,0,16.9,0,25.35,0,2.82,0,4.38,1.2,4.46,3.38,.07,2.25-1.58,3.6-4.46,3.6-16.9,0-33.8,0-50.7,0-2.77,0-4.34-1.29-4.34-3.5,0-2.2,1.58-3.48,4.35-3.48,8.45,0,16.9,0,25.35,0Z"/><path class="c" d="M134.67,128.02c-5.6,0-11.21,.01-16.81,0-2.7,0-4.31-1.39-4.25-3.58,.06-2.12,1.6-3.39,4.22-3.39,11.21-.01,22.42-.01,33.63,0,2.58,0,4.13,1.34,4.14,3.47,.01,2.13-1.55,3.5-4.11,3.51-5.6,.02-11.21,0-16.81,0Z"/></g></g><g id="b"/></svg>