<?xml version="1.0" encoding="UTF-8"?><svg id="Layer_2" xmlns="http://www.w3.org/2000/svg" viewBox="0 0 110.05 118.76"><defs><style>.cls-1{fill:#febe10;}.cls-2{fill:#b41f5e;}.cls-3{fill:#f05443;}</style></defs><g id="Layer_1-2"><g><path class="cls-2" d="m33.34,20.34C38.22,6.18,51.83-1.49,64.73.24c7.83,1.05,14.19,4.8,19.09,10.96,4.88,6.14,6.97,13.23,6.75,21.01,11.87-.39,19.45,9.3,19.48,18.78.02,5.85-2.05,10.82-6.39,14.77-4.4,4.01-9.74,4.96-15.56,4.48,0,3.25,0,6.33,0,9.41,4.56,1.75,6.65,4.85,5.86,8.69-.72,3.5-3.89,5.97-7.55,5.89-3.62-.08-6.73-2.71-7.23-6.11-.58-3.99,1.55-7.04,6-8.46,0-1.51,0-3.06,0-4.61,0-1.51,0-3.02,0-4.64h-18.18v2.71c0,3.27.02,6.54-.02,9.81,0,.69.2,1.07.82,1.39,1.92.97,3.79,2.03,5.7,3.02.8.42,1.17,1.01,1.13,1.91-.04.96.04,1.92-.02,2.87-.07.91.16,1.36,1.15,1.68,3.11.98,5.06,3.91,4.94,7.13-.12,3.18-2.34,5.96-5.45,6.79-4.02,1.08-8.13-1.18-9.25-5.09-1.11-3.86,1.05-7.68,5.08-8.98.22-.07.44-.17.64-.25.03-.11.07-.19.07-.27q.2-3.41-2.84-5.05c-1.16-.62-2.29-1.29-3.48-1.85-.97-.46-1.29-1.15-1.28-2.19.03-4.11.01-8.21.01-12.32,0-.43,0-.85,0-1.34h-7.69v33.78c.41.15.83.28,1.23.44,3.39,1.28,5.34,4.7,4.67,8.22-.64,3.39-3.84,5.95-7.41,5.94-3.56-.01-6.76-2.62-7.36-6-.62-3.5,1.25-6.91,4.64-8.1,1.13-.39,1.38-.91,1.37-2.02-.04-10.28-.03-20.57-.03-30.85,0-.43,0-.87,0-1.39h-7.68c-.03.42-.07.84-.07,1.25,0,4.07-.03,8.13.02,12.2.01,1.17-.33,1.93-1.44,2.46-1.79.86-3.5,1.9-5.28,2.79-.71.36-1.04.8-.91,1.58.03.16.02.32,0,.48-.21,1.47.1,2.33,1.77,2.95,3.25,1.2,4.92,4.82,4.17,8.12-.77,3.38-3.91,5.81-7.43,5.77-3.52-.04-6.67-2.6-7.29-5.94-.64-3.42,1.19-6.8,4.44-8.14.48-.2.97-.35,1.53-.55,0-1.36.03-2.71-.01-4.06-.03-.95.33-1.56,1.19-2,1.91-.98,3.81-2,5.68-3.05.32-.18.73-.6.73-.91.05-4.3.03-8.6.03-12.97h-18.08v9.26c4.61,1.78,6.64,4.81,5.86,8.77-.68,3.43-3.94,5.93-7.6,5.81-3.61-.11-6.7-2.77-7.18-6.17-.55-3.89,1.61-6.95,6.01-8.39v-9.42c-8.73-1.3-15.14-5.84-19.15-13.57-3.28-6.33-3.76-13-1.76-19.84,3.79-13.01,17.94-21.82,32.15-16.5Zm24.22,47.23c9.21,0,18.42.02,27.62-.01,3.14-.01,6.35.18,9.42-.34,7.31-1.25,12.44-7.73,12.65-15.44.22-7.88-4.78-14.65-12.21-16.28-1.75-.38-3.63-.22-5.45-.22-1.43,0-2.07-.56-1.94-1.88.59-6.06-.66-11.73-3.66-17-5.7-10.03-16.54-15.31-27.69-13.07-10.44,2.1-17.09,8.7-20.46,18.7-.62,1.84-1.1,2.08-2.88,1.29-3.67-1.63-7.48-2.13-11.44-1.49-11.24,1.8-20.05,12.51-18.52,25.72,1.25,10.78,10.13,20.35,22.99,20.08,10.52-.22,21.04-.05,31.57-.05Zm-34,14.87c-2.65-.02-4.75,1.93-4.8,4.45-.04,2.46,2.1,4.58,4.68,4.61,2.56.04,4.76-2.02,4.79-4.5.04-2.5-2.06-4.55-4.68-4.56Zm13.25,22.75c2.62.02,4.76-1.97,4.8-4.47.04-2.46-2.11-4.57-4.69-4.61-2.56-.03-4.76,2.03-4.79,4.5-.04,2.49,2.08,4.55,4.69,4.57Zm36.4,0c2.62,0,4.74-2,4.76-4.5.02-2.47-2.15-4.56-4.72-4.57-2.58,0-4.74,2.05-4.76,4.53-.02,2.49,2.11,4.54,4.72,4.54Zm18.12-18.31c-.04-2.55-2.19-4.49-4.92-4.44-2.54.04-4.59,2.1-4.55,4.56.04,2.48,2.23,4.54,4.79,4.5,2.59-.04,4.72-2.15,4.68-4.61Zm-36.22,29.07c2.6-.02,4.72-2.1,4.68-4.58-.04-2.5-2.19-4.5-4.8-4.47-2.6.03-4.73,2.11-4.68,4.59.04,2.5,2.18,4.49,4.8,4.46Z"/><path class="cls-1" d="m66.64,60.41h4.09c0-.57,0-1.08,0-1.59,0-10.16,0-20.33,0-30.49,0-2.09.26-2.34,2.34-2.34,1.71,0,3.43,0,5.14,0,1.57,0,1.96.39,1.96,1.99,0,10.32,0,20.64,0,30.97v1.53c.75,0,1.38,0,2.01,0,.96,0,1.7.4,1.68,1.43-.02,1.03-.76,1.39-1.73,1.38-6.46,0-12.91,0-19.37,0-11.36,0-22.72,0-34.07,0-.32,0-.64,0-.96,0-.88-.03-1.49-.47-1.51-1.36-.02-.96.63-1.41,1.55-1.44.67-.02,1.34,0,2.14,0,0-1.54-.01-2.96,0-4.38.02-1.21.45-1.68,1.64-1.69,2.03-.02,4.07-.02,6.1,0,1.24.01,1.66.42,1.69,1.65.03,1.43,0,2.85,0,4.35h4.03c.02-.42.06-.84.06-1.26,0-4.07,0-8.13,0-12.2,0-1.65.4-2.04,2.05-2.04,1.91,0,3.83-.01,5.74,0,1.38,0,1.86.48,1.86,1.88.01,4.06,0,8.13,0,12.2,0,.43,0,.87,0,1.4h3.87c0-.44,0-.9,0-1.36,0-7.41,0-14.83,0-22.24,0-2.19.25-2.44,2.49-2.44,1.71,0,3.43,0,5.14,0,1.65,0,2.02.37,2.02,2.05,0,7.53,0,15.06,0,22.6,0,.43,0,.87,0,1.41Zm10.68.01v-31.56h-3.74v31.56h3.74Zm-17.45-23.21v23.17h3.94v-23.17h-3.94Zm-13.62,23.17h3.96v-12.58h-3.96v12.58Zm-9.75.03v-3.18h-3.75v3.18h3.75Z"/><path class="cls-3" d="m6,43.55c.31-9.92,8.07-18,17.96-18.66.53-.04,1.2-.01,1.58.28.35.27.65,1.02.52,1.4-.15.45-.75.93-1.23,1.04-1.08.25-2.22.17-3.3.41-6.78,1.51-12.03,7.55-12.64,14.49-.06.67-.1,1.35-.14,2.03-.05.89-.51,1.49-1.4,1.46-.95-.02-1.39-.66-1.36-1.61.01-.28,0-.56,0-.84Z"/><path class="cls-3" d="m62.12,5.93c8.74.64,15.19,4.92,19.63,12.39.48.81.42,1.59-.42,2.06-.91.5-1.59.05-2.07-.78-2.47-4.27-5.88-7.57-10.51-9.33-2.12-.81-4.45-1.11-6.72-1.47-1.39-.22-2.05-.53-2.02-1.49.02-.96.7-1.39,2.11-1.37Z"/><path class="cls-3" d="m104.1,52.06c-.2,6.49-5.38,11.92-11.73,12.29-1.24.07-1.87-.33-1.94-1.23-.07-.91.51-1.42,1.71-1.51,4.73-.35,8.54-4.05,9.08-8.8.05-.47.09-.95.13-1.43.08-.88.52-1.47,1.42-1.43.96.04,1.37.69,1.32,1.63,0,.16,0,.32,0,.48Z"/></g></g></svg>