<?xml version="1.0" encoding="UTF-8"?><svg id="Layer_2" xmlns="http://www.w3.org/2000/svg" viewBox="0 0 114.83 103.91"><defs><style>.cls-1{fill:#febe10;}.cls-2{fill:#b41f5e;}.cls-3{fill:#f05443;}</style></defs><g id="Layer_1-2"><g><path class="cls-1" d="m0,35.91c2.17-.2,4.34-.37,6.49-.65.4-.05.93-.45,1.1-.82.93-2.07,1.78-4.19,2.78-6.6.69,1.66,1.43,3,1.81,4.45.62,2.37,1.93,3.43,4.43,3.26,1.39-.09,2.82.26,4.43.43-.3.33-.5.58-.72.79-1.44,1.32-2.86,2.65-4.33,3.94-.49.43-.61.83-.46,1.46.45,1.89.84,3.8,1.25,5.71.07.32.11.65.2,1.22-2.02-1.24-3.88-2.34-5.69-3.51-.66-.43-1.13-.45-1.8-.01-1.81,1.19-3.68,2.28-5.77,3.56.4-1.89.57-3.57,1.12-5.13.7-1.98.33-3.36-1.43-4.55-1.22-.83-2.28-1.9-3.41-2.86,0-.23,0-.45,0-.68Z"/><path class="cls-2" d="m95.03,66.08c-.04,20.91-17.07,37.89-37.93,37.83-20.82-.06-37.77-17.1-37.73-37.93.04-20.85,17.04-37.78,37.88-37.75,20.86.03,37.83,17.03,37.79,37.84Zm-64.79,20.87c2.72-5.01,6.68-8.59,11.7-10.93,7.89-3.69,16.14-4.12,24.5-2.14,7.58,1.8,13.64,5.87,17.56,12.78.05.08.16.13.24.19,9.66-11.83,10.43-31.78-2.98-45.1-13.35-13.25-34.69-13.27-48.11,0-13.45,13.3-12.65,33.27-2.91,45.19Zm28.85-10.56c-5.95-.01-9.9.55-13.68,2.03-5.26,2.07-9.51,5.34-12.12,10.49-.39.76-.41,1.25.3,1.91,5.91,5.52,12.87,8.72,20.93,9.32,10.2.75,19.01-2.53,26.47-9.5.5-.47.54-.86.26-1.45-1.5-3.16-3.74-5.68-6.56-7.71-5.23-3.77-11.19-5.05-15.6-5.09Z"/><path class="cls-1" d="m91.78,28.38c-2.1-1.28-4-2.4-5.85-3.6-.6-.39-1.02-.36-1.61.01-1.85,1.19-3.75,2.31-5.86,3.61.5-2.3.87-4.36,1.4-6.38.29-1.09.08-1.77-.8-2.49-1.57-1.3-3.03-2.73-4.73-4.29,2.28-.22,4.28-.46,6.28-.58,1.07-.06,1.64-.46,2.01-1.5.7-1.96,1.57-3.86,2.49-6.06.96,2.28,1.85,4.28,2.63,6.32.3.77.68,1.09,1.51,1.15,2.12.15,4.23.41,6.65.66-1.16,1.06-2.03,2.11-3.13,2.82-2.41,1.56-2.96,3.5-1.92,6.14.49,1.23.58,2.61.9,4.16Z"/><path class="cls-1" d="m46.42,8.07c2.48-.25,4.67-.51,6.86-.68.67-.05.97-.33,1.21-.92.72-1.81,1.49-3.6,2.24-5.4.12-.29.27-.58.51-1.07.92,2.19,1.78,4.16,2.57,6.16.3.77.64,1.19,1.56,1.25,2.12.12,4.22.4,6.64.65-1.54,1.4-2.8,2.73-4.24,3.82-1.32,1-1.65,2.04-1.16,3.62.55,1.76.82,3.61,1.28,5.7-2.08-1.28-3.91-2.36-5.69-3.52-.68-.44-1.19-.49-1.91-.02-1.78,1.17-3.62,2.25-5.66,3.51.13-.8.21-1.39.34-1.98.36-1.69.77-3.36,1.06-5.06.07-.41-.13-1.02-.43-1.31-1.61-1.56-3.29-3.05-5.16-4.75Z"/><path class="cls-1" d="m29.28,7.12c.98,2.35,1.87,4.41,2.69,6.49.25.63.56.92,1.28.98,2.17.16,4.33.42,6.7.67-.29.33-.48.57-.7.77-1.38,1.27-2.73,2.58-4.17,3.78-.69.58-.78,1.13-.59,1.94.51,2.11.94,4.23,1.47,6.65-1.79-1.09-3.42-1.93-4.85-3.01-1.32-1-2.35-.96-3.65,0-1.43,1.07-3.03,1.91-4.82,3.01.22-1.07.38-1.88.55-2.7.15-.73.2-1.51.49-2.19.95-2.22.25-3.76-1.66-5.08-1.16-.8-2.13-1.89-3.18-2.86-.05-.04-.06-.13-.13-.33,1.8-.18,3.57-.46,5.33-.49,1.58-.03,2.5-.53,2.99-2.13.55-1.78,1.4-3.46,2.25-5.5Z"/><path class="cls-1" d="m114.83,35.99c-1.67,1.53-3.1,2.96-4.65,4.21-.97.78-1.13,1.53-.82,2.69.53,1.94.87,3.94,1.35,6.23-1.49-.91-2.86-1.54-3.96-2.47-1.87-1.58-3.51-1.59-5.38,0-1.1.93-2.46,1.55-3.92,2.45.12-.7.19-1.18.29-1.66.23-1.1.31-2.26.73-3.28.89-2.16.24-3.62-1.59-4.9-1.19-.83-2.18-1.94-3.26-2.93-.05-.05-.06-.13-.16-.33,1.74-.18,3.42-.47,5.11-.49,1.73-.02,2.79-.54,3.3-2.35.48-1.71,1.34-3.32,2.11-5.15.21.36.37.57.47.81.77,1.83,1.55,3.66,2.27,5.5.24.63.55.93,1.27.99,2.19.17,4.36.43,6.83.68Z"/><path class="cls-3" d="m57.14,40.34c7.93-.03,14.43,6.4,14.47,14.31.04,7.97-6.46,14.51-14.41,14.51-7.9,0-14.41-6.5-14.42-14.39-.01-7.93,6.42-14.39,14.36-14.43Zm10.86,14.46c.03-5.97-4.76-10.8-10.75-10.85-5.95-.05-10.85,4.79-10.87,10.73-.01,5.96,4.77,10.8,10.75,10.87,5.9.07,10.84-4.82,10.86-10.75Z"/></g></g></svg>