<?xml version="1.0" encoding="UTF-8"?><svg id="Layer_2" xmlns="http://www.w3.org/2000/svg" viewBox="0 0 108.36 108.41"><defs><style>.cls-1{fill:#febe10;}.cls-2{fill:#b41f5e;}.cls-3{fill:#f05443;}</style></defs><g id="Layer_1-2"><g><path class="cls-2" d="m21.67,59.34c2.31,0,4.57,0,6.82,0,1.64,0,2.16.51,2.17,2.13.01,1.4,0,2.8,0,4.35,2.08-.23,4-.36,5.9-.66,6.4-1.01,11.83.91,16.45,5.33,1.63,1.56,3.21,3.18,4.8,4.79,2.22,2.25,4.89,3.36,8.07,3.33,4.06-.04,8.12.02,12.18-.02,3.69-.03,6.29,1.53,7.67,5,.04.09.11.17.24.37.3-.28.58-.52.84-.78,2.24-2.31,4.46-4.63,6.7-6.93,1.62-1.67,3.46-3.02,5.77-3.57,4.32-1.03,8.26,2.65,8.9,6.11.53,2.86-.36,5.33-2.31,7.37-4.58,4.8-9.19,9.58-13.88,14.28-3.7,3.72-8.25,5.6-13.51,5.61-11.34.03-22.67.03-34.01,0-4.35-.01-8.35-1.54-12.34-3.06-.43-.16-.85-.33-1.35-.53-.46,1.18-1.39,1.35-2.49,1.31-1.98-.06-3.95,0-5.93-.03-.66,0-1.05.13-1.36.83-1.08,2.47-3.08,3.74-5.75,3.78-4.41.06-8.83.03-13.24.01-1.37,0-2.01-.64-2.01-2.01,0-15.75,0-31.5,0-47.25,0-1.36.59-1.94,1.93-1.95,5.9,0,11.79,0,17.69,0,1.39,0,1.7.34,2.05,2.16Zm39.81,43.6c5.44,0,10.88,0,16.32,0,4.98,0,9.2-1.74,12.66-5.39,4.23-4.45,8.58-8.8,12.8-13.27.79-.83,1.39-1.97,1.72-3.08.52-1.73-.31-3.15-1.64-4.28-1.27-1.08-2.73-1.49-4.21-.69-1.19.64-2.3,1.5-3.29,2.44-1.81,1.73-3.51,3.58-5.25,5.39-1.96,2.03-4.03,3.98-5.84,6.14-1.77,2.11-3.87,3.16-6.6,3.15-6.82-.03-13.63.02-20.45-.03-1.9-.01-3.81-.15-5.69-.42-2.82-.41-5.43-1.47-7.88-2.93-.66-.4-1.14-1.04-.8-1.76.24-.53.84-1.06,1.39-1.23.43-.13,1.06.24,1.54.5,3.07,1.66,6.35,2.54,9.83,2.55,7.52.03,15.05.01,22.57,0,1.68,0,3.42-1.26,3.97-2.84.9-2.55-1.04-5.28-3.81-5.3-4.38-.03-8.76,0-13.14-.02-3.89-.02-7.23-1.37-9.99-4.13-1.82-1.82-3.58-3.72-5.5-5.44-3.47-3.12-7.51-4.64-12.24-4.02-1.96.26-3.92.52-5.89.65-1.01.07-1.29.4-1.28,1.4.04,8.97.05,17.94-.02,26.91,0,1.3.37,1.9,1.57,2.39,5.03,2.09,10.14,3.56,15.69,3.32,4.48-.19,8.97-.04,13.46-.04ZM3.34,60.45v44.66c.44,0,.82,0,1.2,0,3.35,0,6.71,0,10.06,0,2.63,0,3.64-1,3.64-3.64,0-13.27,0-26.55,0-39.82,0-.38,0-.75,0-1.21H3.34Zm18.19,40.09c1.67,0,3.21-.05,4.75.02.94.04,1.21-.28,1.2-1.21-.04-4.41-.02-8.83-.02-13.24,0-7.38-.01-14.76.02-22.14,0-.98-.21-1.42-1.29-1.34-1.09.09-2.19.02-3.28.02-1.38,0-1.38,0-1.38,1.4,0,11.72,0,23.45,0,35.17,0,.38,0,.76,0,1.32Z"/><path class="cls-1" d="m92.34,31.36c-.03,17.47-14.01,31.36-31.49,31.3-17.23-.07-31.23-14.15-31.17-31.35C29.75,14.03,43.86-.05,61.07,0c17.3.05,31.31,14.1,31.28,31.36Zm-3.2-.1c-.05-15.53-12.66-28.07-28.15-28.01-15.62.07-28.07,12.61-28.03,28.22.04,15.44,12.71,27.92,28.29,27.86,15.35-.05,27.93-12.73,27.88-28.08Z"/><path class="cls-3" d="m6.8,46.12c0-.39-.05-.78.01-1.16.15-.9.67-1.5,1.62-1.5.9,0,1.48.56,1.58,1.41.11.9.1,1.84,0,2.74-.1.86-.71,1.42-1.59,1.4-.93-.01-1.48-.6-1.6-1.52-.06-.45-.01-.91-.01-1.37Z"/><path class="cls-3" d="m23.83,2.78c0,.42.04.85,0,1.27-.1.89-.64,1.45-1.51,1.51-.88.06-1.53-.44-1.65-1.32-.12-.9-.12-1.83-.04-2.74.08-.9.86-1.52,1.65-1.48.86.05,1.5.74,1.55,1.71.02.35,0,.71,0,1.06h0Z"/><path class="cls-3" d="m27.83,10.02c-.42,0-.86.07-1.26-.02-.83-.18-1.38-.68-1.37-1.61.01-.92.56-1.47,1.4-1.57.86-.11,1.76-.11,2.62,0,.84.1,1.4.61,1.41,1.55.01.98-.56,1.48-1.45,1.64-.44.08-.91.01-1.37.01,0,0,0,0,0-.01Z"/><path class="cls-3" d="m94.15,10.03c-.42,0-.86.06-1.27-.01-.85-.16-1.39-.66-1.4-1.59,0-.93.53-1.49,1.38-1.59.87-.11,1.77-.11,2.64,0,.86.1,1.38.7,1.43,1.58.05.79-.64,1.52-1.52,1.62-.42.05-.85,0-1.27,0,0,0,0,0,0-.01Z"/><path class="cls-3" d="m105.68,6.79c.39,0,.78-.05,1.16,0,.92.13,1.51.68,1.52,1.61,0,.93-.59,1.52-1.51,1.61-.8.08-1.62.07-2.43.01-.94-.07-1.66-.83-1.58-1.66.09-.92.64-1.47,1.57-1.57.42-.05.84,0,1.27,0Z"/><path class="cls-3" d="m23.83,14.21c0,.39.04.78,0,1.16-.12.9-.59,1.5-1.57,1.54-.98.03-1.53-.54-1.64-1.44-.1-.8-.08-1.62-.02-2.43.07-.94.84-1.62,1.67-1.58.85.04,1.5.74,1.57,1.7.03.35,0,.7,0,1.06Z"/><path class="cls-3" d="m96,64.38c0-.39-.03-.77,0-1.16.08-.9.63-1.44,1.49-1.5.86-.06,1.54.4,1.63,1.3.1.93.1,1.89.02,2.82-.08.9-.73,1.34-1.6,1.35-.84.01-1.48-.66-1.54-1.56-.03-.42,0-.84,0-1.26h0Z"/><path class="cls-3" d="m98.32,2.78c0-.46-.05-.92.01-1.37.12-.91.74-1.39,1.59-1.37.8.02,1.44.46,1.5,1.34.06.94.07,1.9,0,2.84-.07.88-.72,1.32-1.52,1.32-.84,0-1.47-.47-1.57-1.39-.05-.45,0-.91,0-1.37Z"/><path class="cls-3" d="m10.08,34.88c0,.42.04.85,0,1.26-.11.91-.72,1.38-1.58,1.37-.81,0-1.45-.44-1.51-1.31-.07-.91-.06-1.83-.02-2.74.05-.93.67-1.37,1.52-1.45.82-.07,1.53.62,1.59,1.49.04.45,0,.91,0,1.37,0,0,0,0,0,0Z"/><path class="cls-3" d="m2.87,38.96c.42,0,.85-.03,1.26,0,.93.08,1.4.71,1.41,1.55,0,.84-.48,1.49-1.4,1.55-.87.06-1.76.05-2.63,0-.87-.05-1.56-.8-1.47-1.6.09-.85.53-1.45,1.47-1.51.45-.03.91,0,1.37,0Z"/><path class="cls-3" d="m96,53.03c0-.42-.04-.85,0-1.27.1-.91.67-1.42,1.54-1.43.87-.01,1.51.44,1.58,1.37.06.88.07,1.77,0,2.64-.07.89-.82,1.52-1.63,1.47-.83-.05-1.45-.71-1.51-1.62-.02-.39,0-.78,0-1.16,0,0,0,0,0,0Z"/><path class="cls-3" d="m14.25,42.07c-.46,0-.92.05-1.37,0-.9-.11-1.4-.71-1.4-1.57,0-.81.45-1.45,1.32-1.52.91-.08,1.83-.08,2.74-.02.92.06,1.37.66,1.38,1.56.02.89-.58,1.5-1.51,1.56-.39.03-.78,0-1.16,0,0,0,0,0,0,0Z"/><path class="cls-3" d="m16.54,10.08c-.46,0-.92.04-1.37,0-.9-.11-1.4-.66-1.39-1.56,0-.89.49-1.48,1.4-1.54.84-.06,1.69-.05,2.54-.01.94.04,1.5.66,1.49,1.56,0,.9-.57,1.5-1.5,1.56-.39.03-.78,0-1.16,0,0,0,0,0,0,0Z"/><path class="cls-3" d="m101.44,14.18c0,.42.03.85,0,1.27-.07.93-.69,1.5-1.59,1.46-.89-.04-1.47-.49-1.52-1.41-.05-.84-.05-1.69,0-2.53.05-.88.77-1.58,1.58-1.5.85.08,1.46.52,1.53,1.45.03.42,0,.84,0,1.27Z"/><path class="cls-3" d="m103.25,57.19c.46,0,.92-.04,1.37,0,.92.09,1.41.7,1.41,1.56,0,.85-.49,1.49-1.41,1.55-.88.05-1.76.05-2.64,0-.93-.06-1.39-.66-1.39-1.55,0-.89.48-1.46,1.39-1.55.42-.04.85,0,1.27,0Z"/><path class="cls-3" d="m91.87,57.19c.46,0,.92-.04,1.37,0,.86.09,1.34.62,1.37,1.46.04.9-.43,1.52-1.32,1.62-.91.1-1.84.09-2.74,0-.89-.08-1.38-.66-1.36-1.57.02-.91.5-1.44,1.41-1.53.42-.04.85,0,1.27,0,0,0,0,0,0,0Z"/><path class="cls-3" d="m12.4,95.33c0,.74.02,1.48,0,2.22-.03.94-.54,1.51-1.47,1.63-.85.1-1.62-.45-1.68-1.38-.1-1.65-.1-3.31-.02-4.95.04-.91.85-1.54,1.65-1.44.91.12,1.48.65,1.52,1.6.03.77,0,1.55,0,2.32Z"/><path class="cls-1" d="m57.9,32.97c.22-.36.39-.79.68-1.08,3.46-3.48,6.93-6.95,10.42-10.4,2.2-2.17,5.11-2.6,7.66-1.18,3.57,1.98,4.2,6.74,1.22,9.76-4.14,4.2-8.33,8.35-12.5,12.52-1.12,1.12-2.23,2.26-3.37,3.37-2.58,2.5-6.27,2.54-8.83.03-3.08-3.01-6.12-6.06-9.14-9.14-2.4-2.45-2.39-6.33-.05-8.68,2.33-2.33,6.28-2.43,8.72-.13,1.61,1.52,3.11,3.17,4.66,4.76.17.06.34.11.51.17Zm-.16,11.84c.87-.57,1.78-.97,2.44-1.63,5.03-4.96,10.01-9.97,15-14.96.27-.27.55-.55.77-.87,1.17-1.67.42-3.81-1.52-4.42-1.37-.43-2.38.17-3.31,1.09-4,3.99-8.01,7.97-12.02,11.94-1.13,1.12-1.85,1.11-2.97,0-1.8-1.79-3.58-3.61-5.4-5.38-1.37-1.34-3.11-1.37-4.33-.14-1.18,1.2-1.16,2.92.16,4.25,2.95,2.99,5.91,5.97,8.93,8.89.54.52,1.36.76,2.26,1.23Z"/></g></g></svg>