<?xml version="1.0" encoding="UTF-8"?><svg id="Layer_1" xmlns="http://www.w3.org/2000/svg" viewBox="0 0 100 100"><defs><style>.cls-1{fill:#b72063;}.cls-2{fill:#fec823;}</style></defs><path class="cls-2" d="m39.56,69.87c-.37,0-.75-.13-1.06-.39l-10.58-9.01c-.36-.31-.57-.77-.57-1.24s.21-.93.57-1.24l10.58-9.01c.69-.59,1.72-.5,2.3.18.58.69.5,1.72-.19,2.3l-9.11,7.76,9.11,7.76c.69.59.77,1.62.19,2.3-.32.38-.78.58-1.25.58Z"/><path class="cls-2" d="m60.44,69.87c-.46,0-.92-.2-1.24-.58-.59-.69-.5-1.72.18-2.3l9.11-7.76-9.11-7.76c-.69-.58-.77-1.62-.18-2.3.58-.69,1.62-.77,2.3-.18l10.58,9.01c.36.31.57.77.57,1.24s-.21.93-.57,1.24l-10.58,9.01c-.31.26-.68.39-1.06.39Z"/><path class="cls-2" d="m46.26,76.62c-.11,0-.23-.01-.34-.04-.88-.19-1.45-1.05-1.26-1.94l6.59-31.3c.19-.88,1.05-1.45,1.94-1.26.88.19,1.45,1.05,1.26,1.94l-6.59,31.3c-.16.77-.84,1.3-1.6,1.3Z"/><path class="cls-1" d="m88.53,93.67H11.47c-6.05,0-10.97-4.92-10.97-10.97V17.3C.5,11.25,5.42,6.33,11.47,6.33h77.05c6.05,0,10.97,4.92,10.97,10.97v65.4c0,6.05-4.92,10.97-10.97,10.97ZM11.47,9.6c-4.25,0-7.71,3.46-7.71,7.71v65.4c0,4.25,3.46,7.71,7.71,7.71h77.05c4.25,0,7.71-3.46,7.71-7.71V17.3c0-4.25-3.46-7.71-7.71-7.71H11.47Z"/><path class="cls-1" d="m97.87,32.5H2.13c-.9,0-1.63-.73-1.63-1.63s.73-1.63,1.63-1.63h95.73c.9,0,1.63.73,1.63,1.63s-.73,1.63-1.63,1.63Z"/><path class="cls-2" d="m28.43,24.68c-2.85,0-5.17-2.32-5.17-5.17s2.32-5.17,5.17-5.17,5.17,2.32,5.17,5.17-2.32,5.17-5.17,5.17Zm0-7.08c-1.05,0-1.9.85-1.9,1.9s.85,1.9,1.9,1.9,1.9-.85,1.9-1.9-.85-1.9-1.9-1.9Z"/><path class="cls-2" d="m12.53,24.63c-2.85,0-5.17-2.32-5.17-5.17s2.32-5.17,5.17-5.17,5.17,2.32,5.17,5.17-2.32,5.17-5.17,5.17Zm0-7.08c-1.05,0-1.9.85-1.9,1.9s.85,1.9,1.9,1.9,1.9-.85,1.9-1.9-.85-1.9-1.9-1.9Z"/><path class="cls-2" d="m44.32,24.73c-2.85,0-5.17-2.32-5.17-5.17s2.32-5.17,5.17-5.17,5.17,2.32,5.17,5.17-2.32,5.17-5.17,5.17Zm0-7.08c-1.05,0-1.9.85-1.9,1.9s.85,1.9,1.9,1.9,1.9-.85,1.9-1.9-.85-1.9-1.9-1.9Z"/></svg>