<?xml version="1.0" encoding="UTF-8"?><svg id="Layer_1" xmlns="http://www.w3.org/2000/svg" viewBox="0 0 60 60"><defs><style>.cls-1{fill:#b41f5e;}.cls-2{fill:#fbbd18;}</style></defs><path class="cls-1" d="m57.89,57.87V10.39H2.07c0,.33,0,.66,0,.99,0,11.43,0,22.87,0,34.3,0,.23,0,.46,0,.69,0,.71-.33,1.2-1.06,1.19-.69-.01-1-.49-1.01-1.16,0-.2,0-.4,0-.6,0-14.68,0-29.36,0-44.04C0,.24.24,0,1.73,0c18.85,0,37.69,0,56.54,0,1.49,0,1.73.24,1.73,1.75,0,18.85,0,37.69,0,56.54,0,1.45-.25,1.71-1.69,1.71-18.88,0-37.75,0-56.63,0-1.43,0-1.68-.26-1.68-1.72,0-.92,0-1.84,0-2.76,0-1.23.32-1.74,1.06-1.73.71.02,1.01.52,1.01,1.68,0,.77,0,1.55,0,2.38h55.82Zm.04-55.74H2.14v6.1h55.74c.02-.14.05-.25.05-.36,0-1.89,0-3.79,0-5.74Z"/><path class="cls-2" d="m47.59,37.17c0,4.3,0,8.55,0,12.8,0,1.51-.24,1.75-1.73,1.75-2.84,0-5.68,0-8.62,0,0,.97,0,1.88,0,2.79-.01.98-.37,1.34-1.36,1.34-3.94,0-7.87,0-11.81,0-.94,0-1.31-.37-1.31-1.3-.01-2.59-.01-5.17,0-7.76,0-.92.38-1.28,1.33-1.28,1.58-.01,3.16,0,4.8,0,.02-.24.07-.46.07-.68,0-2.53.02-5.06-.02-7.58,0-.35-.18-.78-.42-1.04-.86-.93-1.76-1.81-2.67-2.69-.21-.2-.52-.4-.79-.41-2.15-.03-4.31-.02-6.51-.02-.44,1.64-1.35,2.91-2.9,3.64-1.13.53-2.31.62-3.53.32-2.31-.58-3.96-2.83-3.83-5.28.13-2.53,2.09-4.57,4.65-4.86,2.53-.29,4.74,1.3,5.6,4.11,2.2,0,4.43,0,6.66-.01.17,0,.36-.15.5-.27.22-.18.41-.4.62-.6q2.99-2.98,2.58-7.39c-1.47,0-2.95,0-4.43,0-1.45,0-1.71-.25-1.71-1.69,0-2.38,0-4.77,0-7.15,0-1.17.32-1.51,1.46-1.51,3.85,0,7.7,0,11.55,0,1.15,0,1.48.33,1.48,1.49,0,2.47,0,4.94,0,7.41,0,1.1-.34,1.44-1.43,1.45-1.55,0-3.1,0-4.77,0,0,1.55-.02,3.06.02,4.56,0,.21.24.44.42.61,1.04,1.03,1.93,2.42,3.18,2.96,1.19.51,2.77.13,4.17.13.86,0,1.72,0,2.63,0,.41-1.56,1.25-2.78,2.67-3.53,1-.52,2.06-.74,3.17-.55,2.47.42,4.22,2.3,4.41,4.72.2,2.53-1.33,4.6-4.12,5.49Zm-6.12-4.06c-.92,0-1.81,0-2.7,0-1.41.01-2.97-.35-4.17.16-1.2.5-2.08,1.84-3.03,2.88-.29.32-.5.83-.51,1.26-.05,2.41-.02,4.83-.02,7.24,0,.28.02.55.04.88,1.65,0,3.23,0,4.8,0,1,0,1.35.36,1.36,1.34.01.91,0,1.82,0,2.73h8.23v-12.45c-2.1-.57-3.42-1.87-4.01-4.04Zm-6.36-12.45v-6.1h-10.23v6.1h10.23Zm0,33.1v-6.1h-10.23v6.1h10.23Zm-18.56-21.7c-.02-1.72-1.45-3.11-3.16-3.08-1.68.04-3.05,1.44-3.03,3.12.01,1.72,1.45,3.11,3.16,3.08,1.68-.03,3.05-1.44,3.03-3.12Zm33.1.06c.02-1.72-1.38-3.13-3.1-3.14-1.68,0-3.07,1.38-3.09,3.06-.02,1.72,1.38,3.14,3.1,3.14,1.68,0,3.07-1.38,3.09-3.06Zm-19.72,2.48c.92-.87,1.79-1.69,2.6-2.45-.86-.88-1.71-1.75-2.47-2.52-.85.84-1.71,1.69-2.54,2.51.79.81,1.63,1.66,2.41,2.46Z"/><path class="cls-1" d="m2.07,50.68c-.08.62-.41,1.03-1.04,1.02-.63,0-1.02-.41-1-1.04.01-.59.39-.97.98-.98.64-.02.97.38,1.07,1Z"/><path class="cls-2" d="m9.31,6.21c-.63,0-1.26,0-1.89,0-.7,0-1.19-.32-1.18-1.06,0-.68.48-1,1.15-1.01,1.29,0,2.58,0,3.87,0,.67,0,1.14.33,1.14,1.01,0,.73-.49,1.05-1.19,1.05-.63,0-1.26,0-1.89,0Z"/><path class="cls-2" d="m48.65,6.21c-.62-.07-1.03-.38-1.05-1.02-.01-.59.35-.98.94-1.03.64-.05,1.05.33,1.09.95.04.64-.36.98-.98,1.09Z"/><path class="cls-2" d="m52.72,6.21c-.62-.11-1.02-.45-.98-1.09.04-.63.45-1,1.09-.96.58.04.95.43.94,1.02-.01.64-.43.96-1.05,1.02Z"/></svg>