<?xml version="1.0" encoding="UTF-8"?><svg id="Layer_1" xmlns="http://www.w3.org/2000/svg" viewBox="0 0 100 100"><defs><style>.cls-1{fill:#b72063;}.cls-2{fill:#fec823;}</style></defs><path class="cls-1" d="m31.55,44.62l-7.46,6.77-2.48-2.48c-.6-.6-1.58-.6-2.19,0-.6.6-.6,1.58,0,2.19l3.52,3.52c.3.3.7.45,1.09.45.37,0,.74-.13,1.04-.4l2.87-2.61v4.7h-14.87v-13.52h16.42c.85,0,1.55-.69,1.55-1.55s-.69-1.55-1.55-1.55H11.53c-.85,0-1.55.69-1.55,1.55v16.61c0,.85.69,1.55,1.55,1.55h17.96c.85,0,1.55-.69,1.55-1.55v-9.05l2.58-2.35c.63-.57.68-1.55.11-2.18-.57-.63-1.55-.68-2.18-.11Z"/><path class="cls-1" d="m31.55,74.78l-7.46,6.77-2.48-2.48c-.6-.6-1.58-.6-2.19,0-.6.6-.6,1.58,0,2.19l3.52,3.52c.3.3.7.45,1.09.45.37,0,.74-.13,1.04-.4l2.88-2.61v4.7h-14.87v-13.52h16.42c.85,0,1.55-.69,1.55-1.55s-.69-1.55-1.55-1.55H11.53c-.85,0-1.55.69-1.55,1.55v16.61c0,.85.69,1.55,1.55,1.55h17.96c.85,0,1.55-.69,1.55-1.55v-9.05l2.58-2.34c.63-.57.68-1.55.11-2.18-.57-.63-1.55-.68-2.18-.11Z"/><path class="cls-2" d="m41.41,13.08h20.1c.85,0,1.55-.69,1.55-1.55s-.69-1.55-1.55-1.55h-20.1c-.85,0-1.55.69-1.55,1.55s.69,1.55,1.55,1.55Z"/><path class="cls-1" d="m31.55,14.45l-7.46,6.77-2.48-2.48c-.6-.6-1.58-.6-2.19,0-.6.6-.6,1.58,0,2.19l3.52,3.52c.3.3.7.45,1.09.45.37,0,.74-.13,1.04-.4l2.87-2.61v4.7h-14.87v-13.52h16.42c.85,0,1.55-.69,1.55-1.55s-.69-1.55-1.55-1.55H11.53c-.85,0-1.55.69-1.55,1.55v16.61c0,.85.69,1.55,1.55,1.55h17.96c.85,0,1.55-.69,1.55-1.55v-9.06l2.58-2.35c.63-.57.68-1.55.11-2.18-.57-.63-1.55-.68-2.18-.11Z"/><path class="cls-2" d="m50.94,78.13h7.94c.85,0,1.55-.69,1.55-1.55v-7.93c0-.85-.69-1.55-1.55-1.55h-7.94c-.85,0-1.55.69-1.55,1.55v7.93c0,.85.69,1.55,1.55,1.55Zm1.55-7.93h4.85v4.84h-4.85v-4.84Z"/><path class="cls-2" d="m65.58,91.67h7.93c.85,0,1.55-.69,1.55-1.55v-7.93c0-.85-.69-1.55-1.55-1.55h-7.93c-.85,0-1.55.69-1.55,1.55v7.93c0,.85.69,1.55,1.55,1.55Zm1.55-7.93h4.84v4.84h-4.84v-4.84Z"/><path class="cls-2" d="m50.94,91.67h7.94c.85,0,1.55-.69,1.55-1.55v-7.93c0-.85-.69-1.55-1.55-1.55h-7.94c-.85,0-1.55.69-1.55,1.55v7.93c0,.85.69,1.55,1.55,1.55Zm1.55-7.93h4.85v4.84h-4.85v-4.84Z"/><path class="cls-2" d="m41.41,21.38h20.1c.85,0,1.55-.69,1.55-1.55s-.69-1.55-1.55-1.55h-20.1c-.85,0-1.55.69-1.55,1.55s.69,1.55,1.55,1.55Z"/><path class="cls-1" d="m93.62,48.11h-3.03v-.93c0-1.9-1.54-3.44-3.44-3.44h-2.1c-1.9,0-3.44,1.54-3.44,3.44v.93h-7.87v-.93c0-1.77-1.34-3.22-3.06-3.41V2.04c0-.85-.69-1.55-1.55-1.55H2.05c-.85,0-1.55.69-1.55,1.55v95.91c0,.85.69,1.55,1.55,1.55h91.58c3.24,0,5.88-2.47,5.88-5.5v-40.39c0-3.03-2.64-5.5-5.88-5.5Zm-8.92-.93c0-.19.16-.35.35-.35h2.1c.19,0,.35.16.35.35v6.1c0,.19-.16.35-.35.35h-2.1c-.19,0-.35-.16-.35-.35v-6.1Zm-10.96,6.1v-2.08h7.87v2.08c0,1.9,1.54,3.44,3.44,3.44h2.1c1.9,0,3.44-1.54,3.44-3.44v-2.08h3.03c1.54,0,2.78,1.08,2.78,2.41v5.66h-53.45v-5.66c0-1.33,1.25-2.41,2.78-2.41h2.16v2.08c0,1.9,1.54,3.44,3.44,3.44h2.1c1.9,0,3.44-1.54,3.44-3.44v-2.08h7.87v2.08c0,1.9,1.54,3.44,3.44,3.44h2.1c1.9,0,3.44-1.54,3.44-3.44Zm-22.75,0v-6.1c0-.19.16-.35.35-.35h2.1c.19,0,.35.16.35.35v6.1c0,.19-.16.35-.35.35h-2.1c-.19,0-.35-.16-.35-.35Zm16.86-6.1c0-.19.16-.35.35-.35h2.1c.19,0,.35.16.35.35v6.1c0,.19-.16.35-.35.35h-2.1c-.19,0-.35-.16-.35-.35v-6.1Zm-27.39,49.23H3.59V3.59h64v40.21c-1.61.29-2.83,1.69-2.83,3.38v.93h-7.87v-.93c0-1.9-1.54-3.44-3.44-3.44h-2.1c-1.9,0-3.44,1.54-3.44,3.44v.93h-2.16c-3.24,0-5.88,2.47-5.88,5.5v40.39c0,.86.21,1.68.6,2.41Zm55.95-2.41c0,1.33-1.25,2.41-2.78,2.41h-47.89c-1.51,0-2.78-1.1-2.78-2.41v-31.64h53.45v31.64Z"/><path class="cls-2" d="m65.58,78.13h7.93c.85,0,1.55-.69,1.55-1.55v-7.93c0-.85-.69-1.55-1.55-1.55h-7.93c-.85,0-1.55.69-1.55,1.55v7.93c0,.85.69,1.55,1.55,1.55Zm1.55-7.93h4.84v4.84h-4.84v-4.84Z"/><path class="cls-2" d="m80.49,78.13h7.94c.85,0,1.55-.69,1.55-1.55v-7.93c0-.85-.69-1.55-1.55-1.55h-7.94c-.85,0-1.55.69-1.55,1.55v7.93c0,.85.69,1.55,1.55,1.55Zm1.55-7.93h4.85v4.84h-4.85v-4.84Z"/><path class="cls-2" d="m80.49,91.67h7.94c.85,0,1.55-.69,1.55-1.55v-7.93c0-.85-.69-1.55-1.55-1.55h-7.94c-.85,0-1.55.69-1.55,1.55v7.93c0,.85.69,1.55,1.55,1.55Zm1.55-7.93h4.85v4.84h-4.85v-4.84Z"/></svg>