<?xml version="1.0" encoding="UTF-8"?><svg id="Layer_1" xmlns="http://www.w3.org/2000/svg" viewBox="0 0 100 100"><defs><style>.cls-1{fill:#b72063;}.cls-2{fill:#fec823;}</style></defs><g id="g1694"><path class="cls-1" d="m44.2,16.92h-12.88c-.8,0-1.45-.65-1.45-1.45s.65-1.45,1.45-1.45h12.88c.8,0,1.45.65,1.45,1.45s-.65,1.45-1.45,1.45Z"/></g><g id="g1706"><path class="cls-1" d="m15.19,45.69c-.8,0-1.45-.65-1.45-1.45v-25.69c0-2.5,2.03-4.53,4.53-4.53h1.63c.8,0,1.45.65,1.45,1.45s-.65,1.45-1.45,1.45h-1.63c-.9,0-1.63.73-1.63,1.63v25.69c0,.8-.65,1.45-1.45,1.45Z"/></g><g id="g1710"><path class="cls-1" d="m19.9,86.53h-1.63c-2.5,0-4.53-2.03-4.53-4.53v-26.26c0-.8.65-1.45,1.45-1.45s1.45.65,1.45,1.45v26.26c0,.9.73,1.63,1.63,1.63h1.63c.8,0,1.45.65,1.45,1.45s-.65,1.45-1.45,1.45Z"/></g><g id="g1714"><path class="cls-1" d="m44.2,86.53h-12.88c-.8,0-1.45-.65-1.45-1.45s.65-1.45,1.45-1.45h12.88c.8,0,1.45.65,1.45,1.45s-.65,1.45-1.45,1.45Z"/></g><g id="g1718"><path class="cls-1" d="m68.79,86.53h-13.12c-.8,0-1.45-.65-1.45-1.45s.65-1.45,1.45-1.45h13.12c.8,0,1.45.65,1.45,1.45s-.65,1.45-1.45,1.45Z"/></g><g id="g1722"><path class="cls-1" d="m81.73,86.53h-1.54c-.8,0-1.45-.65-1.45-1.45s.65-1.45,1.45-1.45h1.54c.9,0,1.63-.73,1.63-1.63v-4.83c0-.8.65-1.45,1.45-1.45s1.45.65,1.45,1.45v4.83c0,2.5-2.03,4.53-4.53,4.53Z"/></g><g id="g1726"><path class="cls-1" d="m84.81,71.85c-.8,0-1.45-.65-1.45-1.45v-14.65c0-.8.65-1.45,1.45-1.45s1.45.65,1.45,1.45v14.65c0,.8-.65,1.45-1.45,1.45Z"/></g><g id="g1730"><path class="cls-1" d="m84.81,45.69c-.8,0-1.45-.65-1.45-1.45v-25.69c0-.9-.73-1.63-1.63-1.63h-1.54c-.8,0-1.45-.65-1.45-1.45s.65-1.45,1.45-1.45h1.54c2.5,0,4.53,2.03,4.53,4.53v25.69c0,.8-.65,1.45-1.45,1.45Z"/></g><g id="g1734"><path class="cls-1" d="m68.79,16.92h-13.12c-.8,0-1.45-.65-1.45-1.45s.65-1.45,1.45-1.45h13.12c.8,0,1.45.65,1.45,1.45s-.65,1.45-1.45,1.45Z"/></g><g id="g1738"><path class="cls-1" d="m50,26.42c-2.4,0-4.35-1.95-4.35-4.35s1.95-4.35,4.35-4.35,4.35,1.95,4.35,4.35-1.95,4.35-4.35,4.35Zm0-5.79c-.8,0-1.45.65-1.45,1.45s.65,1.45,1.45,1.45,1.45-.65,1.45-1.45-.65-1.45-1.45-1.45Z"/></g><g id="g1742"><path class="cls-1" d="m50,20.63c-.8,0-1.45-.65-1.45-1.45V1.95c0-.8.65-1.45,1.45-1.45s1.45.65,1.45,1.45v17.23c0,.8-.65,1.45-1.45,1.45Z"/></g><g id="g1746"><path class="cls-1" d="m25.62,26.42c-2.4,0-4.35-1.95-4.35-4.35s1.95-4.35,4.35-4.35,4.35,1.95,4.35,4.35-1.95,4.35-4.35,4.35Zm0-5.79c-.8,0-1.45.65-1.45,1.45s.65,1.45,1.45,1.45,1.45-.65,1.45-1.45-.65-1.45-1.45-1.45Z"/></g><g id="g1750"><path class="cls-1" d="m25.62,20.63c-.8,0-1.45-.65-1.45-1.45V1.95c0-.8.65-1.45,1.45-1.45s1.45.65,1.45,1.45v17.23c0,.8-.65,1.45-1.45,1.45Z"/></g><g id="g1754"><path class="cls-1" d="m74.45,26.42c-2.4,0-4.35-1.95-4.35-4.35s1.95-4.35,4.35-4.35,4.35,1.95,4.35,4.35-1.95,4.35-4.35,4.35Zm0-5.79c-.8,0-1.45.65-1.45,1.45s.65,1.45,1.45,1.45,1.45-.65,1.45-1.45-.65-1.45-1.45-1.45Z"/></g><g id="g1758"><path class="cls-1" d="m74.45,20.63c-.8,0-1.45-.65-1.45-1.45V1.95c0-.8.65-1.45,1.45-1.45s1.45.65,1.45,1.45v17.23c0,.8-.65,1.45-1.45,1.45Z"/></g><g id="g1762"><path class="cls-1" d="m37.66,9.19c-2.4,0-4.35-1.95-4.35-4.35s1.95-4.35,4.35-4.35,4.35,1.95,4.35,4.35-1.95,4.35-4.35,4.35Zm0-5.79c-.8,0-1.45.65-1.45,1.45s.65,1.45,1.45,1.45,1.45-.65,1.45-1.45-.65-1.45-1.45-1.45Z"/></g><g id="g1766"><rect class="cls-1" x="36.21" y="7.74" width="2.9" height="7.72"/></g><g id="g1770"><path class="cls-1" d="m62.22,9.19c-2.4,0-4.35-1.95-4.35-4.35s1.95-4.35,4.35-4.35,4.35,1.95,4.35,4.35-1.95,4.35-4.35,4.35Zm0-5.79c-.8,0-1.45.65-1.45,1.45s.65,1.45,1.45,1.45,1.45-.65,1.45-1.45-.65-1.45-1.45-1.45Z"/></g><g id="g1774"><rect class="cls-1" x="60.77" y="7.74" width="2.9" height="7.72"/></g><g id="g1778"><path class="cls-1" d="m50,82.27c-2.4,0-4.35-1.95-4.35-4.35s1.95-4.35,4.35-4.35,4.35,1.95,4.35,4.35-1.95,4.35-4.35,4.35Zm0-5.79c-.8,0-1.45.65-1.45,1.45s.65,1.45,1.45,1.45,1.45-.65,1.45-1.45-.65-1.45-1.45-1.45Z"/></g><g id="g1782"><path class="cls-1" d="m50,99.5c-.8,0-1.45-.65-1.45-1.45v-17.23c0-.8.65-1.45,1.45-1.45s1.45.65,1.45,1.45v17.23c0,.8-.65,1.45-1.45,1.45Z"/></g><g id="g1786"><path class="cls-1" d="m25.62,82.27c-2.4,0-4.35-1.95-4.35-4.35s1.95-4.35,4.35-4.35,4.35,1.95,4.35,4.35-1.95,4.35-4.35,4.35Zm0-5.79c-.8,0-1.45.65-1.45,1.45s.65,1.45,1.45,1.45,1.45-.65,1.45-1.45-.65-1.45-1.45-1.45Z"/></g><g id="g1790"><path class="cls-1" d="m25.62,99.5c-.8,0-1.45-.65-1.45-1.45v-17.23c0-.8.65-1.45,1.45-1.45s1.45.65,1.45,1.45v17.23c0,.8-.65,1.45-1.45,1.45Z"/></g><g id="g1794"><path class="cls-1" d="m74.45,82.27c-2.4,0-4.35-1.95-4.35-4.35s1.95-4.35,4.35-4.35,4.35,1.95,4.35,4.35-1.95,4.35-4.35,4.35Zm0-5.79c-.8,0-1.45.65-1.45,1.45s.65,1.45,1.45,1.45,1.45-.65,1.45-1.45-.65-1.45-1.45-1.45Z"/></g><g id="g1798"><path class="cls-1" d="m74.45,99.5c-.8,0-1.45-.65-1.45-1.45v-17.23c0-.8.65-1.45,1.45-1.45s1.45.65,1.45,1.45v17.23c0,.8-.65,1.45-1.45,1.45Z"/></g><g id="g1802"><path class="cls-1" d="m37.66,99.5c-2.4,0-4.35-1.95-4.35-4.35s1.95-4.35,4.35-4.35,4.35,1.95,4.35,4.35-1.95,4.35-4.35,4.35Zm0-5.79c-.8,0-1.45.65-1.45,1.45s.65,1.45,1.45,1.45,1.45-.65,1.45-1.45-.65-1.45-1.45-1.45Z"/></g><g id="g1806"><rect class="cls-1" x="36.21" y="84.53" width="2.9" height="7.72"/></g><g id="g1810"><path class="cls-1" d="m62.22,99.5c-2.4,0-4.35-1.95-4.35-4.35s1.95-4.35,4.35-4.35,4.35,1.95,4.35,4.35-1.95,4.35-4.35,4.35Zm0-5.79c-.8,0-1.45.65-1.45,1.45s.65,1.45,1.45,1.45,1.45-.65,1.45-1.45-.65-1.45-1.45-1.45Z"/></g><g id="g1814"><rect class="cls-1" x="60.77" y="84.53" width="2.9" height="7.72"/></g><g id="g1818"><path class="cls-2" d="m64.77,69.91h-29.45c-.8,0-1.45-.65-1.45-1.45,0-.69-.56-1.24-1.25-1.24h-.03c-.4.02-.78-.12-1.07-.39-.29-.27-.45-.66-.45-1.05v-19.79c0-.8.65-1.45,1.45-1.45s1.45.65,1.45,1.45v18.57c1.17.4,2.1,1.31,2.54,2.47h27.07c.42-1.12,1.31-2.01,2.44-2.43v-28.61c-1.12-.42-2.02-1.31-2.44-2.43h-27.07c-.43,1.15-1.37,2.07-2.54,2.47v3.21c0,.8-.65,1.45-1.45,1.45s-1.45-.65-1.45-1.45v-4.44c0-.4.16-.78.45-1.05.29-.27.68-.42,1.07-.4h.02c.69,0,1.25-.56,1.25-1.24,0-.8.65-1.45,1.45-1.45h29.45c.8,0,1.45.65,1.45,1.45,0,.69.56,1.24,1.25,1.24.8,0,1.45.65,1.45,1.45v30.98c0,.8-.65,1.45-1.45,1.45-.69,0-1.25.56-1.25,1.24,0,.8-.65,1.45-1.45,1.45Z"/></g><g id="g1822"><path class="cls-2" d="m50,61.65c-.8,0-1.45-.65-1.45-1.45v-18.39h-5.59v18.39c0,.8-.65,1.45-1.45,1.45s-1.45-.65-1.45-1.45v-19.84c0-.8.65-1.45,1.45-1.45h8.49c.8,0,1.45.65,1.45,1.45v19.84c0,.8-.65,1.45-1.45,1.45Z"/></g><g id="g1826"><path class="cls-2" d="m50,51.73h-8.49c-.8,0-1.45-.65-1.45-1.45s.65-1.45,1.45-1.45h8.49c.8,0,1.45.65,1.45,1.45s-.65,1.45-1.45,1.45Z"/></g><g id="g1830"><path class="cls-2" d="m58.49,61.65c-.8,0-1.45-.65-1.45-1.45v-19.84c0-.8.65-1.45,1.45-1.45s1.45.65,1.45,1.45v19.84c0,.8-.65,1.45-1.45,1.45Z"/></g><g id="g1834"><path class="cls-1" d="m77.92,54.32c-2.4,0-4.35-1.95-4.35-4.35s1.95-4.35,4.35-4.35,4.35,1.95,4.35,4.35-1.95,4.35-4.35,4.35Zm0-5.8c-.8,0-1.45.65-1.45,1.45s.65,1.45,1.45,1.45,1.45-.65,1.45-1.45-.65-1.45-1.45-1.45Z"/></g><g id="g1838"><path class="cls-1" d="m98.05,51.42h-17.23c-.8,0-1.45-.65-1.45-1.45s.65-1.45,1.45-1.45h17.23c.8,0,1.45.65,1.45,1.45s-.65,1.45-1.45,1.45Z"/></g><g id="g1842"><path class="cls-1" d="m95.15,41.98c-2.4,0-4.35-1.95-4.35-4.35s1.95-4.35,4.35-4.35,4.35,1.95,4.35,4.35-1.95,4.35-4.35,4.35Zm0-5.8c-.8,0-1.45.65-1.45,1.45s.65,1.45,1.45,1.45,1.45-.65,1.45-1.45-.65-1.45-1.45-1.45Z"/></g><g id="g1846"><rect class="cls-1" x="84.53" y="36.17" width="7.72" height="2.9"/></g><g id="g1850"><path class="cls-1" d="m95.15,66.54c-2.4,0-4.35-1.95-4.35-4.35s1.95-4.35,4.35-4.35,4.35,1.95,4.35,4.35-1.95,4.35-4.35,4.35Zm0-5.8c-.8,0-1.45.65-1.45,1.45s.65,1.45,1.45,1.45,1.45-.65,1.45-1.45-.65-1.45-1.45-1.45Z"/></g><g id="g1854"><rect class="cls-1" x="84.53" y="60.74" width="7.72" height="2.9"/></g><g id="g1858"><path class="cls-1" d="m22.08,54.32c-2.4,0-4.35-1.95-4.35-4.35s1.95-4.35,4.35-4.35,4.35,1.95,4.35,4.35-1.95,4.35-4.35,4.35Zm0-5.8c-.8,0-1.45.65-1.45,1.45s.65,1.45,1.45,1.45,1.45-.65,1.45-1.45-.65-1.45-1.45-1.45Z"/></g><g id="g1862"><path class="cls-1" d="m19.18,51.42H1.95c-.8,0-1.45-.65-1.45-1.45s.65-1.45,1.45-1.45h17.23c.8,0,1.45.65,1.45,1.45s-.65,1.45-1.45,1.45Z"/></g><g id="g1866"><path class="cls-1" d="m4.85,41.98c-2.4,0-4.35-1.95-4.35-4.35s1.95-4.35,4.35-4.35,4.35,1.95,4.35,4.35-1.95,4.35-4.35,4.35Zm0-5.8c-.8,0-1.45.65-1.45,1.45s.65,1.45,1.45,1.45,1.45-.65,1.45-1.45-.65-1.45-1.45-1.45Z"/></g><g id="g1870"><rect class="cls-1" x="7.74" y="36.17" width="7.72" height="2.9"/></g><g id="g1874"><path class="cls-1" d="m4.85,66.54c-2.4,0-4.35-1.95-4.35-4.35s1.95-4.35,4.35-4.35,4.35,1.95,4.35,4.35-1.95,4.35-4.35,4.35Zm0-5.8c-.8,0-1.45.65-1.45,1.45s.65,1.45,1.45,1.45,1.45-.65,1.45-1.45-.65-1.45-1.45-1.45Z"/></g><g id="g1878"><rect class="cls-1" x="7.74" y="60.74" width="7.72" height="2.9"/></g></svg>