<?xml version="1.0" encoding="UTF-8"?><svg id="Layer_1" xmlns="http://www.w3.org/2000/svg" viewBox="0 0 100 100"><defs><style>.cls-1{fill:#b72063;}.cls-2{fill:#fec823;}</style></defs><path class="cls-2" d="m41.35,22.82c-.39-.99-1.51-1.48-2.51-1.09-5.61,2.21-10.4,6.01-13.84,10.99-3.53,5.09-5.4,11.07-5.4,17.29,0,1.07.87,1.93,1.93,1.93s1.93-.87,1.93-1.93c0-10.97,6.59-20.65,16.79-24.68.99-.39,1.48-1.52,1.09-2.51Z"/><path class="cls-2" d="m62.74,48.09c-1.07,0-1.93.87-1.93,1.93,0,5.97-4.86,10.83-10.83,10.83s-10.83-4.86-10.83-10.83,4.86-10.83,10.83-10.83c1.07,0,1.93-.87,1.93-1.93s-.87-1.93-1.93-1.93c-8.1,0-14.7,6.59-14.7,14.7s6.59,14.7,14.7,14.7,14.7-6.59,14.7-14.7c0-1.07-.87-1.93-1.93-1.93Z"/><path class="cls-2" d="m69.9,48.02c-1.07,0-1.93.87-1.93,1.93v.07c0,1.07.87,1.93,1.93,1.93s1.93-.87,1.93-1.93v-.07c0-1.07-.87-1.93-1.93-1.93Z"/><path class="cls-2" d="m62.08,65.65c-.36-.36-.86-.57-1.37-.57-.51,0-1.01.21-1.37.57-.36.36-.57.86-.57,1.37s.21,1.01.57,1.37c.36.36.86.56,1.37.56s1.01-.2,1.37-.56c.36-.36.57-.86.57-1.37s-.21-1.01-.57-1.37Z"/><path class="cls-2" d="m92.93,70.61c-1.11,0-2.16.28-3.08.77l-5.72-5.72c-.36-.36-.85-.57-1.37-.57h-14.1c-1.07,0-1.93.87-1.93,1.93s.87,1.93,1.93,1.93h13.3l5.16,5.16c-.49.92-.76,1.96-.76,3.07,0,3.63,2.95,6.57,6.57,6.57s6.57-2.95,6.57-6.57c0-3.62-2.95-6.57-6.57-6.57Zm0,9.28c-1.49,0-2.71-1.21-2.71-2.71s1.21-2.71,2.71-2.71,2.71,1.21,2.71,2.71-1.21,2.71-2.71,2.71Z"/><path class="cls-1" d="m92.93,16.25c-3.63,0-6.57,2.95-6.57,6.57,0,1.11.28,2.15.76,3.07l-5.16,5.16h-21.16c-2.69-1.54-5.71-2.51-8.87-2.8v-3.5h20.39c.7,0,1.35-.38,1.69-1l5.88-10.65c.8.34,1.67.54,2.6.54,3.63,0,6.57-2.95,6.57-6.57s-2.95-6.57-6.57-6.57-6.57,2.95-6.57,6.57c0,1.27.36,2.45.99,3.46l-5.72,10.36h-19.25V2.44c0-1.07-.87-1.93-1.93-1.93h-8.67c-1.07,0-1.93.87-1.93,1.93v5.98c-4,1.01-7.8,2.59-11.34,4.7l-4.21-4.21c-.36-.36-.85-.57-1.37-.57s-1,.2-1.37.57l-12.22,12.23c-.75.76-.75,1.98,0,2.73l4.21,4.21c-2.11,3.55-3.69,7.35-4.7,11.34H2.43c-1.07,0-1.93.87-1.93,1.93v17.29c0,1.07.87,1.93,1.93,1.93h5.95c1.01,3.99,2.59,7.8,4.7,11.34l-4.21,4.21c-.75.75-.76,1.98,0,2.73l12.22,12.23c.36.36.85.57,1.37.57h0c.51,0,1-.2,1.37-.57l4.21-4.21c3.55,2.11,7.35,3.69,11.34,4.7v5.97c0,1.07.87,1.93,1.93,1.93h8.67c.51,0,1-.2,1.37-.56.36-.36.57-.85.57-1.37v-18.54h19.24l5.72,10.44c-.63,1.01-.99,2.19-.99,3.46,0,3.63,2.95,6.57,6.57,6.57s6.57-2.95,6.57-6.57-2.95-6.57-6.57-6.57c-.92,0-1.8.19-2.59.53l-5.88-10.72c-.34-.62-.99-1-1.7-1h-20.39v-5.21c0-1.07-.87-1.93-1.93-1.93-9.93,0-18.01-8.08-18.01-18.01s7.89-17.82,17.65-18.01c.11.02.22.03.34.03,7.48,0,14.26,4.71,16.87,11.72.29.78,1.03,1.26,1.81,1.26.22,0,.45-.04.67-.12,1-.37,1.51-1.49,1.14-2.49-1.06-2.84-2.68-5.37-4.71-7.48h17c.51,0,1-.2,1.37-.57l5.72-5.72c.92.49,1.97.77,3.08.77,3.63,0,6.57-2.95,6.57-6.57,0-3.62-2.95-6.57-6.57-6.57Zm-10.44-11.89c1.49,0,2.71,1.21,2.71,2.71s-1.21,2.71-2.71,2.71-2.71-1.21-2.71-2.71,1.21-2.71,2.71-2.71Zm0,85.86c1.49,0,2.71,1.21,2.71,2.71s-1.21,2.71-2.71,2.71-2.71-1.21-2.71-2.71,1.21-2.71,2.71-2.71ZM48.06,28.21c-11.16.98-19.95,10.38-19.95,21.8s8.78,20.81,19.95,21.8v23.83h-4.8v-5.58c0-.91-.64-1.7-1.53-1.89-4.61-.99-8.95-2.79-12.92-5.35-.77-.49-1.77-.39-2.42.26l-3.93,3.93-9.49-9.5,3.93-3.93c.64-.64.75-1.65.26-2.42-2.56-3.96-4.36-8.31-5.35-12.92-.19-.89-.98-1.53-1.89-1.53h-5.55v-13.42h5.55c.91,0,1.7-.64,1.89-1.53.99-4.61,2.79-8.95,5.35-12.92.49-.77.39-1.77-.26-2.42l-3.93-3.93,9.49-9.5,3.93,3.93c.64.64,1.65.75,2.42.26,3.96-2.56,8.31-4.36,12.92-5.35.89-.19,1.53-.98,1.53-1.89v-5.58h4.8v23.84h0Zm44.86-2.68c-1.49,0-2.71-1.21-2.71-2.71s1.21-2.71,2.71-2.71,2.71,1.21,2.71,2.71-1.21,2.71-2.71,2.71Z"/><path class="cls-2" d="m92.93,43.46c-2.95,0-5.46,1.96-6.28,4.64h-5.7c-1.07,0-1.93.87-1.93,1.93s.87,1.93,1.93,1.93h5.7c.83,2.68,3.33,4.64,6.28,4.64,3.63,0,6.57-2.95,6.57-6.57,0-3.63-2.95-6.57-6.57-6.57Zm0,9.28c-1.49,0-2.71-1.21-2.71-2.71s1.21-2.71,2.71-2.71,2.71,1.21,2.71,2.71-1.21,2.71-2.71,2.71Z"/></svg>