<?xml version="1.0" encoding="UTF-8"?><svg id="Layer_1" xmlns="http://www.w3.org/2000/svg" viewBox="0 0 100 100"><defs><style>.cls-1{fill:#b72063;}.cls-2{fill:#fec823;}</style></defs><path class="cls-1" d="m40.07,9.39h7.86c.85,0,1.55-.69,1.55-1.55s-.69-1.55-1.55-1.55h-7.86c-.85,0-1.55.69-1.55,1.55s.69,1.55,1.55,1.55Z"/><path class="cls-1" d="m33.05,92.67h14.02c.85,0,1.55-.69,1.55-1.55s-.69-1.55-1.55-1.55h-14.02c-.85,0-1.55.69-1.55,1.55s.69,1.55,1.55,1.55h0Z"/><path class="cls-1" d="m13.11,77.28c.85,0,1.55-.69,1.55-1.55V15.2h50.81v7.96c0,.85.69,1.55,1.55,1.55s1.55-.69,1.55-1.55c0-1.86,0,5.71,0-16.5,0-3.39-2.77-6.16-6.17-6.16H17.73c-3.23,0-6.16,2.66-6.16,6.16v69.07c0,.85.69,1.55,1.55,1.55ZM62.4,3.59c1.63,0,3.07,1.34,3.07,3.07v5.44H14.66v-5.45c0-1.69,1.38-3.06,3.07-3.06h44.67Z"/><path class="cls-2" d="m49.61,39.48c.6.6,1.58.6,2.19-.01l6.46-6.53c.6-.6.6-1.57,0-2.18l-6.46-6.53c-.6-.61-1.58-.61-2.19-.01-.61.6-.61,1.58-.01,2.19l5.39,5.44-5.39,5.44c-.6.61-.6,1.59.01,2.19h0Z"/><path class="cls-2" d="m30.52,24.23c-.61-.6-1.59-.6-2.19.01l-6.46,6.53c-.6.6-.6,1.57,0,2.18l6.46,6.53c.6.61,1.58.61,2.19.01.61-.6.61-1.58.01-2.19l-5.39-5.44,5.39-5.44c.6-.61.6-1.59-.01-2.19h0Z"/><path class="cls-2" d="m42.56,19.86l-9.08,22.85c-.32.79.07,1.69.87,2.01.79.32,1.69-.07,2.01-.87l9.08-22.85c.32-.79-.07-1.69-.87-2.01-.8-.32-1.69.07-2.01.87h0Z"/><path class="cls-2" d="m67.02,48.51c-4.53,0-8.21,3.68-8.21,8.21s3.73,8.21,8.21,8.21,8.2-3.63,8.2-8.21-3.68-8.21-8.2-8.21Zm1.55,13.09v-5.89c0-.85-.7-1.55-1.55-1.55s-1.55.7-1.55,1.55v5.91c-2.07-.65-3.57-2.6-3.57-4.89,0-2.82,2.29-5.12,5.12-5.12s5.1,2.3,5.1,5.12c0,2.29-1.5,4.22-3.56,4.87Z"/><path class="cls-1" d="m87.06,51.84l-3.81-.43c-.29-.9-.67-1.78-1.11-2.63l2.23-3.16c.45-.6.37-1.45-.15-1.98l-4.44-4.42c-.56-.56-1.44-.62-2.06-.12l-2.99,2.4c-.85-.43-1.73-.79-2.65-1.07l-.63-3.82c-.12-.74-.77-1.28-1.53-1.28h-6.26c-.79,0-1.45.59-1.55,1.38l-.42,3.82c-.91.29-1.78.67-2.61,1.1l-3.17-2.24c-.62-.43-1.45-.37-1.98.17l-4.42,4.42c-.56.56-.6,1.44-.11,2.06l2.38,3c-.43.85-.79,1.73-1.07,2.65l-3.81.63c-.74.14-1.3.77-1.3,1.53v6.26c0,.79.6,1.44,1.38,1.53l3.81.43c.29.91.68,1.79,1.11,2.63l-2.23,3.14c-.43.62-.37,1.45.17,2l4.42,4.42c.56.56,1.44.6,2.06.11l3-2.38c.85.42,1.72.77,2.63,1.05l.63,3.82c.12.76.77,1.3,1.53,1.3h1.36v3.42H13.12c-.85,0-1.55.7-1.55,1.55,0,.24,0,10.61,0,10.22,0,3.39,2.77,6.16,6.16,6.16h44.67c3.4,0,6.17-2.77,6.17-6.16,0-.76,0-15.94,0-15.19h1.81c.79,0,1.45-.59,1.55-1.38l.43-3.82c.9-.29,1.78-.67,2.61-1.1l3.16,2.24c.62.43,1.45.36,2-.17l4.41-4.44c.56-.56.6-1.44.11-2.04l-2.38-3c.43-.87.79-1.75,1.07-2.65l3.81-.65c.74-.12,1.3-.77,1.3-1.52v-6.26c0-.79-.59-1.45-1.38-1.53h0Zm-21.58,41.5c0,1.69-1.38,3.06-3.08,3.06H17.73c-1.69,0-3.06-1.38-3.06-3.06,0-.33,0-8.84,0-8.68h50.81v8.68h0Zm19.86-35.02l-3.5.59c-.62.11-1.1.56-1.25,1.18-.31,1.3-.82,2.55-1.5,3.74-.32.54-.28,1.24.12,1.73l2.15,2.72-2.51,2.54-2.91-2.07c-.5-.36-1.18-.37-1.7-.05-1.13.7-2.37,1.22-3.68,1.55-.63.15-1.1.7-1.18,1.33l-.39,3.48h-3.59l-.59-3.51c-.09-.6-.56-1.1-1.16-1.24-1.3-.32-2.55-.84-3.71-1.52-.56-.32-1.25-.28-1.75.12l-2.74,2.17-2.52-2.52,2.04-2.86c.33-.47.39-1.15.06-1.73-.7-1.13-1.24-2.38-1.58-3.71-.15-.62-.68-1.08-1.31-1.14l-3.47-.4v-3.56l3.5-.59c.62-.11,1.11-.57,1.25-1.18.31-1.31.82-2.57,1.52-3.71.32-.56.29-1.25-.11-1.76l-2.18-2.74,2.52-2.52,2.89,2.06c.5.36,1.18.39,1.7.06,1.13-.7,2.38-1.22,3.71-1.56.62-.15,1.07-.68,1.14-1.31l.39-3.48h3.59l.59,3.5c.11.62.56,1.11,1.16,1.25,1.31.31,2.57.82,3.73,1.52.56.32,1.25.28,1.75-.12l2.72-2.18,2.52,2.54-2.04,2.88c-.32.46-.39,1.13-.06,1.72.71,1.16,1.24,2.41,1.56,3.7.15.62.68,1.08,1.33,1.16l3.46.39v3.57h0Z"/></svg>