<?xml version="1.0" encoding="UTF-8"?><svg id="Layer_1" xmlns="http://www.w3.org/2000/svg" viewBox="0 0 100 100"><defs><style>.cls-1{fill:#b72063;}.cls-2{fill:#fec823;}</style></defs><path class="cls-2" d="m63.01,10.26c-.42-1.28-1.49-2.21-2.79-2.43l-4.77-.83-2.24-4.5h0c-.62-1.23-1.84-2-3.2-2s-2.58.77-3.2,2l-2.24,4.5-4.77.83c-1.3.22-2.37,1.16-2.8,2.43-.44,1.31-.12,2.74.82,3.73l3.43,3.63-.73,5.06c-.2,1.39.38,2.75,1.5,3.55.61.43,1.32.65,2.04.65.56,0,1.12-.13,1.63-.4l4.31-2.25,4.31,2.25c1.18.62,2.59.52,3.67-.25,1.13-.8,1.71-2.16,1.5-3.55l-.73-5.06,3.43-3.63c.94-.99,1.25-2.42.82-3.73h0Zm-3.21,1.47l-3.98,4.21c-.35.37-.51.87-.43,1.37l.84,5.85c.03.23-.09.35-.15.39-.12.08-.19.04-.24.02l-5.07-2.64c-.48-.25-1.05-.25-1.52,0l-5.07,2.64s-.13.06-.24-.02c-.05-.04-.18-.16-.15-.39l.84-5.85c.07-.5-.09-1-.43-1.37l-3.98-4.21c-.15-.16-.11-.35-.08-.43.04-.13.12-.2.23-.22l5.6-.97c.52-.09.96-.42,1.2-.89l2.61-5.25s.09-.17.24-.17.22.13.24.17l2.61,5.25c.24.47.68.8,1.2.89l5.6.97c.11.02.18.09.23.22.03.07.07.27-.08.43Z"/><path class="cls-2" d="m33.31,23.46c-.42-1.28-1.49-2.21-2.79-2.43l-4.77-.83-2.24-4.5h0c-.62-1.23-1.84-2-3.2-2s-2.58.77-3.2,2l-2.24,4.5-4.77.83c-1.3.22-2.37,1.16-2.8,2.43-.44,1.31-.12,2.74.82,3.73l3.43,3.63-.73,5.06c-.2,1.39.38,2.75,1.5,3.55.61.43,1.32.65,2.04.65.56,0,1.12-.13,1.63-.4l4.31-2.25,4.31,2.25c1.18.62,2.59.52,3.67-.25,1.13-.8,1.71-2.16,1.5-3.55l-.73-5.06,3.43-3.63c.94-.99,1.25-2.42.82-3.73h0Zm-3.21,1.47l-3.98,4.21c-.35.37-.51.87-.43,1.37l.84,5.85c.03.23-.09.35-.15.39-.12.08-.19.04-.24.02l-5.07-2.64c-.48-.25-1.05-.25-1.52,0l-5.07,2.64s-.12.06-.24-.02c-.05-.04-.18-.16-.15-.39l.84-5.85c.07-.5-.09-1-.43-1.37l-3.98-4.21c-.15-.16-.11-.35-.08-.43.04-.13.12-.2.23-.22l5.6-.97c.52-.09.96-.42,1.2-.89l2.61-5.25s.09-.17.24-.17.22.13.24.17l2.61,5.25c.24.47.68.8,1.2.89l5.6.97c.11.02.18.09.23.22.03.07.07.27-.08.43h0Z"/><path class="cls-2" d="m92.71,23.46c-.42-1.28-1.49-2.21-2.79-2.43l-4.77-.83-2.24-4.5h0c-.62-1.23-1.84-2-3.2-2s-2.58.77-3.2,2l-2.24,4.5-4.77.83c-1.3.22-2.37,1.16-2.8,2.43-.44,1.31-.12,2.74.82,3.73l3.43,3.63-.73,5.06c-.2,1.39.38,2.75,1.5,3.55.61.43,1.32.65,2.04.65.56,0,1.12-.13,1.63-.4l4.31-2.25,4.31,2.25c1.18.62,2.59.52,3.67-.25,1.13-.8,1.71-2.16,1.5-3.55l-.73-5.06,3.43-3.63c.94-.99,1.25-2.42.82-3.73h0Zm-3.21,1.47l-3.98,4.21c-.35.37-.51.87-.43,1.37l.84,5.85c.03.23-.09.35-.15.39-.12.08-.19.04-.24.02l-5.07-2.64c-.48-.25-1.05-.25-1.52,0l-5.07,2.64s-.13.06-.24-.02c-.05-.04-.18-.16-.15-.39l.84-5.85c.07-.5-.09-1-.43-1.37l-3.98-4.21c-.15-.16-.11-.35-.08-.43.04-.13.12-.2.23-.22l5.6-.97c.52-.09.96-.42,1.2-.89l2.61-5.25s.09-.17.24-.17.22.13.24.17l2.61,5.25c.24.47.68.8,1.2.89l5.6.97c.11.02.18.09.23.22.03.07.07.27-.08.43h0Z"/><path class="cls-1" d="m50,40.1C22.71,40.1.5,62.31.5,89.6c0,1.82,1.48,3.3,3.3,3.3h19.8c1.82,0,3.3-1.48,3.3-3.3,0-12.74,10.36-23.1,23.1-23.1,7.81,0,15.03,3.95,19.29,10.43-7.36,2.6-13.06,4.7-17.27,6.35-.65-.17-1.32-.28-2.02-.28-4.55,0-8.25,3.7-8.25,8.25s3.7,8.25,8.25,8.25c3.25,0,6.04-1.9,7.38-4.64,4.31-2.35,9.85-5.54,15.41-8.8.18,1.17.3,2.35.3,3.54,0,1.82,1.48,3.3,3.3,3.3h19.8c1.82,0,3.3-1.48,3.3-3.3,0-27.29-22.21-49.5-49.5-49.5Zm17.45,29.71c-4.35-3.84-9.88-6.19-15.8-6.56v-19.81c11.49.41,21.93,5.03,29.81,12.37l-14.01,14.01Zm-43.85,19.79H3.8c0-12.15,4.72-23.2,12.41-31.46l14.02,14.02c-4.11,4.66-6.63,10.75-6.63,17.44h0Zm8.96-19.77l-14.02-14.02c7.88-7.34,18.31-11.96,29.81-12.37v19.84c-6.04.38-11.52,2.78-15.79,6.55h0Zm52.51,5.1c-7.92,4.74-18.89,11.26-26.88,15.71-.15-2.06-1.03-3.91-2.42-5.28,6.64-2.53,16.28-5.97,29.3-10.44Zm-35.07,21.27c-2.73,0-4.95-2.22-4.95-4.95s2.22-4.95,4.95-4.95,4.95,2.22,4.95,4.95-2.22,4.95-4.95,4.95Zm26.4-6.6c0-1.81-.19-3.59-.55-5.34,3.88-2.29,7.66-4.55,10.93-6.5,1.48-.9,2.03-2.68,1.3-4.24-.72-1.55-2.42-2.28-4.06-1.71-4.19,1.44-8.02,2.77-11.53,4-.8-1.31-1.71-2.52-2.7-3.65l14.01-14.01c7.69,8.25,12.41,19.31,12.41,31.46h-19.8,0Z"/></svg>