<?xml version="1.0" encoding="UTF-8"?><svg id="Layer_1" xmlns="http://www.w3.org/2000/svg" viewBox="0 0 100 100"><defs><style>.cls-1{fill:#b72063;}.cls-2{fill:#fec823;}</style></defs><path class="cls-1" d="m61.35,65.63l-7.77-6.13c-2.18-1.71-5.26-1.7-7.43.03-2.92,2.44-6.65,3.71-10.45,3.57-1,.04-2-.02-2.98-.18-2.7-.51-5.23-1.67-7.39-3.38-2.17-1.73-5.25-1.75-7.44-.04-13.76,10.54-11.92,8.81-12,25.79,0,4.78,3.06,9.03,7.6,10.52,7.18,2.38,14.68,3.63,22.24,3.68,7.56-.06,15.07-1.3,22.24-3.68,4.54-1.5,7.61-5.74,7.6-10.52v-10.96c.02-3.4-1.54-6.61-4.22-8.7h0Zm.69,19.66c0,3.26-2.08,6.14-5.17,7.16-6.82,2.27-13.95,3.45-21.13,3.5-7.18-.06-14.31-1.24-21.13-3.5-3.09-1.02-5.18-3.91-5.18-7.16v-10.96c-.01-2.31,1.05-4.5,2.88-5.92l7.77-6.13c.9-.7,2.17-.68,3.06.04,7.4,5.8,17.8,5.8,25.2,0,.89-.72,2.15-.73,3.06-.04l7.78,6.13c1.82,1.42,2.88,3.61,2.87,5.92v10.96Z"/><path class="cls-2" d="m61.69,35.94c16.09,1.93,20.88-14.96,17.38-26.99-1.23-4.69-5.3-8.08-10.13-8.44h-9.41c-10.76.87-12.17,14.06-10.44,22.38,1.16,6.5,6.14,11.66,12.59,13.05Zm-8.71-26.11c.8-3.15,3.48-5.46,6.71-5.79h9.1c8.17,1.07,8.4,10.28,7.28,18.14-.88,5.1-4.75,9.17-9.81,10.29-12.54,1.54-16.27-12.48-13.28-22.64Z"/><path class="cls-1" d="m89.93,40.68l-7.77-6.13c-2.18-1.71-5.26-1.7-7.43.03-6.11,4.8-14.71,4.8-20.82,0-1.03-.8-2.3-1.25-3.6-1.27-1.4-4.4-5.33-7.52-9.94-7.87h-9.41c-10.75.87-12.18,14.06-10.44,22.38,1.61,7.57,7.62,13.32,15.15,13.19,12.69.07,17.51-13.39,15.47-23.99,7.46,6.1,18.15,6.24,25.77.33.89-.72,2.15-.73,3.06-.04l7.78,6.13c1.82,1.42,2.88,3.61,2.87,5.92v10.96c0,3.26-2.08,6.15-5.18,7.17-.92.32-1.41,1.33-1.09,2.25.31.9,1.29,1.39,2.2,1.11,4.54-1.5,7.61-5.74,7.6-10.52v-10.96c.01-3.4-1.55-6.61-4.22-8.7h0Zm-42.44,6.44c-2.9,13.81-20.61,13.82-23.51,0-1.12-6.16-1.13-17.23,7.13-18.14h9.1c8.17,1.07,8.4,10.28,7.28,18.14h0Z"/><path class="cls-2" d="m80.09,60.02h-6.07v-6.07c-.02-.98-.83-1.75-1.8-1.73-.95.02-1.71.78-1.73,1.73v6.07h-6.07c-.98,0-1.77.79-1.77,1.77s.79,1.77,1.77,1.77h6.07v6.07c0,.98.79,1.77,1.77,1.77s1.77-.79,1.77-1.77v-6.07h6.07c.98-.02,1.75-.83,1.73-1.8-.02-.95-.78-1.71-1.73-1.73h0Z"/></svg>