<?xml version="1.0" encoding="UTF-8"?><svg id="Layer_1" xmlns="http://www.w3.org/2000/svg" viewBox="0 0 100 100"><defs><style>.cls-1{fill:#b72063;}.cls-2{fill:#fec823;}</style></defs><path class="cls-1" d="m90.5,32.49H2.45c-1.08,0-1.95-.87-1.95-1.95s.87-1.95,1.95-1.95h88.05c1.08,0,1.95.87,1.95,1.95s-.87,1.95-1.95,1.95Z"/><path class="cls-2" d="m18.59,24.27c-3.61,0-6.54-2.93-6.54-6.54s2.93-6.54,6.54-6.54,6.55,2.93,6.55,6.54-2.94,6.54-6.55,6.54Zm0-9.18c-1.46,0-2.64,1.18-2.64,2.64s1.18,2.64,2.64,2.64,2.65-1.18,2.65-2.64-1.19-2.64-2.65-2.64Z"/><path class="cls-2" d="m75.79,24.26h-17.29c-3.61,0-6.54-2.93-6.54-6.54s2.93-6.54,6.54-6.54h17.29c3.61,0,6.54,2.93,6.54,6.54s-2.93,6.54-6.54,6.54Zm-17.29-9.18c-1.46,0-2.64,1.18-2.64,2.64s1.18,2.64,2.64,2.64h17.29c1.46,0,2.64-1.18,2.64-2.64s-1.19-2.64-2.64-2.64h-17.29Z"/><path class="cls-2" d="m35.54,24.27c-3.61,0-6.54-2.93-6.54-6.54s2.93-6.54,6.54-6.54,6.55,2.93,6.55,6.54-2.94,6.54-6.55,6.54Zm0-9.18c-1.46,0-2.64,1.18-2.64,2.64s1.19,2.64,2.64,2.64,2.65-1.18,2.65-2.64-1.19-2.64-2.65-2.64Z"/><path class="cls-2" d="m28.04,63.55c-.15,0-.3-.02-.45-.05-1.05-.25-1.69-1.3-1.44-2.35l3.87-16.19c.25-1.05,1.3-1.69,2.35-1.44,1.05.25,1.69,1.3,1.44,2.35l-3.87,16.19c-.21.9-1.01,1.5-1.89,1.5Z"/><path class="cls-2" d="m40.82,62.08c-.46,0-.92-.16-1.3-.49-.8-.72-.88-1.95-.16-2.75l4.75-5.33-4.75-5.33c-.72-.8-.65-2.04.16-2.75.8-.72,2.04-.65,2.75.16l5.47,6.14c.9,1,.9,2.57,0,3.57l-5.47,6.14c-.39.43-.92.65-1.46.65Zm4.02-7.77s0,0,0,0h0Zm0-1.63s0,0,0,0h0Z"/><path class="cls-2" d="m19.13,62.08c-.54,0-1.07-.22-1.46-.65l-5.47-6.14c-.9-1-.9-2.57,0-3.58l5.47-6.14c.72-.8,1.95-.88,2.75-.16.8.72.88,1.95.16,2.75l-4.75,5.33,4.75,5.33c.72.8.65,2.04-.16,2.75-.37.33-.83.49-1.3.49Zm-4.01-7.78h0s0,0,0,0Zm-.01-1.62h0s0,0,0,0Z"/><path class="cls-1" d="m76.36,97.18h-3.53c-2.41,0-4.37-1.96-4.37-4.37v-.75c-1.21-.37-2.39-.86-3.52-1.46l-.52.52c-.82.82-1.92,1.28-3.09,1.28h0c-1.17,0-2.26-.46-3.08-1.28l-2.49-2.49c-1.7-1.7-1.7-4.47,0-6.17l.53-.52c-.59-1.12-1.08-2.3-1.46-3.51h-.75c-2.41,0-4.37-1.96-4.37-4.36v-3.53c0-2.41,1.96-4.36,4.37-4.36h.74c.37-1.2.85-2.37,1.44-3.48l-.54-.54c-.82-.81-1.27-1.91-1.28-3.08,0-1.17.45-2.27,1.28-3.1l2.49-2.49c.82-.82,1.92-1.28,3.09-1.28h0c1.17,0,2.26.46,3.08,1.28l.51.5c1.12-.6,2.3-1.09,3.52-1.47v-.74c0-2.41,1.96-4.37,4.37-4.37h3.53c2.41,0,4.37,1.96,4.37,4.37v.69c1.24.38,2.45.88,3.6,1.49l.53-.52c.81-.82,1.91-1.27,3.08-1.27h0c1.17,0,2.27.45,3.09,1.28l2.49,2.49c.83.83,1.28,1.93,1.28,3.1,0,1.17-.46,2.26-1.28,3.08l-.52.52c.6,1.13,1.09,2.32,1.47,3.55h.72c2.41,0,4.37,1.96,4.37,4.36v3.53c0,2.41-1.96,4.36-4.37,4.36h-.74c-.38,1.21-.86,2.39-1.46,3.51l.52.52c.83.83,1.28,1.93,1.28,3.1,0,1.17-.46,2.26-1.28,3.08l-2.49,2.49c-.83.83-1.92,1.28-3.09,1.28h0c-1.17,0-2.26-.46-3.08-1.28l-.52-.52c-1.13.6-2.31,1.09-3.54,1.47v.75c0,2.41-1.96,4.37-4.37,4.37Zm-11.75-10.97c.36,0,.71.1,1.03.3,1.62,1.01,3.37,1.74,5.19,2.15.89.2,1.52.99,1.52,1.9v2.25c0,.25.22.47.47.47h3.53c.25,0,.47-.22.47-.47v-2.25c0-.91.63-1.7,1.52-1.9,1.85-.42,3.6-1.15,5.2-2.15.77-.48,1.77-.37,2.41.27l1.58,1.58c.11.11.24.14.33.14h0c.07,0,.22-.02.33-.14l2.49-2.5c.11-.11.14-.24.14-.33,0-.07-.02-.21-.14-.33l-1.58-1.58c-.64-.64-.76-1.65-.27-2.42,1.01-1.6,1.73-3.34,2.15-5.18.2-.89.99-1.51,1.9-1.51h2.23c.25,0,.47-.22.47-.46v-3.53c0-.25-.22-.47-.47-.47h-2.22c-.91,0-1.7-.63-1.9-1.52-.42-1.86-1.15-3.61-2.16-5.21-.49-.77-.37-1.77.27-2.42l1.58-1.58c.11-.11.14-.24.14-.33,0-.07-.02-.21-.14-.33l-2.49-2.49c-.12-.12-.26-.14-.33-.14h0c-.09,0-.22.02-.32.13l-1.59,1.58c-.64.64-1.64.75-2.41.27-1.64-1.03-3.41-1.76-5.26-2.17-.89-.2-1.53-.99-1.53-1.9v-2.2c0-.26-.22-.47-.47-.47h-3.53c-.25,0-.47.22-.47.47v2.23c0,.91-.62,1.69-1.51,1.9-1.85.43-3.59,1.16-5.19,2.17-.77.49-1.77.38-2.42-.27l-1.57-1.57c-.11-.11-.24-.14-.33-.14h0c-.07,0-.22.02-.33.14l-2.49,2.49c-.12.12-.14.26-.14.33,0,.09.02.22.13.32l1.6,1.6c.64.64.75,1.64.27,2.41-.99,1.59-1.71,3.33-2.13,5.16-.2.89-.99,1.52-1.9,1.52h-2.24c-.25,0-.47.21-.47.47v3.53c0,.25.21.46.47.46h2.24c.91,0,1.7.63,1.9,1.51.42,1.84,1.15,3.58,2.15,5.18.49.77.37,1.78-.27,2.42l-1.58,1.58c-.17.17-.17.48,0,.66l2.5,2.5c.11.11.24.14.33.14h0c.07,0,.22-.02.33-.14l1.58-1.58c.38-.38.88-.57,1.38-.57Z"/><path class="cls-1" d="m74.59,84.19c-6.57,0-11.92-5.34-11.92-11.91s5.35-11.91,11.92-11.91,11.91,5.34,11.91,11.91-5.34,11.91-11.91,11.91Zm0-19.92c-4.42,0-8.02,3.59-8.02,8.01s3.6,8.01,8.02,8.01,8.01-3.59,8.01-8.01-3.59-8.01-8.01-8.01Z"/><path class="cls-1" d="m54.05,78.41h-15.69c-1.08,0-1.95-.87-1.95-1.95s.87-1.95,1.95-1.95h15.69c1.08,0,1.95.87,1.95,1.95s-.87,1.95-1.95,1.95Zm-32.96,0h-11.44c-5.04,0-9.15-4.73-9.15-10.55V13.37C.5,7.55,4.6,2.82,9.65,2.82h73.65c5.04,0,9.15,4.73,9.15,10.55v42.34c0,1.08-.87,1.95-1.95,1.95s-1.95-.87-1.95-1.95V13.37c0-3.6-2.4-6.65-5.25-6.65H9.65c-2.85,0-5.25,3.04-5.25,6.65v54.5c0,3.6,2.4,6.65,5.25,6.65h11.44c1.08,0,1.95.87,1.95,1.95s-.87,1.95-1.95,1.95Z"/><path class="cls-1" d="m29.79,78.41h-.04c-1.08,0-1.95-.87-1.95-1.95s.87-1.95,1.95-1.95h.04c1.08,0,1.95.87,1.95,1.95s-.87,1.95-1.95,1.95Z"/></svg>