<?xml version="1.0" encoding="UTF-8"?><svg id="Layer_1" xmlns="http://www.w3.org/2000/svg" viewBox="0 0 100 100"><defs><style>.cls-1{fill:#b72063;}.cls-2{fill:#fec823;}</style></defs><path class="cls-1" d="m97.85,13.7h-37.95v-6.6h15.15c.91,2.58,3.74,3.93,6.32,3.02,2.58-.91,3.93-3.74,3.02-6.32-.91-2.58-3.74-3.93-6.32-3.02-1.41.5-2.52,1.61-3.02,3.02h-16.8c-.91,0-1.65.74-1.65,1.65v8.25h-13.2V5.45c0-.91-.74-1.65-1.65-1.65h-16.8c-.91-2.58-3.74-3.93-6.32-3.02-2.58.91-3.93,3.74-3.02,6.32.91,2.58,3.74,3.93,6.32,3.02,1.41-.5,2.52-1.61,3.02-3.02h15.15v6.6H2.15c-.91,0-1.65.74-1.65,1.65v62.7c0,.91.74,1.65,1.65,1.65h36.3v9.9h-16.5c-.91,0-1.65.74-1.65,1.65v6.6c0,.91.74,1.65,1.65,1.65h56.1c.91,0,1.65-.74,1.65-1.65v-6.6c0-.91-.74-1.65-1.65-1.65h-16.5v-9.9h36.3c.91,0,1.65-.74,1.65-1.65V15.35c0-.91-.74-1.65-1.65-1.65Zm-18.15-9.9c.91,0,1.65.74,1.65,1.65s-.74,1.65-1.65,1.65-1.65-.74-1.65-1.65.74-1.65,1.65-1.65Zm-59.4,3.3c-.91,0-1.65-.74-1.65-1.65s.74-1.65,1.65-1.65,1.65.74,1.65,1.65-.74,1.65-1.65,1.65Zm36.3,9.9v16.1l-1.45,1.44-.2-.08v-2.61c0-.91-.74-1.65-1.65-1.65h-6.6c-.91,0-1.65.74-1.65,1.65v2.61l-.2.08-1.45-1.44v-16.1h13.2Zm2.11,25c.32.6.58,1.23.78,1.88.22.72.9,1.2,1.65,1.17h2.06v3.3h-2.13c-.75-.03-1.43.45-1.65,1.17-.19.65-.45,1.28-.78,1.88-.3.64-.17,1.41.35,1.9l1.5,1.5-2.24,2.39-1.65-1.5c-.52-.52-1.32-.63-1.96-.28-.6.32-1.23.58-1.88.78-.72.22-1.2.9-1.17,1.65v2.06h-3.23v-2.13c.03-.75-.45-1.43-1.17-1.65-.65-.19-1.28-.45-1.88-.78-.64-.35-1.44-.24-1.96.28l-1.5,1.5-2.33-2.18,1.5-1.5c.52-.52.63-1.32.28-1.96-.32-.6-.58-1.23-.78-1.88-.22-.72-.9-1.2-1.65-1.17h-2.06v-3.38h2.13c.75.03,1.43-.45,1.65-1.17.19-.65.45-1.28.78-1.88.3-.64.17-1.41-.35-1.9l-1.5-1.5,2.33-2.33,1.5,1.5c.52.52,1.32.63,1.96.28.6-.32,1.23-.58,1.88-.78.72-.22,1.2-.9,1.17-1.65v-2.13h3.3v2.13c-.03.75.45,1.43,1.17,1.65.65.19,1.28.45,1.88.78.64.3,1.41.17,1.9-.35l1.5-1.5,2.33,2.33-1.5,1.5c-.5.53-.59,1.33-.21,1.96Zm-18.61-25v16.27l-4.11,4.09c-.65.64-.65,1.69,0,2.33,0,0,0,0,0,0l1.85,1.85c-.02.07-.05.14-.08.2h-2.61c-.91,0-1.65.74-1.65,1.65v1.65h-16.8c-.91-2.58-3.74-3.93-6.32-3.02-2.58.91-3.93,3.74-3.02,6.32s3.74,3.93,6.32,3.02c1.41-.5,2.52-1.61,3.02-3.02h16.8v1.65c0,.91.74,1.65,1.65,1.65h2.61c.03.06.06.13.08.2l-1.85,1.85c-.31.31-.48.73-.48,1.17,0,.44.18.86.48,1.17l4.67,4.67c.64.65,1.69.65,2.33,0,0,0,0,0,0,0l1.85-1.85.2.08v2.61c0,.91.74,1.65,1.65,1.65h6.6c.91,0,1.65-.74,1.65-1.65v-2.61l.2-.08,1.85,1.85c.64.65,1.69.65,2.33,0,0,0,0,0,0,0l4.67-4.67c.3-.32.47-.73.48-1.17,0-.44-.17-.86-.48-1.17l-1.85-1.85c.02-.07.05-.14.08-.2h2.61c.91,0,1.65-.74,1.65-1.65v-1.65h16.8c.91,2.58,3.74,3.93,6.32,3.02,2.58-.91,3.93-3.74,3.02-6.32-.91-2.58-3.74-3.93-6.32-3.02-1.41.5-2.52,1.61-3.02,3.02h-16.8v-1.65c0-.91-.74-1.65-1.65-1.65h-2.61c-.03-.06-.06-.13-.08-.2l1.85-1.85c.65-.64.65-1.69,0-2.33,0,0,0,0,0,0l-4.11-4.09v-16.27h36.3v52.8H3.8V17h36.3Zm-26.4,29.7c0,.91-.74,1.65-1.65,1.65s-1.65-.74-1.65-1.65.74-1.65,1.65-1.65,1.65.74,1.65,1.65Zm72.6,0c0-.91.74-1.65,1.65-1.65s1.65.74,1.65,1.65-.74,1.65-1.65,1.65-1.65-.74-1.65-1.65Zm-9.9,49.5H23.6v-3.3h52.8v3.3Zm-18.15-6.6h-16.5v-9.9h16.5v9.9ZM3.8,76.4v-3.3h92.4v3.3H3.8Z"/><path class="cls-2" d="m50,40.1c-3.65,0-6.6,2.95-6.6,6.6s2.95,6.6,6.6,6.6,6.6-2.95,6.6-6.6-2.95-6.6-6.6-6.6Zm0,9.9c-1.82,0-3.3-1.48-3.3-3.3s1.48-3.3,3.3-3.3,3.3,1.48,3.3,3.3-1.48,3.3-3.3,3.3Z"/><path class="cls-2" d="m8.75,23.6h8.25v13.2c0,.91.74,1.65,1.65,1.65h9.9c.91,0,1.65-.74,1.65-1.65s-.74-1.65-1.65-1.65h-8.25v-13.2c0-.91-.74-1.65-1.65-1.65h-9.9c-.91,0-1.65.74-1.65,1.65s.74,1.65,1.65,1.65Z"/><path class="cls-2" d="m91.25,20.3h-9.9c-.91,0-1.65.74-1.65,1.65v13.2h-8.25c-.91,0-1.65.74-1.65,1.65s.74,1.65,1.65,1.65h9.9c.91,0,1.65-.74,1.65-1.65v-13.2h8.25c.91,0,1.65-.74,1.65-1.65s-.74-1.65-1.65-1.65Z"/></svg>