<?xml version="1.0" encoding="UTF-8"?><svg id="Layer_2" xmlns="http://www.w3.org/2000/svg" viewBox="0 0 121.95 109.74"><defs><style>.cls-1{fill:#febe10;}.cls-2{fill:#b41f5e;}.cls-3{fill:#f05443;}</style></defs><g id="Layer_1-2"><g><path class="cls-2" d="m100.16,97.54c0,3.14,0,6.14,0,9.13,0,2.53-.53,3.06-3.02,3.06-6.31,0-12.62,0-18.92,0-2.17,0-2.79-.62-2.79-2.78,0-3.08,0-6.16,0-9.41-.64,0-1.17,0-1.71,0-23.54,0-47.07,0-70.61,0-2.59,0-3.11-.52-3.11-3.12C0,63.95,0,33.48,0,3.01,0,.57.56,0,2.96,0,41.61,0,80.26,0,118.91,0c2.5,0,3.04.54,3.04,3.06,0,30.52,0,61.03,0,91.55,0,2.35-.59,2.94-2.9,2.94-6.22,0-12.44,0-18.88,0ZM54.83,20.42H4.13v36.41h50.7V20.42ZM4.12,16.17h113.66V4.13H4.12v12.04Zm54.86,39.04c18.35-11.62,36.53-23.13,54.97-34.81h-54.97v34.81Zm16.36,34.2c-.66,0-1.16,0-1.67,0-8.3,0-16.59,0-24.89,0-2.16,0-2.79-.64-2.8-2.8,0-6.22,0-12.44,0-18.66,0-2.34.59-2.92,2.92-2.92,8.51,0,17.02,0,25.52-.01.43,0,1.06-.04,1.25-.31.82-1.15,1.51-2.39,2.29-3.67H4.16v32.35h71.19v-3.98Zm40.46-45.85c-.6,3.03-2.48,4.83-5.31,5.25-2.8.42-5.34-.49-7.86-1.52-2.03-.83-4.04-1.76-6.13-2.39-1.17-.35-2.54-.41-3.73-.18-2.56.48-3.65,3.26-2.3,5.43,1.18,1.9,2.39,3.79,3.53,5.72.42.72.88,1.05,1.78,1.05,6.99-.05,13.97-.02,20.96-.03.36,0,.73-.05,1.04-.07V22.79c-17.92,11.35-35.7,22.62-53.49,33.88,5.24.23,10.36.24,15.48.2.39,0,.91-.38,1.14-.73,1.45-2.29,2.84-4.61,4.22-6.94.23-.39.4-.84.46-1.29.72-5.12,4.86-8.32,9.94-7.37,2.42.45,4.75,1.45,7.09,2.26,1.59.55,3.11,1.35,4.74,1.77,1.75.45,3.6.61,4.53-1.55,1.33.18,2.57.36,3.9.54Zm-20.02,44.49c.3-2.58.38-5.05.9-7.42.54-2.44,2.19-4.32,4.19-5.85-3.77-6.14-7.48-12.17-11.19-18.21-.08.02-.17.04-.25.07,0,.32,0,.63,0,.95,0,3.05.03,6.1-.02,9.14-.01.85.23,1.31,1.02,1.75,2.52,1.39,3.47,4.42,2.33,7.02-1.16,2.66-4.09,4.07-6.81,3.2-2.24-.72-3.66-2.28-4-4.63-.32-2.19.51-3.96,2.24-5.33.41-.32,1.06-.72,1.07-1.09.08-3.49.05-6.97.05-10.46-.1-.03-.2-.06-.31-.1-3.55,5.88-7.1,11.75-10.71,17.73,4.87,3.19,5.46,8.06,5.09,13.23h16.39Zm-45.63-18.91v16.11h25.15c.3-3.22-1.28-6.07-4.14-7.6-1.81-.97-2.09-1.94-1.02-3.68.96-1.57,1.94-3.13,2.99-4.83h-22.98Zm47.04-8.14c.7,1.17,1.33,2.12,1.85,3.13.36.69.82.92,1.6.91,3.6-.04,7.19-.03,10.79-.01,1.6,0,2.38.75,2.39,2.3.02,6.6.02,13.2,0,19.8,0,1.5-.78,2.26-2.28,2.28-3.3.02-6.6,0-9.9,0-.45,0-.9,0-1.36,0v3.97h17.52v-32.38h-20.6Zm-1.14,44.6v-13.31h-16.47v13.31h16.47Zm4.1-20.33h9.53v-16.09h-7.45c1.02,1.65,1.96,3.14,2.89,4.65,1.06,1.72.82,2.6-.92,3.6-2.98,1.72-4.21,4.35-4.04,7.83Zm-10.95-12.08c-.05-.84-.6-1.44-1.56-1.46-.97-.02-1.62.58-1.64,1.56-.02.98.6,1.55,1.58,1.63.88.07,1.61-.66,1.63-1.72Z"/><path class="cls-3" d="m21.21,54.87c-3.51,0-7.03,0-10.54,0-1.82,0-2.53-.72-2.54-2.54,0-2.41-.01-4.83,0-7.24.01-1.66.75-2.41,2.41-2.41,7.2-.01,14.4-.01,21.59,0,1.66,0,2.4.74,2.41,2.41.02,2.46.02,4.91,0,7.37-.01,1.66-.75,2.4-2.41,2.41-3.64.02-7.28,0-10.92,0Zm-8.96-4.13h18.16v-3.91H12.25v3.91Z"/><path class="cls-3" d="m8.21,32.57h32.35v3.92H8.21v-3.92Z"/><path class="cls-3" d="m8.19,28.36v-3.91h16.1v3.91H8.19Z"/><path class="cls-3" d="m12.1,12.14h-3.9v-3.91h3.9v3.91Z"/><path class="cls-3" d="m16.32,12.12v-3.9h3.92v3.9h-3.92Z"/><path class="cls-3" d="m28.35,12.17h-3.86v-3.95h3.86v3.95Z"/><path class="cls-1" d="m25.06,89.41c-4.74,0-9.48,0-14.22,0-2.06,0-2.71-.66-2.71-2.75,0-6.31,0-12.61,0-18.92,0-2.07.65-2.72,2.74-2.72,9.52,0,19.05,0,28.57,0,1.97,0,2.67.69,2.67,2.68,0,6.35.01,12.7,0,19.04,0,1.98-.71,2.65-2.7,2.65-4.78,0-9.57,0-14.35,0Zm12.89-4.1v-16.14H12.28v16.14h25.67Z"/></g></g></svg>