<?xml version="1.0" encoding="utf-8"?>
<!-- Generator: Adobe Illustrator 23.0.3, SVG Export Plug-In . SVG Version: 6.00 Build 0)  -->
<svg version="1.1" id="Layer_1" xmlns="http://www.w3.org/2000/svg" xmlns:xlink="http://www.w3.org/1999/xlink" x="0px" y="0px"
	 viewBox="0 0 44 44" style="enable-background:new 0 0 44 44;" xml:space="preserve">
<style type="text/css">
	.st0{fill:#B41F5E;}
	.st1{fill:#F05544;}
	.st2{fill:#FDBE14;}
</style>
<g id="Layer_3">
</g>
<path class="st0" d="M31.1,13.1c1,0,1.9,0,2.9,0c0.9,0,1.3-0.4,1.3-1.2c0-1.4,0-2.8,0-4.3c0-1.1-0.4-1.9-1.3-2.6
	c-0.5-0.4-1-0.6-1.6-0.8c-7,0-14,0-21.1,0c0,0.1-0.1,0.1-0.2,0.1C9.5,4.6,8.4,6,8.4,7.6c0,9.6,0,19.2,0,28.9c0,1.8,1.5,3.4,3.3,3.4
	c6.7,0,13.4,0,20.1,0c1.8,0,3.3-1.5,3.3-3.3c0-1.5,0-2.9,0-4.4c0-0.8-0.4-1.2-1.2-1.2c-1,0-2,0-3,0c-0.2,0-0.3,0-0.3-0.2
	c0-0.3,0-0.6,0-0.9c0-0.5-0.3-0.8-0.7-1c-0.8-0.3-1.5,0.2-1.5,1.1c0,2.1,0,4.2,0,6.3c0,0.5,0,1,0.2,1.4c-0.2,0-0.3,0-0.4,0
	c-5.5,0-10.9,0-16.4,0c-0.9,0-1.3-0.4-1.3-1.3c0-9.6,0-19.1,0-28.7c0-0.9,0.4-1.3,1.3-1.3c5.5,0,10.9,0,16.4,0c0.1,0,0.2,0,0.3,0
	c-0.2,0.4-0.2,0.8-0.2,1.2c0,3.8,0,7.5,0,11.3c0,2.1,0,4.3,0,6.4c0,0.6,0.2,1,0.7,1.1c0.8,0.3,1.5-0.2,1.5-1.1c0-4,0-7.9,0-11.9
	C30.7,13.2,30.8,13.1,31.1,13.1z M31,33.2c0.6,0,1.2,0,1.8,0c0.2,0,0.2,0.1,0.2,0.2c0,1.1,0,2.1,0,3.2c0,0.6-0.5,1.1-1.1,1.1
	c-0.6,0-1.1-0.4-1.1-1.1c0-0.5,0-1,0-1.6c0-0.5,0-1.1,0-1.6C30.7,33.2,30.8,33.2,31,33.2z M30.7,10.6c0-0.5,0-1,0-1.6
	c0-0.5,0-1,0-1.5c0-0.7,0.4-1.1,1.1-1.1c0.7,0,1.1,0.4,1.1,1.1c0,1,0,2.1,0,3.1c0,0.2,0,0.3-0.2,0.3c-0.6,0-1.2,0-1.7,0
	C30.8,10.9,30.7,10.8,30.7,10.6z"/>
<path class="st1" d="M19.6,14.3c0-0.7-0.4-1.2-1.2-1.2c-0.7,0-1.4,0-2.2,0c-0.7,0-1.5,0-2.2,0c-0.7,0-1.1,0.4-1.1,1.2
	c0,1.5,0,2.9,0,4.4c0,0.7,0.4,1.1,1.1,1.2c1.5,0,2.9,0,4.4,0c0.7,0,1.2-0.4,1.2-1.2C19.6,17.2,19.6,15.7,19.6,14.3z M17.1,17.6
	c-0.3,0-0.6,0-0.9,0c-0.3,0-0.5,0-0.8,0c-0.2,0-0.3,0-0.3-0.3c0-0.6,0-1.1,0-1.7c0-0.2,0-0.3,0.2-0.3c0.6,0,1.2,0,1.8,0
	c0.2,0,0.2,0.1,0.2,0.2c0,0.6,0,1.2,0,1.7C17.4,17.5,17.3,17.6,17.1,17.6z"/>
<path class="st1" d="M18.4,24.3c-1.5,0-2.9,0-4.4,0c-0.7,0-1.2,0.4-1.2,1.2c0,0.7,0,1.4,0,2.2c0,0.7,0,1.5,0,2.2
	c0,0.7,0.4,1.1,1.1,1.1c1.5,0,2.9,0,4.4,0c0.7,0,1.1-0.4,1.1-1.2c0-1.5,0-2.9,0-4.4C19.6,24.7,19.2,24.3,18.4,24.3z M17.3,28.7
	c-0.2,0.2-0.7,0.1-1,0.1c-0.4,0-0.9,0.2-1.1-0.1c-0.2-0.2,0-0.7,0-1c0-0.4-0.2-0.9,0.1-1.1c0.2-0.2,0.7-0.1,1-0.1
	c0.4,0,0.9-0.2,1.1,0.1c0.2,0.2,0.1,0.7,0.1,1C17.3,28,17.5,28.5,17.3,28.7z"/>
<path class="st2" d="M24,19.8c0.4,0,0.8,0,1.2,0c0.6,0,1.1-0.5,1.1-1.1c0-0.7-0.4-1.1-1.1-1.1c-0.8,0-1.5,0-2.3,0
	c-0.7,0-1.1,0.5-1.1,1.1c0,0.7,0.4,1.1,1.1,1.1C23.3,19.8,23.6,19.8,24,19.8z"/>
<path class="st2" d="M25.2,28.7c-0.4,0-0.8,0-1.2,0c-0.4,0-0.7,0-1.1,0c-0.7,0-1.1,0.5-1.1,1.1c0,0.7,0.4,1.1,1.1,1.1
	c0.8,0,1.5,0,2.3,0c0.7,0,1.1-0.5,1.1-1.1C26.3,29.2,25.8,28.7,25.2,28.7z"/>
<path class="st2" d="M25.2,13.1c-0.4,0-0.8,0-1.1,0c-0.4,0-0.8,0-1.2,0c-0.6,0-1.1,0.5-1.1,1.1c0,0.6,0.4,1.1,1,1.1
	c0.8,0,1.6,0,2.4,0c0.6,0,1.1-0.5,1.1-1.1C26.3,13.6,25.8,13.1,25.2,13.1z"/>
<path class="st2" d="M25.2,24.3c-0.8,0-1.6,0-2.3,0c-0.6,0-1.1,0.5-1.1,1.1c0,0.7,0.4,1.1,1.1,1.1c0.4,0,0.8,0,1.1,0
	c0.4,0,0.8,0,1.2,0c0.6,0,1.1-0.5,1.1-1.1C26.3,24.7,25.8,24.3,25.2,24.3z"/>
</svg>
