<?xml version="1.0" encoding="UTF-8"?>
<!DOCTYPE svg PUBLIC "-//W3C//DTD SVG 1.1//EN" "http://www.w3.org/Graphics/SVG/1.1/DTD/svg11.dtd">
<!-- Creator: CorelDRAW 2020 (64-Bit) -->
<svg preserveAspectRatio="xMidYMid meet" data-bbox="0 0 10626.51 5510.04" xmlns:xlink="http://www.w3.org/1999/xlink" viewBox="0 0 10626.51 5510.04" height="529.134" width="1020.47" xmlns="http://www.w3.org/2000/svg" shape-rendering="geometricPrecision" text-rendering="geometricPrecision" image-rendering="optimizeQuality" fill-rule="evenodd" clip-rule="evenodd" data-type="ugc" role="presentation" aria-hidden="true" aria-label="">
    <g>
        <defs>
            <linearGradient y2="1244.7" x2="9720.35" y1="1244.7" x1="5813.79" gradientUnits="userSpaceOnUse" id="132f2973-251b-40e1-ac96-8e78593add7b_comp-kcgf55ez">
                <stop offset="0" stop-color="#d41179"></stop>
                <stop offset="1" stop-color="#6d055e"></stop>
            </linearGradient>
            <linearGradient y2="2876.53" x2="9720.32" y1="2876.53" x1="906.17" xlink:href="#132f2973-251b-40e1-ac96-8e78593add7b_comp-kcgf55ez" gradientUnits="userSpaceOnUse" id="a21af516-93f6-44f8-bfc1-db0567dc7d3c_comp-kcgf55ez"></linearGradient>
            <linearGradient y2="2861.13" x2="5552.88" y1="2861.13" x1="3886.51" xlink:href="#132f2973-251b-40e1-ac96-8e78593add7b_comp-kcgf55ez" gradientUnits="userSpaceOnUse" id="8bdd9413-45ca-487f-a7de-ff63380abfe3_comp-kcgf55ez"></linearGradient>
        </defs>
        <path fill="none" d="M10626.51 0v5510.04H0V0h10626.51z"></path>
        <path d="M906.16 4532.47h285.64v-47.61H960.56v-428.45h-54.4v476.06zm473.35 0c58.49 0 104.72-46.93 104.72-105.42v-142.81c0-51-40.79-91.82-91.8-91.82h-74.82c-51.01 0-91.8 40.81-91.8 91.82v142.81c0 58.49 46.23 105.42 104.72 105.42h48.98zm-48.98-47.61c-27.87 0-50.32-23.12-50.32-51.01v-155.73c0-21.09 17.01-38.08 37.4-38.08h74.82c21.07 0 37.4 16.99 37.4 38.08v155.73c0 27.89-22.45 51.01-50.32 51.01h-48.98zm452.96 47.61v-47.61h-106.78c-38.09 0-70.05-31.97-70.05-70.73v-136.01c0-21.09 17.01-38.08 38.09-38.08h138.75v-47.61h-138.75c-51.69 0-92.48 40.81-92.48 91.82v123.77c0 68.7 55.76 124.46 124.45 124.46h106.78zm61.2 0h54.42v-476.06h-54.42v476.06zm54.42-170.01 160.5 170.01h70.73l-163.21-170.01 163.21-170.03h-70.73l-160.5 170.03zm285.65 170.01h54.4v-340.04h-54.4v340.04zm0-408.05h54.4v-68.02h-54.4v68.02zm190.42 192.47c0-42.18 34.69-76.85 76.85-76.85h27.89c21.09 0 38.09 16.99 38.09 38.08v254.35h54.4v-248.23c0-51-40.79-91.82-92.48-91.82h-27.89c-31.29 0-56.45 10.19-76.85 30.6l-20.4-30.6h-33.99v340.04h54.4v-215.58zm523.67-124.46h-159.82c-51 0-91.8 40.81-91.8 91.82v123.77c0 68.7 55.77 124.46 124.45 124.46h72.78v31.97c0 42.16-34.69 76.85-76.85 76.85h-79.58v47.61h79.58c72.78 0 131.25-56.46 131.25-129.22v-367.25zm-197.22 221.7v-136.01c0-21.09 16.33-38.08 37.4-38.08h105.42v244.82h-72.78c-38.77 0-70.05-31.97-70.05-70.73zm408.07-310.11h125.83v428.45h54.42v-428.45h125.81v-47.61H3109.7v47.61zm421.67 88.41v-136.02h-54.4v476.06h54.4v-292.43h104.74c21.09 0 38.09 16.99 38.09 38.08v254.35h54.4v-248.23c0-51-40.79-91.82-92.48-91.82h-104.74zm278.85 340.04h54.4v-217.63c0-40.81 33.33-74.8 74.81-74.8h81.62v-47.61h-81.62c-30.6 0-54.4 10.19-74.81 30.6l-20.4-30.6h-33.99v340.04zm299.23-248.23c0-23.82 18.36-44.2 40.81-44.2h61.2c21.77 0 40.81 20.39 40.81 44.2 0 23.12-13.61 38.77-31.97 42.84l-110.86 27.21v-70.05zm183.64 200.62h-107.47c-42.16 0-76.17-34.67-76.17-76.85v-3.39l123.1-29.92c40.81-9.53 74.12-47.61 74.12-90.46 0-51-42.16-91.82-95.21-91.82h-61.2c-53.05 0-95.21 40.81-95.21 91.82v116.96c0 72.78 57.81 131.26 130.57 131.26h107.47v-47.61zm122.4-44.89c0-21.75 13.61-38.77 31.97-43.52l110.88-27.21v115.62H4452.9c-21.75 0-37.41-21.07-37.41-44.89zm105.44-199.93c20.41 0 37.41 16.31 37.41 37.4v43.52l-122.44 29.24c-41.47 10.21-74.81 48.3-74.81 89.77 0 51.01 38.77 92.5 91.81 92.5h159.85v-248.91c0-51.01-40.81-91.14-91.82-91.14H4388.3v47.61h132.63zm268.64 244.82c-22.45 0-40.81-19.73-40.81-43.52v-201.3h81.6v-47.61h-81.6v-136.02h-54.4v384.93c0 51 41.47 91.13 95.21 91.13h40.79v-47.61h-40.79zm251.62-88.41c20.41 5.44 34.01 20.41 34.01 44.2 0 23.82-19.04 44.21-40.81 44.21h-149.61v47.61h149.61c53.05 0 95.23-40.81 95.23-91.82 0-44.2-32.64-78.88-74.82-89.77l-91.14-23.8c-17.68-4.75-31.28-21.09-31.28-42.84 0-23.82 19.04-44.2 40.81-44.2h136.02v-47.61h-136.02c-53.05 0-95.21 40.81-95.21 91.82 0 45.57 32.65 78.88 74.81 89.77l88.41 22.43zm156.43 217.63h54.4l6.8-142.8h-61.2v142.8zm598.49-557.67h-54.42v336.65c0 50.32-40.79 91.8-91.12 91.8h-14.28c-50.33 0-91.82-41.48-91.82-91.8v-336.65h-54.4v329.85c0 80.92 65.28 146.21 146.22 146.21h14.28c80.93 0 145.54-65.29 145.54-146.21v-329.85zm136.04 260.48c0-42.18 34.69-76.85 76.85-76.85h27.89c21.09 0 38.09 16.99 38.09 38.08v254.35h54.4v-248.23c0-51-40.8-91.82-92.49-91.82H6009c-31.28 0-56.45 10.19-76.85 30.6l-20.41-30.6h-33.99v340.04h54.4v-215.58zm333.25 215.58v-476.06H6211v476.06h54.4zm228.52 0c58.49 0 104.73-46.93 104.73-105.42v-142.81c0-51-40.8-91.82-91.8-91.82h-74.82c-51.01 0-91.8 40.81-91.8 91.82v142.81c0 58.49 46.23 105.42 104.72 105.42h48.98zm-48.98-47.61c-27.87 0-50.33-23.12-50.33-51.01v-155.73c0-21.09 17.01-38.08 37.41-38.08h74.82c21.07 0 37.4 16.99 37.4 38.08v155.73c0 27.89-22.45 51.01-50.33 51.01h-48.98zm452.96 47.61v-47.61h-106.79c-38.08 0-70.05-31.97-70.05-70.73v-136.01c0-21.09 17.01-38.08 38.09-38.08h138.75v-47.61h-138.75c-51.69 0-92.49 40.81-92.49 91.82v123.77c0 68.7 55.77 124.46 124.45 124.46h106.79zm61.2 0h54.4v-476.06h-54.4v476.06zm54.4-170.01 160.52 170.01h70.73l-163.23-170.01 163.23-170.03h-70.73l-160.52 170.03zm285.66 170.01h54.4v-340.04h-54.4v340.04zm0-408.05h54.4v-68.02h-54.4v68.02zm190.42 192.47c0-42.18 34.69-76.85 76.85-76.85h27.89c21.09 0 38.08 16.99 38.08 38.08v254.35h54.4v-248.23c0-51-40.79-91.82-92.48-91.82h-27.89c-31.28 0-56.44 10.19-76.85 30.6l-20.41-30.6h-33.99v340.04h54.4v-215.58zm523.67-124.46h-159.82c-51.01 0-91.8 40.81-91.8 91.82v123.77c0 68.7 55.76 124.46 124.45 124.46h72.78v31.97c0 42.16-34.69 76.85-76.85 76.85h-79.58v47.61h79.58c72.78 0 131.25-56.46 131.25-129.22v-367.25zm-197.22 221.7v-136.01c0-21.09 16.33-38.08 37.4-38.08h105.42v244.82h-72.78c-38.77 0-70.05-31.97-70.05-70.73zm618.9-144.86c59.19 0 108.83-46.93 108.83-106.08 0-59.17-49.64-106.78-108.83-106.78h-190.42v476.06h54.4v-263.2h136.02zm-136.02-48.28v-116.98h131.27c31.28 0 59.17 27.21 59.17 59.17 0 31.28-27.89 57.81-59.17 57.81h-131.27zm319.66 63.24c0-23.82 18.36-44.2 40.81-44.2h61.2c21.77 0 40.81 20.39 40.81 44.2 0 23.12-13.6 38.77-31.96 42.84l-110.86 27.21v-70.05zm183.64 200.62h-107.47c-42.16 0-76.17-34.67-76.17-76.85v-3.39l123.1-29.92c40.81-9.53 74.12-47.61 74.12-90.46 0-51-42.16-91.82-95.21-91.82h-61.2c-53.05 0-95.21 40.81-95.21 91.82v116.96c0 72.78 57.81 131.26 130.57 131.26h107.47v-47.61zm122.4-44.89c0-21.75 13.61-38.77 31.97-43.52l110.86-27.21v115.62h-105.42c-21.75 0-37.4-21.07-37.4-44.89zm105.42-199.93c20.41 0 37.4 16.31 37.4 37.4v43.52l-122.42 29.24c-41.48 10.21-74.81 48.3-74.81 89.77 0 51.01 38.77 92.5 91.8 92.5h159.84v-248.91c0-51.01-40.81-91.14-91.82-91.14h-132.61v47.61h132.61zm397.86 292.43v-47.61h-106.78c-38.09 0-70.05-31.97-70.05-70.73v-136.01c0-21.09 17.01-38.08 38.08-38.08h138.75v-47.61h-138.75c-51.69 0-92.48 40.81-92.48 91.82v123.77c0 68.7 55.76 124.46 124.45 124.46h106.78zm95.21-248.23c0-23.82 18.36-44.2 40.81-44.2h61.2c21.77 0 40.81 20.39 40.81 44.2 0 23.12-13.61 38.77-31.97 42.84l-110.86 27.21v-70.05zm183.64 200.62h-107.47c-42.16 0-76.17-34.67-76.17-76.85v-3.39l123.1-29.92c40.81-9.53 74.13-47.61 74.13-90.46 0-51-42.16-91.82-95.21-91.82h-61.2c-53.05 0-95.21 40.81-95.21 91.82v116.96c0 72.78 57.81 131.26 130.57 131.26h107.47v-47.61z" fill="#8b969c" fill-rule="nonzero"></path>
        <path d="m9441.77 1368.51 278.59 295.08h-170.89l-387.55-410.42h209.84c84.19 0 152.31-68.15 152.31-152.34 0-84.17-68.13-152.33-152.31-152.33h-238.32v715.09h-124.22V824.27h362.53c152.75 0 276.56 123.83 276.56 276.56 0 126.91-86.16 236.4-206.56 267.68zm-1433.23-124.63c50.35 45.51 79.5 110.06 79.5 178.73 0 133.08-107.87 240.98-240.95 240.98h-397.85v-15.9c0-269.18 1.26-538.35 1.26-807.53v-15.9h396.59c133.09 0 240.95 107.89 240.95 240.97 0 68.63-29.12 133.2-79.5 178.64zm346.51 62.16v233.31h498.51v124.23h-622.73V823.1h622.73v124.22h-498.51v234.5h271.36v124.22h-271.36zm-1817.22 229.49c-81.75 78.69-183.15 130.77-298.29 131.05-223.27.55-419.37-196.86-425.59-418.39-3.24-115.36 45.73-218.44 126.44-299.15 94.72-94.71 221.62-138.42 353.97-117.56 92.94 14.66 178 59.9 245.46 125l16.14 15.58-117.29 58.89-8.05-7.11c-75.06-66.28-168.36-94.11-265.83-65.57-124.76 36.52-224.01 158.21-225.85 289.6-1.13 79.82 33.57 149.64 89.33 205.38 66.31 66.32 159.73 96.86 252.29 82.89 54.96-8.3 106.14-31.8 148.19-68.14l8.04-6.94 117.24 58.88-16.18 15.58zm386.07-201.46-350.81-512.92h150.56l260.71 381.19 244.48-381.19h147.63l-328.32 511.88v335.23h-124.24v-334.2zm650.96 205.28h272.24c64.47 0 116.6-52.31 116.6-116.74 0-64.44-52.17-116.57-116.6-116.57h-272.24v233.31zm0-357.53h272.24c64.44 0 116.6-52.15 116.6-116.58 0-64.42-52.13-116.73-116.6-116.73h-272.24v233.32z" fill="url(#132f2973-251b-40e1-ac96-8e78593add7b_comp-kcgf55ez)" fill-rule="nonzero"></path>
        <path d="M1140.97 2976.18v483.08h1000.95v234.82H906.17V2021.13h1235.75v234.8H1140.97v485.45h544.86v234.8h-544.86zm4907.73 483.08h1114.18v234.82H5813.81V2021.9h234.89v1437.36zm1528.51-284.82 533.5-1157.24h258.56l-792.06 1718.65-791.87-1718.65h258.67l533.21 1157.24zm1908.31-433.07v-485.45H8484.57v-234.8h1235.75v1672.95H8484.57v-234.82h1000.95v-483.08h-544.86v-234.8h544.86zm-6395.05 433.07 533.21-1157.24h258.67l-791.87 1718.65-792.07-1718.65h258.57l533.5 1157.24z" fill="url(#a21af516-93f6-44f8-bfc1-db0567dc7d3c_comp-kcgf55ez)" fill-rule="nonzero"></path>
        <path d="M4719.7 1588.24c-128.95 0-246.27 52.82-331.37 137.91-85.09 85.11-137.91 202.41-137.91 331.37v157.93c-75.89 55.25-141.66 123.54-194.02 201.59v-359.52c0-182.5 74.6-348.35 194.77-468.53 120.17-120.17 286.03-194.76 468.53-194.76 364.82 0 663.3 298.48 663.3 663.3v359.55c-52.36-78.04-118.14-146.32-194.02-201.56v-157.99c0-258.09-211.18-469.28-469.28-469.28z" fill="#ffc526" fill-rule="nonzero"></path>
        <path d="M3886.51 2860.99c0-460.11 372.93-833.11 833.04-833.11 460.24 0 833.34 372.82 833.34 833.11 0 460.27-373.06 833.37-833.34 833.37-460.14 0-833.04-373.29-833.04-833.37z" fill="url(#8bdd9413-45ca-487f-a7de-ff63380abfe3_comp-kcgf55ez)" fill-rule="nonzero"></path>
        <path d="M5141.37 2734.47c70.08 232.92-62.06 478.49-294.94 548.43-232.92 69.96-478.49-62.22-548.36-294.92-70.21-233.08 61.95-478.56 294.94-548.65 233.08-69.94 478.47 62.22 548.36 295.14z" fill="#ffc526" fill-rule="nonzero"></path>
        <path d="M4944.87 2793.46c37.43 124.39-33.14 255.54-157.51 292.89-124.39 37.36-255.54-33.23-292.86-157.5-37.5-124.48 33.09-255.58 157.52-293.01 124.48-37.35 255.53 33.23 292.85 157.62z" fill="#000000" fill-rule="nonzero"></path>
        <path d="M4719.73 2931.72c-31.51 0-60.66-20.44-70.2-52.11-11.64-38.74 10.35-79.66 49.14-91.29a72.71 72.71 0 0 1 21.07-3.13c31.47 0 60.54 20.51 70.08 52.25 11.61 38.79-10.35 79.52-49.04 91.18a72.887 72.887 0 0 1-21.05 3.11z" fill="#dad9da" fill-rule="nonzero"></path>
    </g>
</svg>